<?xml version="1.0" encoding="utf-8"?>
<!-- Generator: Adobe Illustrator 16.0.4, SVG Export Plug-In . SVG Version: 6.00 Build 0)  -->
<!DOCTYPE svg PUBLIC "-//W3C//DTD SVG 1.1//EN" "http://www.w3.org/Graphics/SVG/1.1/DTD/svg11.dtd">
<svg version="1.1" id="Layer_1" xmlns="http://www.w3.org/2000/svg" xmlns:xlink="http://www.w3.org/1999/xlink" x="0px" y="0px"
	 width="556px" height="113px" viewBox="0 0 556 113" enable-background="new 0 0 556 113" xml:space="preserve">
<g>
	<path fill="#383A35" d="M63.581,16.182c0,0,7.717,7.885,8.692,27.967c0,0-14.346-20.52-50.616-19.609
		C21.657,24.54,41.815,18.573,63.581,16.182"/>
	<path fill="#85C346" d="M24.69,28.482c0,0,10.688-2.741,28.568,6.455c0,0-24.947,2.163-42.294,34.032
		C10.964,68.969,15.876,48.528,24.69,28.482"/>
	<path fill="#383A35" d="M15.871,68.311c0,0,2.971-10.624,19.873-21.513c0,0-10.598,22.687,8.328,53.646
		C44.072,100.444,28.824,85.97,15.871,68.311"/>
	<path fill="#85C346" d="M45.969,95.843c0,0-7.717-7.885-8.694-27.968c0,0,14.346,20.523,50.621,19.612
		C87.896,87.487,67.736,93.454,45.969,95.843"/>
	<path fill="#383A35" d="M84.883,83.545c0,0-10.685,2.739-28.567-6.456c0,0,24.946-2.163,42.294-34.033
		C98.61,43.056,93.699,63.499,84.883,83.545"/>
	<path fill="#85C346" d="M93.653,43.713c0,0-2.972,10.625-19.873,21.513c0,0,10.6-22.687-8.327-53.643
		C65.453,11.583,80.701,26.056,93.653,43.713"/>
	<path fill="#383A35" d="M145.949,14.952h7.342v55.088c0,3.157-0.121,6.252-0.301,9.225c-5.951,3.126-13.477,4.341-20.306,4.341
		c-17.147,0-24.37-6.708-24.37-27.771c0-20.667,6.556-27.739,22.67-27.739c5.16,0,10.168,0.789,14.965,2.033V14.952z
		 M133.352,34.197c-15.023,0-17.603,6.494-17.603,21.638c0,14.508,3.52,21.67,16.935,21.67c4.19,0,9.379-0.758,13.05-2.428
		c0.123-2.579,0.215-5.949,0.215-8.497V36.321C142.577,35.168,137.509,34.197,133.352,34.197"/>
	<polygon fill="#383A35" points="199.997,28.824 207.461,28.824 184.37,96.765 176.905,96.765 183.031,79.085 161.18,28.824 
		169.039,28.824 186.4,69.462 	"/>
	<path fill="#383A35" d="M222.715,82.879h-7.346V41.845c0-3.157,0.092-6.253,0.274-9.227c6.132-2.672,14.691-4.521,24.401-4.521
		c18.423,0,20.306,8.708,20.306,19.666v35.116h-7.375v-33.78c0-10.198-1.821-14.812-15.389-14.812c-4.491,0-11.29,1.123-14.66,2.641
		c-0.15,2.549-0.211,5.918-0.211,8.467V82.879z"/>
	<path fill="#383A35" d="M273.16,29.978c6.16-0.971,12.412-1.881,20.09-1.881c11.503,0,20.609,2.944,20.609,16.42v25.524
		c0,3.157-0.123,6.252-0.305,9.225c-6.373,3.157-13.961,4.341-22.58,4.341c-14.478,0-21.063-4.431-21.063-16.145
		c0-9.379,3.945-15.297,13.599-16.754c6.584-1.002,14.84-1.305,23.096-1.578V46.73c0-8.831-3.005-12.474-14.721-12.474
		c-6.252,0-12.292,0.73-18.057,1.549L273.16,29.978z M291.764,77.598c4.706,0,9.984-0.608,14.629-2.428
		c0.151-2.579,0.213-5.949,0.213-8.497V54.651c-6.191,0.123-14.842,0.305-20.518,1.458c-6.159,1.244-8.861,3.704-8.861,11.169
		C277.227,75.594,281.597,77.598,291.764,77.598"/>
	<path fill="#383A35" d="M337.72,14.953v13.871h12.05v5.828h-12.05v33.809c0,7.709,2.641,9.106,9.193,9.106
		c1.004,0,1.976-0.062,2.946-0.152l0.608,5.614c-1.821,0.305-4.068,0.578-5.859,0.578c-9.984,0-14.233-4.311-14.233-14.145v-34.81
		h-9.895v-5.828h9.895V14.951L337.72,14.953z"/>
	<path fill="#383A35" d="M362.057,82.879V41.662c0-3.157,0.092-6.252,0.305-9.226c5.947-3.127,13.475-4.339,20.273-4.339
		c1.791,0,3.458,0.059,5.038,0.243l-0.607,6.251c-1.335-0.152-2.792-0.211-4.431-0.211c-4.159,0-9.348,0.788-13.021,2.458
		c-0.15,2.548-0.211,5.947-0.211,8.497v37.544H362.057z"/>
	<path fill="#383A35" d="M396.856,29.978c6.162-0.971,12.412-1.881,20.09-1.881c11.503,0,20.607,2.944,20.607,16.42v25.524
		c0,3.157-0.121,6.252-0.302,9.225c-6.375,3.157-13.961,4.341-22.581,4.341c-14.476,0-21.062-4.431-21.062-16.145
		c0-9.379,3.945-15.297,13.594-16.754c6.586-1.002,14.843-1.305,23.099-1.578V46.73c0-8.831-3.005-12.474-14.72-12.474
		c-6.252,0-12.292,0.73-18.058,1.549L396.856,29.978z M415.462,77.598c4.703,0,9.982-0.608,14.627-2.428
		c0.151-2.579,0.213-5.949,0.213-8.497V54.651c-6.191,0.123-14.84,0.305-20.518,1.458c-6.16,1.244-8.861,3.704-8.861,11.169
		C400.923,75.594,405.293,77.598,415.462,77.598"/>
	<path fill="#383A35" d="M483.34,82.029c-4.311,0.879-8.56,1.577-14.144,1.577c-18.21,0-21.578-12.808-21.578-28.347
		c0-17.694,4.006-27.162,23.521-27.162c4.765,0,8.741,0.637,12.109,1.546l-0.607,5.646c-2.396-0.424-6.07-0.909-9.013-0.909
		c-16.905,0-18.542,5.916-18.542,20.879c0,14.052,1.24,21.974,18.451,21.974c2.762,0,6.494-0.607,9.104-1.154L483.34,82.029z"/>
	<path fill="#383A35" d="M490.145,55.836c0-19.606,5.891-27.739,23.644-27.739c18.3,0,23.248,9.559,23.248,24.342
		c0,1.516-0.061,3.519-0.152,5.128c-6.191,1.03-18.999,2.247-26.556,2.548l-12.809,0.516c0.912,11.079,4.249,16.754,17.876,16.754
		c7.041,0,13.535-0.758,19.091-1.518l0.668,5.949c-6.19,0.941-12.413,1.791-22.641,1.791
		C494.817,83.607,490.145,71.862,490.145,55.836 M511.633,54.379c4.736-0.211,12.869-0.85,17.847-1.487
		c0.091-1.093,0.121-2.67,0.121-3.793c0-9.165-4.007-14.993-15.812-14.993c-13.597,0-16.448,6.979-16.448,20.941L511.633,54.379z"/>
</g>
</svg>
