<?xml version="1.0" standalone="no"?>
<!DOCTYPE svg PUBLIC "-//W3C//DTD SVG 1.1//EN" "http://www.w3.org/Graphics/SVG/1.1/DTD/svg11.dtd" >
<svg xmlns="http://www.w3.org/2000/svg">
<metadata></metadata>
<defs>
<font id="interstate-boldregular" horiz-adv-x="1638" >
<font-face units-per-em="2048" ascent="1638" descent="-410" />
<missing-glyph horiz-adv-x="593" />
<glyph horiz-adv-x="0" />
<glyph unicode="&#xd;" horiz-adv-x="1024" />
<glyph unicode=" "  horiz-adv-x="593" />
<glyph unicode="&#x09;" horiz-adv-x="593" />
<glyph unicode="&#xa0;" horiz-adv-x="593" />
<glyph unicode="!" horiz-adv-x="696" d="M174 152q0 -72 51 -123.5t123 -51.5t123 51.5t51 123.5t-51 123t-123 51t-123 -51.5t-51 -122.5zM205 844l47 -393h192l48 393v590h-287v-590z" />
<glyph unicode="&#x22;" horiz-adv-x="1081" d="M117 1434l71 -670h195l72 670h-338zM627 1434l71 -670h195l72 670h-338z" />
<glyph unicode="#" horiz-adv-x="1515" d="M102 287h246v-287h250v287h320v-287h249v287h246v235h-246v389h246v236h-246v287h-249v-287h-320v287h-250v-287h-246v-236h246v-389h-246v-235zM598 522v389h320v-389h-320z" />
<glyph unicode="$" horiz-adv-x="1341" d="M109 248q66 -98 177 -163t251 -87v-203h286v203q211 33 308.5 146.5t97.5 289.5q0 117 -43 192.5t-111.5 125t-153.5 77t-171 48t-141.5 37t-88.5 35t-46 42t-13 58.5q0 47 45 82.5t160 35.5q98 0 177 -37.5t148 -109.5l207 201q-78 82 -169 135t-206 76v206h-286v-204 q-80 -16 -149 -49t-119 -84.5t-77.5 -118t-27.5 -146.5q0 -106 32.5 -178t92 -119t142.5 -77.5t181 -53.5q100 -23 164 -43t97.5 -42.5t46 -48t12.5 -60.5q0 -82 -60.5 -114t-189.5 -32q-104 0 -197.5 38t-169.5 126z" />
<glyph unicode="%" horiz-adv-x="2045" d="M78 1008q0 -102 27.5 -184.5t77.5 -139.5t119 -88t151 -31t151.5 32t120.5 90t80 140.5t29 184.5t-27 184t-76 140.5t-118.5 89t-155.5 30.5q-84 0 -154 -30.5t-120 -89t-77.5 -141.5t-27.5 -187zM307 1012q0 254 148 254q149 0 149 -258q0 -117 -37 -185.5t-110 -68.5 q-150 0 -150 258zM459 0h248l878 1434h-248zM1212 420q0 -102 28 -184t78 -139.5t118.5 -88.5t150.5 -31t151.5 32t121 90.5t80 140.5t28.5 184t-26.5 184t-75.5 140.5t-119 89t-156 30.5q-84 0 -153.5 -30.5t-119.5 -89t-78 -141.5t-28 -187zM1442 424q0 254 147 254 q150 0 150 -258q0 -117 -37 -185.5t-111 -68.5q-150 0 -149 258z" />
<glyph unicode="&#x26;" horiz-adv-x="1433" d="M84 358q0 -195 125 -288t346 -93q248 0 418 140l108 -117h328l-270 307q47 74 87 164t74 195l-231 73q-53 -141 -100 -237l-396 450q-35 41 -55 75t-20 81q0 45 35.5 69.5t99.5 24.5q78 0 152.5 -24.5t146.5 -77.5l137 207q-102 72 -199.5 110.5t-228.5 38.5 q-90 0 -168 -22.5t-135 -67.5t-90 -110.5t-33 -153.5q0 -86 34 -157t91 -134l37 -41q-137 -68 -215 -164t-78 -248zM371 383q0 66 35.5 120t121.5 99l281 -307q-88 -63 -221 -64q-109 0 -163 41t-54 111z" />
<glyph unicode="'" horiz-adv-x="581" d="M117 1434l71 -670h205l72 670h-348z" />
<glyph unicode="(" horiz-adv-x="757" d="M131 614q0 -143 27.5 -262t76 -220t113 -188t137.5 -169l185 127q-55 72 -100.5 148.5t-77 163.5t-49 188.5t-17.5 222.5q0 117 17.5 217t50 187t76.5 163t100 147l-185 127q-78 -86 -143.5 -176t-112.5 -192.5t-72.5 -221t-25.5 -262.5z" />
<glyph unicode=")" horiz-adv-x="757" d="M88 -98l184 -127q78 86 143.5 176t112.5 192.5t73 221.5t26 262t-28 261t-76 219t-112.5 189t-138.5 170l-184 -127q55 -72 100 -148.5t77 -163.5t49.5 -188.5t17.5 -222.5q0 -117 -17.5 -217t-50.5 -187t-77 -164t-99 -146z" />
<glyph unicode="*" horiz-adv-x="1024" d="M68 852l106 -184l250 168l-21 -304h218l-23 299l250 -167l108 186l-294 135l294 133l-108 187l-250 -170l23 299h-218l21 -301l-250 170l-106 -187l288 -133z" />
<glyph unicode="+" horiz-adv-x="1255" d="M113 571h374v-389h281v389h375v267h-375v389h-281v-389h-374v-267z" />
<glyph unicode="," horiz-adv-x="557" d="M102 -258h193l172 604h-334z" />
<glyph unicode="-" horiz-adv-x="833" d="M123 602h588v283h-588v-283z" />
<glyph unicode="." horiz-adv-x="557" d="M86 170q0 -39 15.5 -74t42 -61.5t61.5 -42t74 -15.5t73.5 15.5t61 42t42 61.5t15.5 74t-15.5 74t-42 61.5t-61.5 41.5t-73 15q-39 0 -74 -15t-61.5 -41.5t-42 -61.5t-15.5 -74z" />
<glyph unicode="/" horiz-adv-x="962" d="M8 -184h279l667 1802h-278z" />
<glyph unicode="0" horiz-adv-x="1409" d="M102 717q0 -164 39 -300t115 -233.5t187.5 -152t258.5 -54.5t260 55.5t190 154t116 234.5t39 300t-39 299t-116 232.5t-188.5 150.5t-258.5 53t-259 -54t-189 -151.5t-116 -233.5t-39 -300zM393 721q0 96 17.5 179t55.5 144.5t96.5 96.5t139.5 35q82 0 141.5 -36 t97.5 -97.5t56.5 -145.5t18.5 -180t-17.5 -180t-55.5 -145.5t-97.5 -97.5t-140.5 -36q-82 0 -141.5 36t-97.5 99.5t-55.5 147.5t-17.5 180z" />
<glyph unicode="1" horiz-adv-x="788" d="M80 1036h246v-1036h284v1434h-237q-23 -90 -97.5 -135.5t-195.5 -51.5v-211z" />
<glyph unicode="2" horiz-adv-x="1398" d="M123 1219l184 -215q76 72 177.5 122t230.5 50t182 -45.5t53 -100.5q0 -47 -34.5 -89t-127.5 -83q-131 -57 -249.5 -130t-208.5 -173t-144.5 -235.5t-56.5 -319.5h1122v276h-762q10 41 35 81t70 79t111.5 80t162.5 84q92 43 161 85t115 93t69.5 115.5t23.5 150.5 q0 207 -138 309.5t-394 102.5q-172 0 -319.5 -60.5t-262.5 -176.5z" />
<glyph unicode="3" horiz-adv-x="1320" d="M43 252q121 -143 263.5 -209t303.5 -66q133 0 243 30t187.5 88.5t120.5 145t43 203.5q0 70 -22.5 123.5t-56 91t-72.5 62t-74 37.5q63 33 114.5 104.5t51.5 188.5q0 100 -41 177t-112.5 127t-167 75.5t-206.5 25.5q-160 0 -275.5 -52t-217.5 -159l209 -190 q119 121 280 121q68 0 114 -12.5t73.5 -33t40 -47t12.5 -53.5q0 -72 -39 -108.5t-129 -36.5h-154v-281h170q102 0 156.5 -40t54.5 -124q0 -86 -67.5 -134t-208.5 -48q-111 0 -199 38t-178 132z" />
<glyph unicode="4" horiz-adv-x="1423" d="M90 293h784v-293h277v293h188v266h-188v875h-301l-760 -883v-258zM414 555q12 12 27.5 29.5t34 37t37.5 41t36 42.5l205 239q35 41 71 87t56 75q0 -20 -1 -60t-2 -86.5t-2.5 -91.5t-1.5 -75v-234h-176q-31 0 -71.5 -1t-83.5 -1q-41 0 -76 -1t-53 -1z" />
<glyph unicode="5" horiz-adv-x="1368" d="M104 131q135 -86 269.5 -120t290.5 -34q131 0 241.5 33t189.5 99.5t123 164t44 226.5q0 100 -32 187t-93.5 151.5t-153.5 100.5t-213 36q-102 0 -172 -16.5t-129 -49.5l16 248h691v277h-955l-49 -717l272 -101q51 35 118 60.5t165 25.5q51 0 95 -12t77 -37.5t52.5 -66.5 t19.5 -97q0 -117 -80 -176t-227 -59q-111 0 -215.5 31.5t-204.5 89.5z" />
<glyph unicode="6" horiz-adv-x="1357" d="M96 557q0 -152 44 -260.5t121 -180t180.5 -105.5t224.5 -34q127 0 237.5 32t191.5 94.5t128 153.5t47 212q0 119 -39 206t-107.5 144.5t-161 85t-198.5 27.5q-111 0 -184.5 -21.5t-143.5 -68.5q61 166 218 251t407 85v278q-186 0 -329.5 -40t-251 -108.5t-180.5 -159.5 t-119 -190.5t-65.5 -203t-19.5 -197.5zM393 457q0 113 76 164t223 51q135 0 211 -51t76 -162q0 -100 -79 -157.5t-222 -57.5q-141 0 -213 56t-72 157z" />
<glyph unicode="7" horiz-adv-x="1292" d="M90 1161h729q-201 -229 -311.5 -520t-110.5 -641h293q0 371 128 657.5t347 499.5v277h-1075v-273z" />
<glyph unicode="8" horiz-adv-x="1437" d="M119 430q0 -106 42 -190t119.5 -142.5t188.5 -89.5t250 -31t249.5 33t188.5 93.5t120 146t42 194.5q0 68 -20.5 122.5t-52.5 94t-72.5 69.5t-81.5 48q84 47 124.5 117t40.5 147q0 104 -44 182.5t-118.5 129.5t-172 76.5t-203.5 25.5q-113 0 -211 -26.5t-171 -80 t-115 -133t-42 -186.5q0 -80 44 -145.5t122 -106.5q-41 -18 -82 -47t-72.5 -71t-52 -99t-20.5 -131zM406 436q0 92 75.5 147.5t237.5 55.5q164 0 238.5 -53.5t74.5 -151.5t-83 -151.5t-230 -53.5q-137 0 -225 54.5t-88 152.5zM467 1038q0 70 59.5 120t192.5 50q70 0 119 -14 t77.5 -37.5t42 -54.5t13.5 -66q0 -72 -59.5 -117t-192.5 -45q-125 0 -188.5 47.5t-63.5 116.5z" />
<glyph unicode="9" horiz-adv-x="1357" d="M88 965q0 -119 39 -206t107.5 -144.5t160.5 -85t199 -27.5q111 0 184.5 21.5t143.5 68.5q-61 -166 -218 -251t-407 -85v-279q186 0 329.5 40t251 109t180 160t119 190t66 203t19.5 198q0 150 -44 259t-121 181t-181.5 105.5t-223.5 33.5q-127 0 -237.5 -31.5t-191.5 -94 t-128 -155t-47 -210.5zM379 975q0 100 79 157.5t222 57.5q141 0 213 -56.5t72 -156.5q0 -113 -76 -164t-223 -51q-135 0 -211 51t-76 162z" />
<glyph unicode=":" horiz-adv-x="557" d="M86 170q0 -39 15.5 -74t42 -61.5t61.5 -42t74 -15.5t73.5 15.5t61 42t42 61.5t15.5 74t-15.5 74t-42 61.5t-61.5 41.5t-73 15q-39 0 -74 -15t-61.5 -41.5t-42 -61.5t-15.5 -74zM86 905q0 -39 15.5 -73.5t42 -61.5t61.5 -42t74 -15t73.5 15t61 42t42 61.5t15.5 73.5 t-15.5 74t-42 61.5t-61.5 42t-73 15.5q-39 0 -74 -15.5t-61.5 -42t-42 -61.5t-15.5 -74z" />
<glyph unicode=";" horiz-adv-x="557" d="M86 905q0 -39 15.5 -73.5t42 -61.5t61.5 -42t74 -15t73.5 15t61 42t42 61.5t15.5 73.5t-15.5 74t-42 61.5t-61.5 42t-73 15.5q-39 0 -74 -15.5t-61.5 -42t-42 -61.5t-15.5 -74zM88 -258h193l172 604h-334z" />
<glyph unicode="&#x3c;" horiz-adv-x="921" d="M117 608l678 -551v355l-383 295l383 292v353l-678 -551v-193z" />
<glyph unicode="=" horiz-adv-x="1255" d="M164 330h928v264h-928v-264zM164 815h928v264h-928v-264z" />
<glyph unicode="&#x3e;" horiz-adv-x="921" d="M127 57l678 551v193l-678 551v-355l383 -295l-383 -292v-353z" />
<glyph unicode="?" horiz-adv-x="1196" d="M45 1219l184 -215q70 74 156 123t203 49q131 0 187 -39t56 -111q0 -55 -27.5 -87t-105.5 -67q-86 -41 -142 -84t-89 -94t-45 -110.5t-12 -132.5h280q2 45 13.5 78.5t36 61t65.5 53.5t106 56q37 18 74 46t66.5 69t48 96t18.5 127q0 106 -39 185.5t-108.5 130.5 t-167.5 76.5t-215 25.5q-180 0 -314.5 -69.5t-228.5 -167.5zM377 152q0 -72 51 -123.5t123 -51.5t123 51.5t51 123.5t-51 123t-123 51t-123 -51.5t-51 -122.5z" />
<glyph unicode="@" horiz-adv-x="1712" d="M117 717q0 -160 55 -296t153.5 -234.5t234.5 -154t296 -55.5q88 0 157.5 14.5t157.5 55.5l-49 109q-70 -35 -133 -47.5t-133 -12.5q-135 0 -248.5 47t-196.5 130t-129 197t-46 249q0 133 46 246.5t129 196.5t196.5 130t248.5 47q133 0 247 -48t196.5 -130t130 -190.5 t47.5 -231.5q0 -145 -41 -224t-138 -79q-70 0 -98.5 39t-28.5 98v293q0 135 -89 206t-232 71q-96 0 -161.5 -19.5t-133.5 -60.5l76 -135q53 29 100 41t119 12q61 0 91 -31.5t30 -79.5v-51q-33 16 -67 27.5t-93 11.5q-68 0 -126 -16.5t-102 -49t-69 -81.5t-25 -115 q0 -72 26 -125t67 -88t94 -52.5t108 -17.5q96 0 155.5 32t107.5 83q39 -53 92 -83t147 -30q68 0 124 22.5t98 74t64.5 131t22.5 194.5q0 145 -54 276.5t-151.5 229.5t-233.5 155.5t-300 57.5q-160 0 -296 -55t-234.5 -153.5t-153.5 -234.5t-55 -296zM688 596q0 109 129 109 q59 0 92 -10.5t62 -26.5v-105q-18 -33 -59.5 -56.5t-94.5 -23.5q-72 0 -100.5 34t-28.5 79z" />
<glyph unicode="A" horiz-adv-x="1536" d="M82 0h307l113 319h524l113 -319h315l-545 1434h-278zM600 592l92 260q23 63 42.5 122.5t29.5 100.5q10 -41 29.5 -100.5t42.5 -122.5l92 -260h-328z" />
<glyph unicode="B" horiz-adv-x="1454" d="M184 0h652q115 0 209 29.5t160.5 88t103.5 145.5t37 200q0 119 -57.5 196.5t-143.5 116.5q72 43 111.5 115t39.5 164q0 184 -122.5 281.5t-331.5 97.5h-658v-1434zM465 272v371h381q205 0 205 -184q0 -86 -50.5 -136.5t-154.5 -50.5h-381zM465 897v272h364 q94 0 135.5 -34.5t41.5 -102.5q0 -59 -36 -97t-126 -38h-379z" />
<glyph unicode="C" horiz-adv-x="1372" d="M109 717q0 -170 45 -306.5t128 -232.5t197.5 -148.5t255.5 -52.5q197 0 327 85t204 239l-242 143q-57 -96 -119.5 -139t-161.5 -43q-80 0 -143 35t-107 96.5t-67 144.5t-23 179q0 100 23 183t66 143.5t106.5 94t142.5 33.5q98 0 161 -40.5t102 -114.5l266 123 q-35 70 -83 128t-112.5 100t-146.5 65.5t-183 23.5q-141 0 -257.5 -54t-200.5 -151.5t-131 -233.5t-47 -300z" />
<glyph unicode="D" horiz-adv-x="1447" d="M184 0h428q137 0 269.5 41t236 128t166 223.5t62.5 324.5q0 197 -54.5 333t-149.5 222t-225.5 124t-283.5 38h-449v-1434zM471 279v876h152q227 0 327.5 -109.5t100.5 -328.5q0 -98 -27 -179t-80 -138.5t-136 -89t-196 -31.5h-141z" />
<glyph unicode="E" horiz-adv-x="1331" d="M184 0h1026v281h-739v346h412v278h-412v248h709v281h-996v-1434z" />
<glyph unicode="F" horiz-adv-x="1280" d="M184 0h287v604h432v279h-432v270h739v281h-1026v-1434z" />
<glyph unicode="G" horiz-adv-x="1429" d="M109 717q0 -170 45 -306.5t128 -232.5t197.5 -148.5t255.5 -52.5q125 0 230.5 38t182.5 112t120 181.5t43 246.5v188h-514v-268h227q-6 -47 -23.5 -87t-49 -68.5t-83 -45t-125.5 -16.5q-80 0 -143 35t-107 96.5t-67 145t-23 182.5q0 100 23 183t66 143.5t106.5 94 t142.5 33.5q57 0 100.5 -14t75 -38.5t55 -59.5t44.5 -74l272 113q-35 82 -83 148.5t-113.5 113.5t-150.5 71.5t-196 24.5q-141 0 -257.5 -54t-200.5 -151.5t-131 -233.5t-47 -300z" />
<glyph unicode="H" horiz-adv-x="1529" d="M184 0h287v602h588v-602h287v1434h-287v-549h-588v549h-287v-1434z" />
<glyph unicode="I" horiz-adv-x="696" d="M205 0h287v1434h-287v-1434z" />
<glyph unicode="J" horiz-adv-x="1331" d="M66 401q27 -94 75.5 -171.5t117.5 -134t158 -87.5t197 -31q141 0 244 44.5t169.5 126t98 195.5t31.5 255v836h-287v-844q0 -162 -61 -245t-195 -83q-104 0 -165.5 52.5t-102.5 162.5z" />
<glyph unicode="K" horiz-adv-x="1474" d="M184 0h287v422l229 270l390 -692h344l-527 938l420 496h-346l-401 -490q-29 -35 -64 -78t-49 -67q0 16 1 47t2 63.5t1 63.5v53v408h-287v-1434z" />
<glyph unicode="L" horiz-adv-x="1269" d="M184 0h1006v283h-719v1151h-287v-1434z" />
<glyph unicode="M" horiz-adv-x="1710" d="M184 0h281v526q0 29 -1 74t-1 92t-1 88t-1 62q16 -41 43.5 -108.5t56.5 -129.5l291 -637l291 637q29 61 56.5 129t43.5 109q0 -20 -1 -61.5t-1 -88.5t-1 -92t-1 -74v-526h287v1434h-283l-289 -650q-29 -61 -55.5 -129.5t-40.5 -109.5q-6 18 -17.5 47t-24.5 61.5 t-27.5 66.5t-28.5 64l-299 650h-277v-1434z" />
<glyph unicode="N" horiz-adv-x="1529" d="M184 0h283v631q0 31 -1 76t-1 90q0 47 -1 87t-1 60q14 -29 44 -75t56 -87l527 -782h256v1434h-283v-607q0 -31 1 -75.5t1 -92.5q0 -45 1 -84.5t1 -60.5q-14 29 -44 75t-56 87l-508 758h-275v-1434z" />
<glyph unicode="O" horiz-adv-x="1472" d="M104 715q0 -174 46.5 -310.5t129 -231.5t198.5 -145.5t257 -50.5q139 0 256 51.5t201 146.5t130 232.5t46 311.5t-46 310t-129 231.5t-198.5 145.5t-255.5 50q-141 0 -257.5 -51t-200.5 -146.5t-130.5 -232.5t-46.5 -311zM399 719q0 219 91.5 335.5t242.5 116.5 q152 0 246 -118.5t94 -337.5t-91 -336t-243 -117t-246 119t-94 338z" />
<glyph unicode="P" horiz-adv-x="1392" d="M184 0h287v508h315q111 0 206 26.5t165 84t109 146.5t39 214q0 115 -39 200t-106.5 142t-158 85t-190.5 28h-627v-1434zM471 786v369h330q96 0 152.5 -44t56.5 -138q0 -186 -205 -187h-334z" />
<glyph unicode="Q" horiz-adv-x="1462" d="M109 717q0 -164 42 -300t121.5 -233.5t195.5 -152t263 -54.5q117 0 213 39l103 -149l219 143l-107 156q94 98 144.5 231.5t50.5 319.5q0 164 -42 300t-122 233.5t-195.5 151.5t-263.5 54q-147 0 -263 -54t-195.5 -151.5t-121.5 -233.5t-42 -300zM403 717q0 96 18.5 179 t58.5 144.5t102.5 96t148.5 34.5t148.5 -34.5t102.5 -96t58.5 -144.5t18.5 -179q0 -92 -12.5 -174t-47.5 -142l-92 138l-219 -144l96 -143q-10 -2 -22 -3t-25 -1q-86 0 -149.5 37t-104.5 99t-60.5 148t-19.5 185z" />
<glyph unicode="R" horiz-adv-x="1462" d="M184 0h287v516h289l256 -516h330l-275 557q137 53 206 156.5t69 265.5q0 115 -39 200t-106.5 142t-158 85t-190.5 28h-668v-1434zM471 786v369h375q96 0 150.5 -42t54.5 -140q0 -186 -205 -187h-375z" />
<glyph unicode="S" horiz-adv-x="1353" d="M115 238q82 -121 229.5 -191t327.5 -70q147 0 252.5 33t175 93.5t102.5 144.5t33 186q0 117 -43 192.5t-111.5 125t-153.5 77t-171 48t-141.5 37t-88 35t-46 42t-13.5 58.5q0 25 10 47t35 40.5t63.5 30t96.5 11.5q98 0 177 -38t148 -110l207 201q-102 106 -228 165.5 t-294 59.5q-106 0 -199.5 -28.5t-163 -83t-109.5 -132t-40 -176.5q0 -106 33 -178t92 -119t142 -77.5t181 -53.5q100 -23 164 -43t97.5 -42.5t46 -48t12.5 -60.5q0 -82 -60.5 -119t-189.5 -37q-104 0 -197.5 38t-168.5 126z" />
<glyph unicode="T" horiz-adv-x="1294" d="M92 1151h412v-1151h287v1151h411v283h-1110v-283z" />
<glyph unicode="U" horiz-adv-x="1509" d="M174 629q0 -158 42 -279t118 -204t183.5 -126t236.5 -43q274 0 427.5 171.5t153.5 484.5v801h-286v-805q0 -174 -79 -272.5t-216 -98.5t-215 100.5t-78 274.5v801h-287v-805z" />
<glyph unicode="V" horiz-adv-x="1462" d="M82 1434l510 -1434h278l510 1434h-313l-264 -830q-20 -63 -37.5 -128.5t-28.5 -106.5q-4 18 -11 46.5t-16.5 60.5t-19.5 64.5t-20 63.5l-271 830h-317z" />
<glyph unicode="W" horiz-adv-x="1804" d="M102 1434l299 -1434h269l180 737q16 63 29.5 134t17.5 112q6 -41 19.5 -110.5t29.5 -135.5l176 -737h281l299 1434h-295l-125 -699q-10 -51 -20.5 -120.5t-14.5 -114.5q-8 45 -22.5 113.5t-26.5 121.5l-170 699h-250l-168 -699q-12 -53 -26.5 -121.5t-22.5 -113.5 q-4 45 -14 113.5t-21 121.5l-125 699h-299z" />
<glyph unicode="X" horiz-adv-x="1437" d="M92 0h342l129 217q20 33 44 74t45.5 80t39 72.5t27.5 54.5q10 -20 28.5 -54t40 -74t45 -80t41.5 -73l130 -217h342l-457 733l436 701h-342l-109 -185q-20 -35 -42.5 -74.5t-44 -78.5t-40 -73t-28.5 -54q-10 20 -28.5 54t-40 74t-45 80t-42.5 72l-108 185h-342l434 -701z " />
<glyph unicode="Y" horiz-adv-x="1462" d="M45 1434l543 -873v-561h286v567l543 867h-325l-203 -340q-20 -35 -43 -75t-44.5 -79t-40 -72.5t-28.5 -54.5q-10 20 -28.5 54t-40 74t-45 80t-41.5 73l-203 340h-330z" />
<glyph unicode="Z" horiz-adv-x="1409" d="M139 0h1131v262h-494h-74q-41 0 -81.5 -1t-77.5 -2t-58 -1q14 14 35 36.5t44.5 49.5t46 53.5t38.5 46.5l611 736v254h-1080v-263h449h71q43 0 84 1.5t77 2.5t59 1q-14 -14 -35 -37t-44.5 -49.5t-46 -53t-38.5 -47.5l-617 -735v-254z" />
<glyph unicode="[" horiz-adv-x="849" d="M195 -225h526v225h-250v1208h250v226h-526v-1659z" />
<glyph unicode="\" horiz-adv-x="962" d="M8 1618l668 -1802h278l-667 1802h-279z" />
<glyph unicode="]" horiz-adv-x="849" d="M129 0v-225h526v1659h-526v-226h250v-1208h-250z" />
<glyph unicode="^" horiz-adv-x="1183" d="M96 782h287l207 381l207 -381h290l-382 652h-226z" />
<glyph unicode="_" horiz-adv-x="1024" d="M0 -147v-236h1024v236h-1024z" />
<glyph unicode="`" horiz-adv-x="1024" d="M205 1546l297 -327h239l-178 327h-358z" />
<glyph unicode="a" horiz-adv-x="1138" d="M86 360q0 -98 35 -169.5t91 -118.5t128 -71t147 -24q76 0 139.5 27t102.5 68v-72h283v721q0 90 -32 160.5t-89 119t-137 73t-179 24.5q-66 0 -119 -7.5t-101 -20.5t-92 -33.5t-91 -47.5l109 -196q37 20 69.5 33.5t66.5 21.5t71.5 12t86.5 4q78 0 116 -40t38 -97v-53 q-35 16 -84 29.5t-123 13.5q-92 0 -171 -22.5t-138 -66.5t-93 -111.5t-34 -156.5zM369 360q0 66 42 101t121 35q76 0 118 -11.5t79 -33.5v-136q-23 -39 -75 -68.5t-122 -29.5q-90 0 -126.5 43t-36.5 100z" />
<glyph unicode="b" horiz-adv-x="1150" d="M137 0h283v61q39 -35 97 -59.5t130 -24.5q100 0 178 40t131.5 113t81 173t27.5 221q0 150 -33 258.5t-90 179t-133 103.5t-162 33q-78 0 -132 -28t-95 -62v485l-283 -141v-1352zM420 336v405q31 41 69.5 65.5t104.5 24.5q84 0 134 -73.5t50 -239.5q0 -274 -168 -274 q-123 0 -190 92z" />
<glyph unicode="c" horiz-adv-x="1099" d="M82 537q0 -123 39 -226.5t107.5 -177.5t160.5 -115t197 -41q80 0 144.5 17.5t116.5 50.5t96 76t83 96l-180 170q-55 -66 -112.5 -101.5t-141.5 -35.5q-102 0 -162.5 79t-60.5 208q0 133 60 210.5t163 77.5q86 0 142.5 -43t103.5 -110l186 188q-68 104 -170 171t-256 67 q-113 0 -207 -41t-162.5 -116t-107.5 -178.5t-39 -225.5z" />
<glyph unicode="d" horiz-adv-x="1150" d="M82 551q0 -152 32.5 -259.5t90 -178t133.5 -103.5t162 -33q78 0 132 28t95 63v-68h283v1493l-283 -141v-338q-39 35 -97.5 59.5t-129.5 24.5q-100 0 -178 -40t-131.5 -113t-81 -173t-27.5 -221zM369 557q0 274 168 274q123 0 190 -92v-405q-31 -41 -70 -65.5t-104 -24.5 q-84 0 -134 73.5t-50 239.5z" />
<glyph unicode="e" horiz-adv-x="1101" d="M82 537q0 -127 36 -230.5t101.5 -176.5t158.5 -113t210 -40q109 0 214 45.5t171 129.5l-201 167q-31 -35 -78 -55t-106 -20q-39 0 -77 11t-68.5 34.5t-51 62.5t-24.5 94h643q2 16 3 38t1 53q0 115 -31 217t-88 179t-142 121t-192 44q-102 0 -189 -41t-151.5 -116 t-101.5 -178.5t-37 -225.5zM371 659q8 82 53 137.5t123 55.5q47 0 82 -16.5t58.5 -44t35.5 -61.5t16 -71h-368z" />
<glyph unicode="f" horiz-adv-x="757" d="M78 809h129v-809h282v809h183v266h-183v90q0 45 20.5 65.5t84.5 20.5q31 0 53 -6t45 -16v227q-74 31 -178 31q-147 0 -227 -65.5t-80 -217.5v-129h-129v-266z" />
<glyph unicode="g" horiz-adv-x="1150" d="M82 551q0 -152 32.5 -259.5t90 -178t133.5 -103.5t162 -33q78 0 132 28t95 63q0 -61 -12.5 -104.5t-45 -72t-87 -45t-136.5 -28.5l101 -213q141 14 231 57t141.5 113.5t71 172t19.5 234.5v893h-283v-61q-39 35 -97.5 59.5t-129.5 24.5q-100 0 -178 -40t-131.5 -113 t-81 -173t-27.5 -221zM369 557q0 274 168 274q123 0 190 -92v-405q-31 -41 -70 -65.5t-104 -24.5q-84 0 -134 73.5t-50 239.5z" />
<glyph unicode="h" horiz-adv-x="1196" d="M137 0h283v588q0 139 48 191t136 52t135 -53t47 -196v-582h283v606q0 227 -96 359.5t-301 132.5q-86 0 -150.5 -28t-101.5 -66v489l-283 -141v-1352z" />
<glyph unicode="i" horiz-adv-x="577" d="M127 1325q0 -66 48 -114t114 -48t114 48t48 114t-48.5 114t-113.5 48q-66 0 -114 -48t-48 -114zM147 0h283v1075h-283v-1075z" />
<glyph unicode="j" horiz-adv-x="577" d="M-90 -178l98 -217q123 20 205 54t130 90t67.5 137t19.5 194v995h-283v-1007q0 -63 -10 -104.5t-35.5 -68t-71.5 -43t-120 -30.5zM127 1325q0 -66 48 -114t114 -48t114 48t48 114t-48.5 114t-113.5 48q-66 0 -114 -48t-48 -114z" />
<glyph unicode="k" horiz-adv-x="1128" d="M137 0h283v326l137 170l205 -496h309l-309 733l276 342h-333l-175 -225q-29 -35 -60.5 -80t-53.5 -78q0 20 1 49t2 61t1 62v58v571l-283 -141v-1352z" />
<glyph unicode="l" horiz-adv-x="577" d="M147 0h283v1493l-283 -141v-1352z" />
<glyph unicode="m" horiz-adv-x="1804" d="M137 0h283v588q0 139 43 191t131 52t130 -53t42 -196v-582h283v588q0 139 43 191t131 52t130 -53t42 -196v-582h282v606q0 113 -21.5 204t-67.5 155.5t-118.5 98.5t-175.5 34q-133 0 -209.5 -40t-132.5 -97q-59 74 -126.5 105.5t-170.5 31.5q-86 0 -142 -28t-93 -66v71 h-283v-1075z" />
<glyph unicode="n" horiz-adv-x="1196" d="M137 0h283v588q0 139 48 191t136 52t135 -53t47 -196v-582h283v606q0 227 -96 359.5t-301 132.5q-86 0 -150.5 -28t-101.5 -66v71h-283v-1075z" />
<glyph unicode="o" horiz-adv-x="1136" d="M82 537q0 -123 37 -226.5t101.5 -177.5t153.5 -115t193 -41t194.5 41t155 115t101.5 177.5t37 226.5t-37 226t-101.5 178t-154.5 116t-195 41q-104 0 -193 -41t-153.5 -116t-101.5 -178.5t-37 -225.5zM369 537q0 125 48 206.5t150 81.5t151.5 -82.5t49.5 -205.5 q0 -55 -12.5 -107.5t-37 -92.5t-62.5 -63.5t-89 -23.5q-102 0 -150 81t-48 206z" />
<glyph unicode="p" horiz-adv-x="1150" d="M137 -395l283 141v315q39 -35 97 -59.5t130 -24.5q100 0 178 40t131.5 113t81 173t27.5 221q0 150 -33 258.5t-90 179t-133 103.5t-162 33q-78 0 -132 -28t-95 -62v67h-283v-1470zM420 336v405q31 41 69.5 65.5t104.5 24.5q84 0 134 -73.5t50 -239.5q0 -274 -168 -274 q-123 0 -190 92z" />
<glyph unicode="q" horiz-adv-x="1150" d="M82 551q0 -152 32.5 -259.5t90 -178t133.5 -103.5t162 -33q78 0 132 28t95 63v-463l283 141v1329h-283v-61q-39 35 -97.5 59.5t-129.5 24.5q-100 0 -178 -40t-131.5 -113t-81 -173t-27.5 -221zM369 557q0 274 168 274q123 0 190 -92v-405q-31 -41 -70 -65.5t-104 -24.5 q-84 0 -134 73.5t-50 239.5z" />
<glyph unicode="r" horiz-adv-x="876" d="M137 0h283v582q0 70 13 114.5t37 71.5t57.5 37t74.5 10q47 0 88 -19.5t76 -50.5l74 277q-29 29 -79 52.5t-120 23.5q-76 0 -130 -28t-91 -66v71h-283v-1075z" />
<glyph unicode="s" horiz-adv-x="1099" d="M98 102q86 -57 204 -91t247 -34q90 0 170 17.5t139.5 57.5t94 104.5t34.5 156.5q0 80 -28.5 136.5t-78 95.5t-115 65.5t-136.5 51.5q-72 23 -116 39t-67.5 29t-31.5 26.5t-8 29.5q0 35 29.5 52.5t115.5 17.5q68 0 150.5 -21.5t162.5 -64.5l90 223q-86 47 -190.5 76 t-206.5 29q-94 0 -173 -18.5t-136.5 -57.5t-89 -99.5t-31.5 -144.5q0 -86 29.5 -143t85 -97t134.5 -70t175 -58q90 -27 124 -49.5t34 -59.5q0 -41 -30 -61.5t-114 -20.5q-104 0 -195 25.5t-177 72.5z" />
<glyph unicode="t" horiz-adv-x="905" d="M51 809h180v-508q0 -72 20.5 -131t57.5 -102t90.5 -67t118.5 -24q66 0 125 18.5t94 47.5l41 287q-53 -45 -87 -63.5t-73 -18.5q-51 0 -77.5 25.5t-26.5 103.5v432h258v266h-258v418l-283 -141v-277h-180v-266z" />
<glyph unicode="u" horiz-adv-x="1196" d="M127 469q0 -227 95 -359.5t302 -132.5q86 0 150.5 28t101.5 67v-72h283v1075h-283v-588q0 -139 -48 -191t-136 -52q-43 0 -78 12t-57.5 41t-34.5 77t-12 120v581h-283v-606z" />
<glyph unicode="v" horiz-adv-x="1167" d="M51 1075l387 -1075h291l387 1075h-303l-158 -497q-20 -63 -38.5 -129t-28.5 -107q-10 39 -28.5 106.5t-39.5 129.5l-158 497h-311z" />
<glyph unicode="w" horiz-adv-x="1519" d="M51 1075l309 -1075h236l106 422q8 31 16.5 67.5t16.5 71.5t14.5 65.5t10.5 49.5q2 -18 9 -49t15.5 -66t16.5 -71.5t16 -67.5l107 -422h235l309 1075h-278l-94 -397q-6 -31 -14.5 -65.5t-15.5 -68.5t-13 -63.5t-9 -48.5q-6 41 -23 111.5t-34 134.5l-106 397h-234 l-106 -397q-16 -63 -34 -134t-24 -112q-4 18 -9 48t-12 64t-15.5 68.5t-14.5 65.5l-94 397h-287z" />
<glyph unicode="x" horiz-adv-x="1175" d="M45 0h336l108 178q29 47 56.5 95.5t42.5 78.5q16 -31 42.5 -79t55.5 -95l109 -178h335l-380 582l323 493h-336l-51 -88q-29 -47 -55.5 -95t-42.5 -79q-16 31 -43 79t-56 95l-51 88h-336l324 -493z" />
<glyph unicode="y" horiz-adv-x="1208" d="M51 1075l418 -1075l-143 -379h278l553 1454h-303l-176 -518q-23 -63 -41.5 -129t-28.5 -106q-10 39 -28.5 106.5t-40.5 128.5l-177 518h-311z" />
<glyph unicode="z" horiz-adv-x="1134" d="M123 0h889v256h-336h-45t-49.5 -1t-46 -2t-35.5 -1q23 25 61.5 69t71.5 85l379 464v205h-854v-256h315h45t49.5 1t46 2t35.5 1q-23 -25 -62.5 -69.5t-72.5 -83.5l-391 -465v-205z" />
<glyph unicode="{" horiz-adv-x="942" d="M123 494h45q59 0 91 -34t32 -108v-145q0 -213 130 -322.5t413 -109.5v186q-78 8 -127.5 26.5t-78 51.5t-39.5 79t-11 109v62q0 82 -11.5 137t-36 91t-61.5 56.5t-86 34.5q49 14 86 35t61.5 56.5t36 90t11.5 138.5v63q0 63 11 109.5t39.5 79t78 51t127.5 26.5v187 q-283 0 -413 -109.5t-130 -322.5v-148q0 -74 -32 -107.5t-91 -33.5h-45v-229z" />
<glyph unicode="|" horiz-adv-x="583" d="M164 -379h256v2017h-256v-2017z" />
<glyph unicode="}" horiz-adv-x="942" d="M109 -39v-186q283 0 412.5 109.5t129.5 322.5v147q0 74 32 108t91 34h45v229h-45q-59 0 -91 34t-32 107v146q0 213 -130 322.5t-412 109.5v-187q76 -8 126 -26.5t78.5 -51t40 -78.5t11.5 -110v-61q0 -84 11 -138.5t35.5 -90t61.5 -56t86 -35.5q-49 -14 -86 -34.5 t-61.5 -56.5t-35.5 -91t-11 -137v-64q0 -63 -11.5 -109t-40 -79t-79 -51.5t-125.5 -26.5z" />
<glyph unicode="~" horiz-adv-x="1150" d="M86 651l168 -86q25 45 42 74t31.5 45t30 21.5t37.5 5.5q29 0 65 -20.5t95 -61.5q51 -35 92 -52.5t105 -17.5q115 0 186.5 84t126.5 225l-168 86q-25 -47 -42 -74.5t-31.5 -44t-31 -21.5t-36.5 -5q-29 0 -61.5 18.5t-98.5 63.5q-51 35 -92 52.5t-105 17.5 q-115 0 -186.5 -84t-126.5 -226z" />
<glyph unicode="&#xa1;" horiz-adv-x="696" d="M174 1282q0 -72 51 -123t123 -51t123 51t51 123t-51 123t-123 51t-123 -51t-51 -123zM205 0h287v590l-48 393h-192l-47 -393v-590z" />
<glyph unicode="&#xa2;" horiz-adv-x="1099" d="M82 729q0 -100 25.5 -186t71.5 -156t110.5 -119t140.5 -73v-218h277v205q106 23 182 83.5t137 144.5l-180 157q-55 -66 -112.5 -101.5t-141.5 -35.5q-102 0 -162.5 79t-60.5 220q0 147 60 224t163 77q86 0 142.5 -43t103.5 -110l186 176q-55 84 -132 144t-185 83v154 h-277v-170q-78 -27 -142.5 -76t-110.5 -119t-70.5 -156t-24.5 -184z" />
<glyph unicode="&#xa3;" horiz-adv-x="1372" d="M180 0h1069v246h-712q66 78 96.5 146.5t38.5 160.5h293v231h-314q-8 25 -25.5 57.5t-29.5 55.5q-18 33 -34.5 68.5t-16.5 74.5q0 66 51 103t156 37q96 0 188 -32t166 -97l172 211q-106 96 -240.5 145t-281.5 49q-250 0 -387.5 -97t-137.5 -280q0 -53 18.5 -107t41.5 -95 q10 -18 24.5 -43t26.5 -50h-162v-231h199q-12 -104 -62.5 -189t-136.5 -155v-209z" />
<glyph unicode="&#xa4;" horiz-adv-x="1306" d="M102 717q0 -164 40 -300t116 -233.5t187.5 -152t256.5 -54.5q104 0 185.5 27t145 73t111.5 105.5t87 124.5l-234 139q-31 -49 -60.5 -86.5t-63 -62.5t-74.5 -37t-92 -12q-100 0 -175 52t-116 169h415v188h-446q-2 14 -2 27v31v30t2 29h446v189h-415q39 119 113.5 171 t172.5 52q53 0 93.5 -13.5t71 -40t56 -65.5t50.5 -90l241 117q-39 88 -83 155.5t-103 113.5t-137 69.5t-184 23.5q-135 0 -247 -50t-192 -145.5t-123 -232.5t-43 -311z" />
<glyph unicode="&#xa5;" horiz-adv-x="1400" d="M45 1434l518 -883v-94h-334v-242h334v-215h275v215h333v242h-333v100l518 877h-326l-188 -340q-18 -33 -39 -73t-40.5 -80t-35.5 -73.5t-25 -54.5q-8 20 -23 55t-35.5 75l-41 80t-39.5 71l-188 340h-330z" />
<glyph unicode="&#xa6;" d="M41 717l346 -271q16 -10 31.5 -9t23.5 5q39 25 25 72l-41 94h285v-254l-95 39q-47 14 -71 -22q-4 -8 -5 -24.5t9 -33.5l270 -344l264 344q12 18 11.5 33.5t-4.5 24.5q-23 37 -68 22l-98 -39v254h288l-41 -92q-12 -51 25 -74q8 -4 23.5 -5t33.5 9l344 271l-344 264 q-20 12 -34.5 11t-22.5 -5q-23 -12 -27 -28.5t2 -38.5l41 -99h-288v258l98 -39q45 -14 68 23q4 8 5 23.5t-12 33.5l-264 344l-270 -344q-10 -16 -9 -32.5t5 -24.5q27 -39 71 -23l95 39v-258h-285l41 99q6 23 2 39t-27 28q-8 4 -22 5t-33 -11z" />
<glyph unicode="&#xa7;" horiz-adv-x="1433" d="M113 606q0 -90 27.5 -155.5t80.5 -115.5t131 -88t180 -71q106 -35 173 -58.5t104 -42t50 -37t13 -42.5q0 -41 -30.5 -68.5t-112.5 -27.5q-66 0 -153 23.5t-164 76.5l-142 -197q90 -66 203 -102.5t238 -36.5q104 0 184 25.5t133 70.5t81 105.5t28 132.5q0 111 -41 178 q47 25 88 56.5t71.5 73.5t48 93.5t17.5 114.5q0 90 -27.5 155.5t-81 116t-132.5 87t-179 71.5q-109 35 -175.5 58.5t-103 42t-49 37t-12.5 42.5q0 41 31 69t113 28q66 0 152.5 -23.5t164.5 -77.5l141 197q-90 66 -202.5 102.5t-237.5 36.5q-104 0 -184 -25.5t-133.5 -70.5 t-81 -106.5t-27.5 -131.5q0 -109 39 -178q-94 -49 -158.5 -130t-64.5 -208zM387 627q0 61 33 102t98 70q47 -23 108.5 -46.5t135.5 -47.5q53 -18 104.5 -37t91 -43.5t64.5 -56t25 -74.5q0 -61 -33 -102.5t-99 -69.5q-47 23 -108.5 46t-134.5 48q-53 18 -104.5 36.5t-91.5 43 t-64.5 56.5t-24.5 75z" />
<glyph unicode="&#xa8;" horiz-adv-x="1024" d="M131 1376q0 -63 47 -110t113 -47t113 47t47 110q0 33 -13.5 62.5t-35 51t-50 34t-61.5 12.5t-61.5 -12.5t-50 -34t-35 -51t-13.5 -62.5zM573 1376q0 -31 13.5 -59.5t35 -50t51 -34.5t62.5 -13q63 0 110.5 47t47.5 110q0 33 -13.5 62.5t-35 51t-50 34t-59.5 12.5 q-66 0 -114 -47t-48 -113z" />
<glyph unicode="&#xa9;" horiz-adv-x="1712" d="M117 717q0 -158 56 -293t155.5 -234.5t234.5 -156t293 -56.5t293 56.5t234.5 156t155.5 234.5t56 293t-56 293t-155.5 234t-234.5 155.5t-293 56.5t-293 -56.5t-234.5 -155.5t-155.5 -234.5t-56 -292.5zM248 717q0 129 46 240.5t128 193.5t193.5 128t240.5 46t240.5 -46 t193.5 -128t128 -193.5t46 -240.5t-46 -240.5t-128 -193.5t-193.5 -128t-240.5 -46t-240.5 46t-193.5 128t-128 193.5t-46 240.5zM512 721q0 -96 25.5 -173t71.5 -130t110.5 -83t144.5 -30q109 0 175.5 48t117.5 136l-143 99q-33 -51 -67 -78t-79 -27q-78 0 -120.5 61.5 t-42.5 176.5q0 117 41.5 178.5t119.5 61.5q47 0 79 -24t56 -67l162 91q-39 78 -109.5 128t-185.5 50q-78 0 -143.5 -31t-112.5 -86t-73.5 -132t-26.5 -169z" />
<glyph unicode="&#xaa;" horiz-adv-x="976" d="M100 858q0 -80 28 -137t74 -96t104.5 -57.5t119.5 -18.5t113.5 21.5t87.5 58.5v-64h223v586q0 147 -96.5 226t-255.5 79q-104 0 -178 -22.5t-150 -63.5l86 -160q61 35 112.5 47.5t129.5 12.5q63 0 96 -34t33 -81v-43q-29 14 -71 24.5t-101 10.5q-74 0 -139.5 -18.5 t-112.5 -54.5t-75 -90t-28 -126zM326 858q0 111 137 111q59 0 95 -8.5t69 -26.5v-113q-20 -31 -64.5 -57.5t-99.5 -26.5q-76 0 -106.5 37t-30.5 84z" />
<glyph unicode="&#xab;" horiz-adv-x="1286" d="M61 537l334 -537h293l-323 539l323 536h-293zM578 537l333 -537h293l-323 539l323 536h-293z" />
<glyph unicode="&#xac;" horiz-adv-x="1331" d="M92 575h711l-29 -96q-10 -31 -3 -50t30 -36q10 -8 30.5 -9t42.5 13l416 314l-416 307q-23 16 -43 15t-30 -9q-43 -29 -27 -82l29 -100h-711v-267z" />
<glyph unicode="&#xad;" horiz-adv-x="833" d="M123 602h588v283h-588v-283z" />
<glyph unicode="&#xae;" horiz-adv-x="1712" d="M117 717q0 -158 56 -293t155.5 -234.5t234.5 -156t293 -56.5t293 56.5t234.5 156t155.5 234.5t56 293t-56 293t-155.5 234t-234.5 155.5t-293 56.5t-293 -56.5t-234.5 -155.5t-155.5 -234.5t-56 -292.5zM248 717q0 129 46 240.5t128 193.5t193.5 128t240.5 46t240.5 -46 t193.5 -128t128 -193.5t46 -240.5t-46 -240.5t-128 -193.5t-193.5 -128t-240.5 -46t-240.5 46t-193.5 128t-128 193.5t-46 240.5zM557 328h170v295h139l146 -295h192l-155 317q66 25 112.5 78.5t46.5 157.5q0 129 -79.5 191.5t-196.5 62.5h-375v-807zM727 772v207h193 q53 0 83.5 -24.5t30.5 -77.5q0 -104 -114 -105h-193z" />
<glyph unicode="&#xaf;" horiz-adv-x="1024" d="M215 1249h594v215h-594v-215z" />
<glyph unicode="&#xb0;" horiz-adv-x="995" d="M92 1053q0 -86 32 -161t86 -130t128 -86t160 -31t159.5 31t129 86t86 130t30.5 161q0 84 -30.5 157.5t-86 128t-129 86t-159.5 31.5t-160 -31.5t-128 -86t-86 -128t-32 -157.5zM307 1053q0 39 14.5 73.5t41 60t60.5 41t75 15.5t75.5 -15.5t60 -41t40 -60t14.5 -73.5 q0 -84 -54 -139.5t-136 -55.5q-80 0 -135.5 55.5t-55.5 139.5z" />
<glyph unicode="&#xb1;" d="M41 717l346 -271q16 -10 31.5 -9t23.5 5q39 25 25 72l-41 94h285v-254l-95 39q-47 14 -71 -22q-4 -8 -5 -24.5t9 -33.5l270 -344l264 344q12 18 11.5 33.5t-4.5 24.5q-23 37 -68 22l-98 -39v254h288l-41 -92q-12 -51 25 -74q8 -4 23.5 -5t33.5 9l344 271l-344 264 q-20 12 -34.5 11t-22.5 -5q-23 -12 -27 -28.5t2 -38.5l41 -99h-288v258l98 -39q45 -14 68 23q4 8 5 23.5t-12 33.5l-264 344l-270 -344q-10 -16 -9 -32.5t5 -24.5q27 -39 71 -23l95 39v-258h-285l41 99q6 23 2 39t-27 28q-8 4 -22 5t-33 -11z" />
<glyph unicode="&#xb2;" d="M41 717l346 -271q16 -10 31.5 -9t23.5 5q39 25 25 72l-41 94h285v-254l-95 39q-47 14 -71 -22q-4 -8 -5 -24.5t9 -33.5l270 -344l264 344q12 18 11.5 33.5t-4.5 24.5q-23 37 -68 22l-98 -39v254h288l-41 -92q-12 -51 25 -74q8 -4 23.5 -5t33.5 9l344 271l-344 264 q-20 12 -34.5 11t-22.5 -5q-23 -12 -27 -28.5t2 -38.5l41 -99h-288v258l98 -39q45 -14 68 23q4 8 5 23.5t-12 33.5l-264 344l-270 -344q-10 -16 -9 -32.5t5 -24.5q27 -39 71 -23l95 39v-258h-285l41 99q6 23 2 39t-27 28q-8 4 -22 5t-33 -11z" />
<glyph unicode="&#xb3;" d="M41 717l346 -271q16 -10 31.5 -9t23.5 5q39 25 25 72l-41 94h285v-254l-95 39q-47 14 -71 -22q-4 -8 -5 -24.5t9 -33.5l270 -344l264 344q12 18 11.5 33.5t-4.5 24.5q-23 37 -68 22l-98 -39v254h288l-41 -92q-12 -51 25 -74q8 -4 23.5 -5t33.5 9l344 271l-344 264 q-20 12 -34.5 11t-22.5 -5q-23 -12 -27 -28.5t2 -38.5l41 -99h-288v258l98 -39q45 -14 68 23q4 8 5 23.5t-12 33.5l-264 344l-270 -344q-10 -16 -9 -32.5t5 -24.5q27 -39 71 -23l95 39v-258h-285l41 99q6 23 2 39t-27 28q-8 4 -22 5t-33 -11z" />
<glyph unicode="&#xb4;" horiz-adv-x="1024" d="M283 1219h239l297 327h-358z" />
<glyph unicode="&#xb6;" horiz-adv-x="1482" d="M96 985q0 -109 37 -192.5t100.5 -141t148.5 -87t179 -29.5h141v-914h234v1596h131v-1596h233v1813h-739q-94 0 -178 -30t-147.5 -87t-101.5 -141t-38 -191z" />
<glyph unicode="&#xb7;" horiz-adv-x="557" d="M86 752q0 -39 15.5 -74t42 -61.5t61.5 -42t74 -15.5t73.5 15.5t61 42t42 61.5t15.5 74t-15.5 73.5t-42 61t-61.5 42t-73 15.5q-39 0 -74 -15.5t-61.5 -42t-42 -61t-15.5 -73.5z" />
<glyph unicode="&#xb8;" horiz-adv-x="1024" d="M260 -322q49 -31 116.5 -52t151.5 -21q111 0 177.5 43t66.5 135q0 76 -47 110.5t-113 34.5q-29 0 -48 -4t-32 -10l35 162h-114l-56 -232l74 -28q16 8 28.5 11t32.5 3q25 0 44.5 -11.5t19.5 -41.5q0 -70 -111 -70q-41 0 -88 12.5t-94 36.5z" />
<glyph unicode="&#xb9;" d="M41 717l346 -271q16 -10 31.5 -9t23.5 5q39 25 25 72l-41 94h285v-254l-95 39q-47 14 -71 -22q-4 -8 -5 -24.5t9 -33.5l270 -344l264 344q12 18 11.5 33.5t-4.5 24.5q-23 37 -68 22l-98 -39v254h288l-41 -92q-12 -51 25 -74q8 -4 23.5 -5t33.5 9l344 271l-344 264 q-20 12 -34.5 11t-22.5 -5q-23 -12 -27 -28.5t2 -38.5l41 -99h-288v258l98 -39q45 -14 68 23q4 8 5 23.5t-12 33.5l-264 344l-270 -344q-10 -16 -9 -32.5t5 -24.5q27 -39 71 -23l95 39v-258h-285l41 99q6 23 2 39t-27 28q-8 4 -22 5t-33 -11z" />
<glyph unicode="&#xba;" horiz-adv-x="1005" d="M109 1001q0 -100 29.5 -183t81.5 -143.5t124 -93t158 -32.5t157.5 32.5t125 93t83 143.5t29.5 183t-29.5 183.5t-83 144t-125 94t-157.5 33.5t-158 -33.5t-124 -94t-81.5 -143.5t-29.5 -184zM340 1001q0 102 40 168t122 66t122 -67t40 -167q0 -45 -10.5 -87t-30 -73.5 t-50 -51t-71.5 -19.5q-82 0 -122 64.5t-40 166.5z" />
<glyph unicode="&#xbb;" horiz-adv-x="1286" d="M82 0h293l334 539l-334 536h-293l324 -538zM598 0h293l334 539l-334 536h-293l324 -538z" />
<glyph unicode="&#xbc;" d="M41 717l346 -271q16 -10 31.5 -9t23.5 5q39 25 25 72l-41 94h285v-254l-95 39q-47 14 -71 -22q-4 -8 -5 -24.5t9 -33.5l270 -344l264 344q12 18 11.5 33.5t-4.5 24.5q-23 37 -68 22l-98 -39v254h288l-41 -92q-12 -51 25 -74q8 -4 23.5 -5t33.5 9l344 271l-344 264 q-20 12 -34.5 11t-22.5 -5q-23 -12 -27 -28.5t2 -38.5l41 -99h-288v258l98 -39q45 -14 68 23q4 8 5 23.5t-12 33.5l-264 344l-270 -344q-10 -16 -9 -32.5t5 -24.5q27 -39 71 -23l95 39v-258h-285l41 99q6 23 2 39t-27 28q-8 4 -22 5t-33 -11z" />
<glyph unicode="&#xbd;" d="M41 717l346 -271q16 -10 31.5 -9t23.5 5q39 25 25 72l-41 94h285v-254l-95 39q-47 14 -71 -22q-4 -8 -5 -24.5t9 -33.5l270 -344l264 344q12 18 11.5 33.5t-4.5 24.5q-23 37 -68 22l-98 -39v254h288l-41 -92q-12 -51 25 -74q8 -4 23.5 -5t33.5 9l344 271l-344 264 q-20 12 -34.5 11t-22.5 -5q-23 -12 -27 -28.5t2 -38.5l41 -99h-288v258l98 -39q45 -14 68 23q4 8 5 23.5t-12 33.5l-264 344l-270 -344q-10 -16 -9 -32.5t5 -24.5q27 -39 71 -23l95 39v-258h-285l41 99q6 23 2 39t-27 28q-8 4 -22 5t-33 -11z" />
<glyph unicode="&#xbe;" d="M41 717l346 -271q16 -10 31.5 -9t23.5 5q39 25 25 72l-41 94h285v-254l-95 39q-47 14 -71 -22q-4 -8 -5 -24.5t9 -33.5l270 -344l264 344q12 18 11.5 33.5t-4.5 24.5q-23 37 -68 22l-98 -39v254h288l-41 -92q-12 -51 25 -74q8 -4 23.5 -5t33.5 9l344 271l-344 264 q-20 12 -34.5 11t-22.5 -5q-23 -12 -27 -28.5t2 -38.5l41 -99h-288v258l98 -39q45 -14 68 23q4 8 5 23.5t-12 33.5l-264 344l-270 -344q-10 -16 -9 -32.5t5 -24.5q27 -39 71 -23l95 39v-258h-285l41 99q6 23 2 39t-27 28q-8 4 -22 5t-33 -11z" />
<glyph unicode="&#xbf;" horiz-adv-x="1196" d="M78 395q0 -106 39 -185t108.5 -130t168 -77t214.5 -26q180 0 314.5 70t228.5 168l-184 215q-70 -74 -156 -123t-203 -49q-131 0 -187 39t-56 111q0 55 27.5 86.5t105.5 66.5q86 39 142 83t89 95.5t45 110.5t12 133h-280q-2 -45 -13.5 -79t-36 -61.5t-66.5 -53t-105 -56.5 q-37 -18 -74 -46t-66.5 -68.5t-48 -96t-18.5 -127.5zM471 1282q0 -72 51 -123t123 -51t123 51t51 123t-51 123t-123 51t-123 -51t-51 -123z" />
<glyph unicode="&#xc0;" horiz-adv-x="1536" d="M82 0h307l113 319h524l113 -319h315l-545 1434h-278zM379 1853l297 -327h239l-178 327h-358zM600 592l92 260q23 63 42.5 122.5t29.5 100.5q10 -41 29.5 -100.5t42.5 -122.5l92 -260h-328z" />
<glyph unicode="&#xc1;" horiz-adv-x="1536" d="M82 0h307l113 319h524l113 -319h315l-545 1434h-278zM600 592l92 260q23 63 42.5 122.5t29.5 100.5q10 -41 29.5 -100.5t42.5 -122.5l92 -260h-328zM600 1526h240l297 327h-359z" />
<glyph unicode="&#xc2;" horiz-adv-x="1536" d="M82 0h307l113 319h524l113 -319h315l-545 1434h-278zM373 1526h186l205 153l205 -153h190l-250 327h-286zM600 592l92 260q23 63 42.5 122.5t29.5 100.5q10 -41 29.5 -100.5t42.5 -122.5l92 -260h-328z" />
<glyph unicode="&#xc3;" horiz-adv-x="1536" d="M82 0h307l113 319h524l113 -319h315l-545 1434h-278zM371 1526h184q10 53 25.5 75.5t44.5 22.5q20 0 39.5 -7t66.5 -34q31 -18 54.5 -29.5t47 -19.5t48 -11t57.5 -3q104 0 170 79t66 216h-185q-10 -53 -25.5 -76t-43.5 -23q-20 0 -40 7.5t-67 33.5q-31 18 -55.5 29.5 t-47 20t-47 11.5t-57.5 3q-104 0 -169.5 -79t-65.5 -216zM600 592l92 260q23 63 42.5 122.5t29.5 100.5q10 -41 29.5 -100.5t42.5 -122.5l92 -260h-328z" />
<glyph unicode="&#xc4;" horiz-adv-x="1536" d="M82 0h307l113 319h524l113 -319h315l-545 1434h-278zM385 1683q0 -63 47 -110t113 -47t113 47t47 110q0 33 -13.5 63t-35 51.5t-50 33.5t-61.5 12t-61.5 -12t-50 -33.5t-35 -51.5t-13.5 -63zM600 592l92 260q23 63 42.5 122.5t29.5 100.5q10 -41 29.5 -100.5t42.5 -122.5 l92 -260h-328zM827 1683q0 -31 13.5 -59.5t35 -50t51 -34.5t62.5 -13q63 0 110.5 47t47.5 110q0 33 -13.5 63t-35 51.5t-50 33.5t-59.5 12q-66 0 -114 -47t-48 -113z" />
<glyph unicode="&#xc5;" horiz-adv-x="1536" d="M82 0h307l113 319h524l113 -319h315l-502 1317q45 37 70 90t25 119q0 59 -21.5 109.5t-58.5 87t-87.5 58t-109.5 21.5t-109.5 -21.5t-87 -58t-58 -87t-21.5 -109.5q0 -66 24.5 -119t67.5 -90zM600 592l92 260q23 63 42.5 122.5t29.5 100.5q10 -41 29.5 -100.5 t42.5 -122.5l92 -260h-328zM649 1526q0 53 35 88t86 35t86 -35t35 -88t-35 -88t-86 -35t-86 35t-35 88z" />
<glyph unicode="&#xc6;" horiz-adv-x="2125" d="M29 0h327l166 256h510v-256h973v274h-698v357h370v270h-370v258h667v275h-983zM686 508l186 287q20 31 44 67.5t46.5 74.5t42 72.5t31.5 59.5q0 -23 -1 -59.5t-1 -79.5t-1 -86t-1 -74v-262h-346z" />
<glyph unicode="&#xc7;" horiz-adv-x="1372" d="M109 717q0 -154 37.5 -282t106.5 -222t166 -152.5t216 -76.5l-33 -140l74 -28q16 8 28.5 11t32.5 3q25 0 44.5 -11.5t19.5 -41.5q0 -70 -111 -70q-41 0 -88 12.5t-94 36.5l-43 -78q49 -31 116.5 -52t151.5 -21q111 0 177.5 43t66.5 135q0 76 -47 110.5t-113 34.5 q-29 0 -48 -4t-32 -10l15 63q188 4 315 89.5t199 234.5l-242 143q-57 -96 -119.5 -139t-161.5 -43q-80 0 -143 35t-107 96.5t-67 144.5t-23 179q0 100 23 183t66 143.5t106.5 94t142.5 33.5q98 0 161 -40.5t102 -114.5l266 123q-35 70 -83 128t-112.5 100t-146.5 65.5 t-183 23.5q-141 0 -257.5 -54t-200.5 -151.5t-131 -233.5t-47 -300z" />
<glyph unicode="&#xc8;" horiz-adv-x="1331" d="M184 0h1026v281h-739v346h412v278h-412v248h709v281h-996v-1434zM301 1853l297 -327h240l-179 327h-358z" />
<glyph unicode="&#xc9;" horiz-adv-x="1331" d="M184 0h1026v281h-739v346h412v278h-412v248h709v281h-996v-1434zM522 1526h240l297 327h-359z" />
<glyph unicode="&#xca;" horiz-adv-x="1331" d="M184 0h1026v281h-739v346h412v278h-412v248h709v281h-996v-1434zM295 1526h186l205 153l205 -153h190l-250 327h-286z" />
<glyph unicode="&#xcb;" horiz-adv-x="1331" d="M184 0h1026v281h-739v346h412v278h-412v248h709v281h-996v-1434zM307 1683q0 -63 47 -110t113 -47t113 47t47 110q0 33 -13.5 63t-35 51.5t-50 33.5t-61.5 12t-61.5 -12t-50 -33.5t-35 -51.5t-13.5 -63zM750 1683q0 -31 13 -59.5t34.5 -50t51.5 -34.5t62 -13 q63 0 110.5 47t47.5 110q0 33 -13.5 63t-35 51.5t-50 33.5t-59.5 12q-66 0 -113.5 -47t-47.5 -113z" />
<glyph unicode="&#xcc;" horiz-adv-x="696" d="M-59 1853l297 -327h239l-178 327h-358zM205 0h287v1434h-287v-1434z" />
<glyph unicode="&#xcd;" horiz-adv-x="696" d="M203 1526h239l297 327h-358zM205 0h287v1434h-287v-1434z" />
<glyph unicode="&#xce;" horiz-adv-x="696" d="M-45 1505h186l205 154l205 -154h190l-249 328h-287zM205 0h287v1434h-287v-1434z" />
<glyph unicode="&#xcf;" horiz-adv-x="696" d="M-33 1673q0 -63 47 -110t113 -47t113 47t47 110q0 33 -13.5 62.5t-35 51t-50 34t-61.5 12.5t-61.5 -12.5t-50 -34t-35 -51t-13.5 -62.5zM205 0h287v1434h-287v-1434zM410 1673q0 -31 13 -59.5t34.5 -50t51.5 -34.5t62 -13q63 0 110.5 47t47.5 110q0 33 -13.5 62.5t-35 51 t-50 34t-59.5 12.5q-66 0 -113.5 -47t-47.5 -113z" />
<glyph unicode="&#xd0;" horiz-adv-x="1478" d="M82 631h133v-631h428q137 0 269 41t235.5 128t166 223.5t62.5 324.5q0 197 -54 333t-149.5 222t-225.5 124t-283 38h-449v-568h-133v-235zM494 279v352h192v235h-192v289h159q227 0 327.5 -109.5t100.5 -328.5q0 -98 -26.5 -179t-79.5 -138.5t-136 -89t-196 -31.5h-149z " />
<glyph unicode="&#xd1;" horiz-adv-x="1529" d="M184 0h283v631q0 31 -1 76t-1 90q0 47 -1 87t-1 60q14 -29 44 -75t56 -87l527 -782h256v1434h-283v-607q0 -31 1 -75.5t1 -92.5q0 -45 1 -84.5t1 -60.5q-14 29 -44 75t-56 87l-508 758h-275v-1434zM371 1526h184q10 53 25.5 75.5t44.5 22.5q20 0 39.5 -7t66.5 -34 q31 -18 54.5 -29.5t47 -19.5t48 -11t57.5 -3q104 0 170 79t66 216h-185q-10 -53 -25.5 -76t-43.5 -23q-20 0 -40 7.5t-67 33.5q-31 18 -55.5 29.5t-47 20t-47 11.5t-57.5 3q-104 0 -169.5 -79t-65.5 -216z" />
<glyph unicode="&#xd2;" horiz-adv-x="1472" d="M104 715q0 -174 46.5 -310.5t129 -231.5t198.5 -145.5t257 -50.5q139 0 256 51.5t201 146.5t130 232.5t46 311.5t-46 310t-129 231.5t-198.5 145.5t-255.5 50q-141 0 -257.5 -51t-200.5 -146.5t-130.5 -232.5t-46.5 -311zM340 1853l297 -327h240l-179 327h-358zM399 719 q0 219 91.5 335.5t242.5 116.5q152 0 246 -118.5t94 -337.5t-91 -336t-243 -117t-246 119t-94 338z" />
<glyph unicode="&#xd3;" horiz-adv-x="1472" d="M104 715q0 -174 46.5 -310.5t129 -231.5t198.5 -145.5t257 -50.5q139 0 256 51.5t201 146.5t130 232.5t46 311.5t-46 310t-129 231.5t-198.5 145.5t-255.5 50q-141 0 -257.5 -51t-200.5 -146.5t-130.5 -232.5t-46.5 -311zM399 719q0 219 91.5 335.5t242.5 116.5 q152 0 246 -118.5t94 -337.5t-91 -336t-243 -117t-246 119t-94 338zM561 1526h240l297 327h-359z" />
<glyph unicode="&#xd4;" horiz-adv-x="1472" d="M104 715q0 -174 46.5 -310.5t129 -231.5t198.5 -145.5t257 -50.5q139 0 256 51.5t201 146.5t130 232.5t46 311.5t-46 310t-129 231.5t-198.5 145.5t-255.5 50q-141 0 -257.5 -51t-200.5 -146.5t-130.5 -232.5t-46.5 -311zM334 1516h186l205 153l205 -153h190l-250 327 h-286zM399 719q0 219 91.5 335.5t242.5 116.5q152 0 246 -118.5t94 -337.5t-91 -336t-243 -117t-246 119t-94 338z" />
<glyph unicode="&#xd5;" horiz-adv-x="1472" d="M104 715q0 -174 46.5 -310.5t129 -231.5t198.5 -145.5t257 -50.5q139 0 256 51.5t201 146.5t130 232.5t46 311.5t-46 310t-129 231.5t-198.5 145.5t-255.5 50q-141 0 -257.5 -51t-200.5 -146.5t-130.5 -232.5t-46.5 -311zM332 1526h184q10 53 25.5 75.5t44.5 22.5 q20 0 39.5 -7t66.5 -34q31 -18 54.5 -29.5t47 -19.5t48 -11t57.5 -3q104 0 170 79t66 216h-185q-10 -53 -25.5 -76t-43.5 -23q-20 0 -40 7.5t-67 33.5q-31 18 -55.5 29.5t-47 20t-47 11.5t-57.5 3q-104 0 -169.5 -79t-65.5 -216zM399 719q0 219 91.5 335.5t242.5 116.5 q152 0 246 -118.5t94 -337.5t-91 -336t-243 -117t-246 119t-94 338z" />
<glyph unicode="&#xd6;" horiz-adv-x="1472" d="M104 715q0 -174 46.5 -310.5t129 -231.5t198.5 -145.5t257 -50.5q139 0 256 51.5t201 146.5t130 232.5t46 311.5t-46 310t-129 231.5t-198.5 145.5t-255.5 50q-141 0 -257.5 -51t-200.5 -146.5t-130.5 -232.5t-46.5 -311zM346 1683q0 -63 47 -110t113 -47t113 47t47 110 q0 33 -13.5 63t-35 51.5t-50 33.5t-61.5 12t-61.5 -12t-50 -33.5t-35 -51.5t-13.5 -63zM399 719q0 219 91.5 335.5t242.5 116.5q152 0 246 -118.5t94 -337.5t-91 -336t-243 -117t-246 119t-94 338zM788 1683q0 -31 13.5 -59.5t35 -50t51.5 -34.5t62 -13q63 0 110.5 47 t47.5 110q0 33 -13.5 63t-35 51.5t-50 33.5t-59.5 12q-66 0 -114 -47t-48 -113z" />
<glyph unicode="&#xd7;" d="M41 717l346 -271q16 -10 31.5 -9t23.5 5q39 25 25 72l-41 94h285v-254l-95 39q-47 14 -71 -22q-4 -8 -5 -24.5t9 -33.5l270 -344l264 344q12 18 11.5 33.5t-4.5 24.5q-23 37 -68 22l-98 -39v254h288l-41 -92q-12 -51 25 -74q8 -4 23.5 -5t33.5 9l344 271l-344 264 q-20 12 -34.5 11t-22.5 -5q-23 -12 -27 -28.5t2 -38.5l41 -99h-288v258l98 -39q45 -14 68 23q4 8 5 23.5t-12 33.5l-264 344l-270 -344q-10 -16 -9 -32.5t5 -24.5q27 -39 71 -23l95 39v-258h-285l41 99q6 23 2 39t-27 28q-8 4 -22 5t-33 -11z" />
<glyph unicode="&#xd8;" horiz-adv-x="1472" d="M109 717q0 -180 55 -323.5t153 -241.5l-124 -254h270l57 118q49 -18 102.5 -28.5t108.5 -10.5q147 0 263 54.5t196 152t122 233.5t42 300q0 180 -57.5 325.5t-155.5 243.5l121 250h-271l-57 -117q-96 37 -203 37q-147 0 -263 -54t-195.5 -151.5t-121.5 -233.5t-42 -300z M393 717q0 98 19.5 184t60.5 149.5t104.5 99.5t153.5 36q23 0 43.5 -3t40.5 -7l-366 -750q-29 59 -42.5 133t-13.5 158zM639 260l369 758q33 -61 47 -138t14 -163q0 -98 -19.5 -184.5t-60.5 -150t-105.5 -99t-152.5 -35.5q-49 0 -92 12z" />
<glyph unicode="&#xd9;" horiz-adv-x="1509" d="M174 629q0 -158 42 -279t118 -204t183.5 -126t236.5 -43q274 0 427.5 171.5t153.5 484.5v801h-286v-805q0 -174 -79 -272.5t-216 -98.5t-215 100.5t-78 274.5v801h-287v-805zM371 1823l297 -328h239l-178 328h-358z" />
<glyph unicode="&#xda;" horiz-adv-x="1509" d="M174 629q0 -158 42 -279t118 -204t183.5 -126t236.5 -43q274 0 427.5 171.5t153.5 484.5v801h-286v-805q0 -174 -79 -272.5t-216 -98.5t-215 100.5t-78 274.5v801h-287v-805zM592 1495h239l297 328h-358z" />
<glyph unicode="&#xdb;" horiz-adv-x="1509" d="M174 629q0 -158 42 -279t118 -204t183.5 -126t236.5 -43q274 0 427.5 171.5t153.5 484.5v801h-286v-805q0 -174 -79 -272.5t-216 -98.5t-215 100.5t-78 274.5v801h-287v-805zM365 1526h186l205 153l205 -153h190l-250 327h-287z" />
<glyph unicode="&#xdc;" horiz-adv-x="1509" d="M174 629q0 -158 42 -279t118 -204t183.5 -126t236.5 -43q274 0 427.5 171.5t153.5 484.5v801h-286v-805q0 -174 -79 -272.5t-216 -98.5t-215 100.5t-78 274.5v801h-287v-805zM375 1683q0 -63 47 -110t113 -47t112.5 47t46.5 110q0 33 -13 63t-34.5 51.5t-50.5 33.5 t-61 12q-33 0 -62 -12t-50.5 -33.5t-34.5 -51.5t-13 -63zM817 1683q0 -31 13.5 -59.5t35 -50t51 -34.5t62.5 -13q63 0 110.5 47t47.5 110q0 33 -13.5 63t-35 51.5t-50 33.5t-59.5 12q-66 0 -114 -47t-48 -113z" />
<glyph unicode="&#xdd;" horiz-adv-x="1462" d="M45 1434l543 -873v-561h286v567l543 867h-325l-203 -340q-20 -35 -43 -75t-44.5 -79t-40 -72.5t-28.5 -54.5q-10 20 -28.5 54t-40 74t-45 80t-41.5 73l-203 340h-330zM567 1505h240l297 328h-359z" />
<glyph unicode="&#xde;" horiz-adv-x="1392" d="M184 0h287v287h315q111 0 206 26.5t165 84t109 146.5t39 214q0 115 -39 199.5t-106.5 142t-158 85t-190.5 27.5h-340v222h-287v-1434zM471 565v369h330q96 0 152.5 -44t56.5 -138q0 -186 -205 -187h-334z" />
<glyph unicode="&#xdf;" horiz-adv-x="1200" d="M137 -395l283 141v1307q0 80 28.5 124t118.5 44q80 0 117 -40t37 -104q0 -70 -36 -109.5t-99 -39.5h-11v-246h13q244 0 243 -229q0 -104 -57 -150.5t-162 -46.5h-37v-256h46q254 0 375.5 115t121.5 338q0 88 -25.5 152.5t-67.5 109.5t-96.5 70.5t-111.5 37.5 q90 31 140.5 101.5t50.5 183.5q0 92 -34 162.5t-93.5 119t-139 73t-170.5 24.5q-98 0 -178 -22.5t-136 -73t-88 -130t-32 -194.5v-1462z" />
<glyph unicode="&#xe0;" horiz-adv-x="1138" d="M86 360q0 -98 35 -169.5t91 -118.5t128 -71t147 -24q76 0 139.5 27t102.5 68v-72h283v721q0 90 -32 160.5t-89 119t-137 73t-179 24.5q-66 0 -119 -7.5t-101 -20.5t-92 -33.5t-91 -47.5l109 -196q37 20 69.5 33.5t66.5 21.5t71.5 12t86.5 4q78 0 116 -40t38 -97v-53 q-35 16 -84 29.5t-123 13.5q-92 0 -171 -22.5t-138 -66.5t-93 -111.5t-34 -156.5zM182 1546l297 -327h240l-178 327h-359zM369 360q0 66 42 101t121 35q76 0 118 -11.5t79 -33.5v-136q-23 -39 -75 -68.5t-122 -29.5q-90 0 -126.5 43t-36.5 100z" />
<glyph unicode="&#xe1;" horiz-adv-x="1138" d="M86 360q0 -98 35 -169.5t91 -118.5t128 -71t147 -24q76 0 139.5 27t102.5 68v-72h283v721q0 90 -32 160.5t-89 119t-137 73t-179 24.5q-66 0 -119 -7.5t-101 -20.5t-92 -33.5t-91 -47.5l109 -196q37 20 69.5 33.5t66.5 21.5t71.5 12t86.5 4q78 0 116 -40t38 -97v-53 q-35 16 -84 29.5t-123 13.5q-92 0 -171 -22.5t-138 -66.5t-93 -111.5t-34 -156.5zM369 360q0 66 42 101t121 35q76 0 118 -11.5t79 -33.5v-136q-23 -39 -75 -68.5t-122 -29.5q-90 0 -126.5 43t-36.5 100zM403 1219h240l297 327h-358z" />
<glyph unicode="&#xe2;" horiz-adv-x="1138" d="M86 360q0 -98 35 -169.5t91 -118.5t128 -71t147 -24q76 0 139.5 27t102.5 68v-72h283v721q0 90 -32 160.5t-89 119t-137 73t-179 24.5q-66 0 -119 -7.5t-101 -20.5t-92 -33.5t-91 -47.5l109 -196q37 20 69.5 33.5t66.5 21.5t71.5 12t86.5 4q78 0 116 -40t38 -97v-53 q-35 16 -84 29.5t-123 13.5q-92 0 -171 -22.5t-138 -66.5t-93 -111.5t-34 -156.5zM176 1208h186l205 154l205 -154h191l-250 328h-287zM369 360q0 66 42 101t121 35q76 0 118 -11.5t79 -33.5v-136q-23 -39 -75 -68.5t-122 -29.5q-90 0 -126.5 43t-36.5 100z" />
<glyph unicode="&#xe3;" horiz-adv-x="1138" d="M86 360q0 -98 35 -169.5t91 -118.5t128 -71t147 -24q76 0 139.5 27t102.5 68v-72h283v721q0 90 -32 160.5t-89 119t-137 73t-179 24.5q-66 0 -119 -7.5t-101 -20.5t-92 -33.5t-91 -47.5l109 -196q37 20 69.5 33.5t66.5 21.5t71.5 12t86.5 4q78 0 116 -40t38 -97v-53 q-35 16 -84 29.5t-123 13.5q-92 0 -171 -22.5t-138 -66.5t-93 -111.5t-34 -156.5zM174 1219h184q10 53 25.5 75.5t44.5 22.5q20 0 39.5 -7t67.5 -34q31 -18 54 -29.5t46.5 -19.5t48.5 -11.5t57 -3.5q104 0 170 79t66 216h-184q-10 -53 -25.5 -75.5t-44.5 -22.5 q-20 0 -39.5 7t-67.5 34q-31 18 -55 29.5t-46.5 19.5t-47.5 11t-57 3q-104 0 -170 -78.5t-66 -215.5zM369 360q0 66 42 101t121 35q76 0 118 -11.5t79 -33.5v-136q-23 -39 -75 -68.5t-122 -29.5q-90 0 -126.5 43t-36.5 100z" />
<glyph unicode="&#xe4;" horiz-adv-x="1138" d="M86 360q0 -98 35 -169.5t91 -118.5t128 -71t147 -24q76 0 139.5 27t102.5 68v-72h283v721q0 90 -32 160.5t-89 119t-137 73t-179 24.5q-66 0 -119 -7.5t-101 -20.5t-92 -33.5t-91 -47.5l109 -196q37 20 69.5 33.5t66.5 21.5t71.5 12t86.5 4q78 0 116 -40t38 -97v-53 q-35 16 -84 29.5t-123 13.5q-92 0 -171 -22.5t-138 -66.5t-93 -111.5t-34 -156.5zM188 1366q0 -63 47.5 -110.5t112.5 -47.5q66 0 113 47.5t47 110.5q0 33 -13.5 62.5t-35 51t-50 34t-61.5 12.5t-61.5 -12.5t-50 -34t-35 -51t-13.5 -62.5zM369 360q0 66 42 101t121 35 q76 0 118 -11.5t79 -33.5v-136q-23 -39 -75 -68.5t-122 -29.5q-90 0 -126.5 43t-36.5 100zM631 1366q0 -31 13 -59.5t34.5 -50t51.5 -35t63 -13.5q63 0 110 47.5t47 110.5q0 33 -13 62.5t-34.5 51t-50.5 34t-59 12.5q-66 0 -114 -47t-48 -113z" />
<glyph unicode="&#xe5;" horiz-adv-x="1138" d="M86 360q0 -98 35 -169.5t91 -118.5t128 -71t147 -24q76 0 139.5 27t102.5 68v-72h283v721q0 90 -32 160.5t-89 119t-137 73t-179 24.5q-66 0 -119 -7.5t-101 -20.5t-92 -33.5t-91 -47.5l109 -196q37 20 69.5 33.5t66.5 21.5t71.5 12t86.5 4q78 0 116 -40t38 -97v-53 q-35 16 -84 29.5t-123 13.5q-92 0 -171 -22.5t-138 -66.5t-93 -111.5t-34 -156.5zM293 1491q0 -59 21.5 -109.5t58.5 -86t87 -56t109 -20.5t109.5 20.5t87.5 56t58.5 86t21.5 109.5t-21.5 109.5t-58.5 87t-87 58t-110 21.5q-59 0 -109 -21.5t-87 -58t-58.5 -87t-21.5 -109.5 zM369 360q0 66 42 101t121 35q76 0 118 -11.5t79 -33.5v-136q-23 -39 -75 -68.5t-122 -29.5q-90 0 -126.5 43t-36.5 100zM449 1491q0 53 34.5 88t85.5 35t86 -35t35 -88t-34.5 -88t-86.5 -35q-51 0 -85.5 35t-34.5 88z" />
<glyph unicode="&#xe6;" horiz-adv-x="1726" d="M86 360q0 -98 35 -169.5t91 -118.5t128 -71t147 -24q104 0 187.5 39t161.5 125q61 -74 155 -119t221 -45q109 0 214.5 45.5t170.5 129.5l-200 167q-31 -35 -78 -55t-107 -20q-39 0 -76.5 11t-68.5 34.5t-51.5 62.5t-24.5 94h643q2 16 3 38t1 53q0 115 -30.5 217t-88 179 t-142.5 121t-191 44q-92 0 -163 -34t-124 -91q-55 61 -131 93t-193 32q-66 0 -119 -7.5t-101 -20.5t-92 -33.5t-91 -47.5l109 -196q37 20 69.5 33.5t66.5 21.5t71.5 12t86.5 4q78 0 116 -40t38 -97v-53q-35 16 -84 29.5t-123 13.5q-92 0 -171 -22.5t-138 -66.5t-93 -111.5 t-34 -156.5zM369 360q0 66 42 101t121 35q76 0 118 -11.5t79 -33.5v-136q-23 -39 -75 -68.5t-122 -29.5q-90 0 -126.5 43t-36.5 100zM995 659q8 82 53.5 137.5t122.5 55.5q47 0 82 -16.5t58.5 -44t36 -61.5t16.5 -71h-369z" />
<glyph unicode="&#xe7;" horiz-adv-x="1099" d="M82 537q0 -111 31.5 -206t88 -167t134.5 -119t168 -61l-33 -140l74 -28q16 8 28.5 11t32.5 3q25 0 44.5 -11.5t19.5 -41.5q0 -70 -111 -70q-41 0 -88 12.5t-94 36.5l-43 -78q49 -31 116.5 -52t151.5 -21q111 0 177.5 43t66.5 135q0 76 -47 110.5t-113 34.5 q-29 0 -48.5 -4t-31.5 -10l15 63q143 8 237 75t168 165l-180 170q-55 -66 -112.5 -101.5t-141.5 -35.5q-102 0 -162.5 79t-60.5 208q0 133 60 210.5t163 77.5q86 0 142.5 -43t103.5 -110l186 188q-68 104 -170 171t-256 67q-113 0 -207 -41t-162.5 -116t-107.5 -178.5 t-39 -225.5z" />
<glyph unicode="&#xe8;" horiz-adv-x="1101" d="M82 537q0 -127 36 -230.5t101.5 -176.5t158.5 -113t210 -40q109 0 214 45.5t171 129.5l-201 167q-31 -35 -78 -55t-106 -20q-39 0 -77 11t-68.5 34.5t-51 62.5t-24.5 94h643q2 16 3 38t1 53q0 115 -31 217t-88 179t-142 121t-192 44q-102 0 -189 -41t-151.5 -116 t-101.5 -178.5t-37 -225.5zM172 1546l297 -327h240l-179 327h-358zM371 659q8 82 53 137.5t123 55.5q47 0 82 -16.5t58.5 -44t35.5 -61.5t16 -71h-368z" />
<glyph unicode="&#xe9;" horiz-adv-x="1101" d="M82 537q0 -127 36 -230.5t101.5 -176.5t158.5 -113t210 -40q109 0 214 45.5t171 129.5l-201 167q-31 -35 -78 -55t-106 -20q-39 0 -77 11t-68.5 34.5t-51 62.5t-24.5 94h643q2 16 3 38t1 53q0 115 -31 217t-88 179t-142 121t-192 44q-102 0 -189 -41t-151.5 -116 t-101.5 -178.5t-37 -225.5zM371 659q8 82 53 137.5t123 55.5q47 0 82 -16.5t58.5 -44t35.5 -61.5t16 -71h-368zM393 1219h240l297 327h-359z" />
<glyph unicode="&#xea;" horiz-adv-x="1101" d="M82 537q0 -127 36 -230.5t101.5 -176.5t158.5 -113t210 -40q109 0 214 45.5t171 129.5l-201 167q-31 -35 -78 -55t-106 -20q-39 0 -77 11t-68.5 34.5t-51 62.5t-24.5 94h643q2 16 3 38t1 53q0 115 -31 217t-88 179t-142 121t-192 44q-102 0 -189 -41t-151.5 -116 t-101.5 -178.5t-37 -225.5zM166 1198h186l205 154l205 -154h190l-250 328h-286zM371 659q8 82 53 137.5t123 55.5q47 0 82 -16.5t58.5 -44t35.5 -61.5t16 -71h-368z" />
<glyph unicode="&#xeb;" horiz-adv-x="1101" d="M82 537q0 -127 36 -230.5t101.5 -176.5t158.5 -113t210 -40q109 0 214 45.5t171 129.5l-201 167q-31 -35 -78 -55t-106 -20q-39 0 -77 11t-68.5 34.5t-51 62.5t-24.5 94h643q2 16 3 38t1 53q0 115 -31 217t-88 179t-142 121t-192 44q-102 0 -189 -41t-151.5 -116 t-101.5 -178.5t-37 -225.5zM178 1366q0 -63 47 -110.5t113 -47.5t113 47.5t47 110.5q0 33 -13.5 62.5t-35 51t-50 34t-61.5 12.5t-61.5 -12.5t-50 -34t-35 -51t-13.5 -62.5zM371 659q8 82 53 137.5t123 55.5q47 0 82 -16.5t58.5 -44t35.5 -61.5t16 -71h-368zM621 1366 q0 -31 13 -59.5t34.5 -50t51.5 -35t62 -13.5q63 0 110.5 47.5t47.5 110.5q0 33 -13.5 62.5t-35 51t-50 34t-59.5 12.5q-66 0 -113.5 -47t-47.5 -113z" />
<glyph unicode="&#xec;" horiz-adv-x="577" d="M-115 1546l297 -327h240l-178 327h-359zM147 0h283v1075h-283v-1075z" />
<glyph unicode="&#xed;" horiz-adv-x="577" d="M147 0h283v1075h-283v-1075zM154 1219h239l297 327h-358z" />
<glyph unicode="&#xee;" horiz-adv-x="577" d="M-104 1188h186l205 153l205 -153h190l-250 328h-287zM147 0h283v1075h-283v-1075z" />
<glyph unicode="&#xef;" horiz-adv-x="577" d="M-92 1356q0 -63 47 -110.5t113 -47.5t112.5 47.5t46.5 110.5q0 33 -13 62.5t-34.5 51t-50.5 34t-61 12.5q-33 0 -62 -12.5t-50.5 -34t-34.5 -51t-13 -62.5zM147 0h283v1075h-283v-1075zM350 1356q0 -31 13.5 -59.5t35 -50t51 -35t62.5 -13.5q63 0 110.5 47.5t47.5 110.5 q0 33 -13.5 62.5t-35 51t-50 34t-59.5 12.5q-66 0 -114 -47.5t-48 -112.5z" />
<glyph unicode="&#xf0;" horiz-adv-x="1136" d="M82 475q0 -111 37 -203t101.5 -157.5t153.5 -101.5t193 -36t194.5 36t155 111t101.5 187.5t37 266.5q0 203 -61.5 386t-196.5 308l69 67l-131 117l-84 -82q-72 37 -154.5 57.5t-181.5 24.5v-194q47 -4 92.5 -15.5t86.5 -27.5l-74 -72l131 -117l96 94q49 -45 83 -101 t50 -126q-55 39 -115.5 58.5t-138.5 19.5q-90 0 -171 -36t-141 -102.5t-96 -158.5t-36 -203zM358 475q0 111 51.5 181.5t157.5 70.5t158.5 -70.5t52.5 -181.5q0 -49 -13 -94t-39 -79t-65.5 -54.5t-93.5 -20.5q-106 0 -157.5 69t-51.5 179z" />
<glyph unicode="&#xf1;" horiz-adv-x="1196" d="M137 0h283v588q0 139 48 191t136 52t135 -53t47 -196v-582h283v606q0 227 -96 359.5t-301 132.5q-86 0 -150.5 -28t-101.5 -66v71h-283v-1075zM199 1219h184q10 53 25.5 75.5t44.5 22.5q20 0 39.5 -7t66.5 -34q31 -18 54.5 -29.5t47 -19.5t48 -11.5t57.5 -3.5 q104 0 169.5 79t65.5 216h-184q-10 -53 -25.5 -75.5t-43.5 -22.5q-20 0 -40 7t-67 34q-31 18 -55.5 29.5t-47 19.5t-47 11t-57.5 3q-104 0 -169.5 -78.5t-65.5 -215.5z" />
<glyph unicode="&#xf2;" horiz-adv-x="1136" d="M82 537q0 -123 37 -226.5t101.5 -177.5t153.5 -115t193 -41t194.5 41t155 115t101.5 177.5t37 226.5t-37 226t-101.5 178t-154.5 116t-195 41q-104 0 -193 -41t-153.5 -116t-101.5 -178.5t-37 -225.5zM180 1546l297 -327h240l-178 327h-359zM369 537q0 125 48 206.5 t150 81.5t151.5 -82.5t49.5 -205.5q0 -55 -12.5 -107.5t-37 -92.5t-62.5 -63.5t-89 -23.5q-102 0 -150 81t-48 206z" />
<glyph unicode="&#xf3;" horiz-adv-x="1136" d="M82 537q0 -123 37 -226.5t101.5 -177.5t153.5 -115t193 -41t194.5 41t155 115t101.5 177.5t37 226.5t-37 226t-101.5 178t-154.5 116t-195 41q-104 0 -193 -41t-153.5 -116t-101.5 -178.5t-37 -225.5zM369 537q0 125 48 206.5t150 81.5t151.5 -82.5t49.5 -205.5 q0 -55 -12.5 -107.5t-37 -92.5t-62.5 -63.5t-89 -23.5q-102 0 -150 81t-48 206zM401 1219h240l297 327h-358z" />
<glyph unicode="&#xf4;" horiz-adv-x="1136" d="M82 537q0 -123 37 -226.5t101.5 -177.5t153.5 -115t193 -41t194.5 41t155 115t101.5 177.5t37 226.5t-37 226t-101.5 178t-154.5 116t-195 41q-104 0 -193 -41t-153.5 -116t-101.5 -178.5t-37 -225.5zM174 1198h186l205 154l205 -154h191l-250 328h-287zM369 537 q0 125 48 206.5t150 81.5t151.5 -82.5t49.5 -205.5q0 -55 -12.5 -107.5t-37 -92.5t-62.5 -63.5t-89 -23.5q-102 0 -150 81t-48 206z" />
<glyph unicode="&#xf5;" horiz-adv-x="1136" d="M82 537q0 -123 37 -226.5t101.5 -177.5t153.5 -115t193 -41t194.5 41t155 115t101.5 177.5t37 226.5t-37 226t-101.5 178t-154.5 116t-195 41q-104 0 -193 -41t-153.5 -116t-101.5 -178.5t-37 -225.5zM164 1219h184q10 53 25.5 75.5t44.5 22.5q20 0 39.5 -7t66.5 -34 q31 -18 54.5 -29.5t47 -19.5t48 -11.5t57.5 -3.5q104 0 170 79t66 216h-185q-10 -53 -25.5 -75.5t-43.5 -22.5q-20 0 -40 7t-67 34q-31 18 -55.5 29.5t-47 19.5t-47 11t-57.5 3q-104 0 -169.5 -78.5t-65.5 -215.5zM369 537q0 125 48 206.5t150 81.5t151.5 -82.5t49.5 -205.5 q0 -55 -12.5 -107.5t-37 -92.5t-62.5 -63.5t-89 -23.5q-102 0 -150 81t-48 206z" />
<glyph unicode="&#xf6;" horiz-adv-x="1136" d="M82 537q0 -123 37 -226.5t101.5 -177.5t153.5 -115t193 -41t194.5 41t155 115t101.5 177.5t37 226.5t-37 226t-101.5 178t-154.5 116t-195 41q-104 0 -193 -41t-153.5 -116t-101.5 -178.5t-37 -225.5zM186 1356q0 -63 47.5 -110.5t112.5 -47.5q66 0 113 47.5t47 110.5 q0 33 -13.5 62.5t-35 51t-50 34t-61.5 12.5t-61.5 -12.5t-50 -34t-35 -51t-13.5 -62.5zM369 537q0 125 48 206.5t150 81.5t151.5 -82.5t49.5 -205.5q0 -55 -12.5 -107.5t-37 -92.5t-62.5 -63.5t-89 -23.5q-102 0 -150 81t-48 206zM629 1356q0 -31 13 -59.5t34.5 -50 t51.5 -35t63 -13.5q63 0 110 47.5t47 110.5q0 33 -13 62.5t-34.5 51t-50.5 34t-59 12.5q-66 0 -114 -47.5t-48 -112.5z" />
<glyph unicode="&#xf7;" d="M41 717l346 -271q16 -10 31.5 -9t23.5 5q39 25 25 72l-41 94h285v-254l-95 39q-47 14 -71 -22q-4 -8 -5 -24.5t9 -33.5l270 -344l264 344q12 18 11.5 33.5t-4.5 24.5q-23 37 -68 22l-98 -39v254h288l-41 -92q-12 -51 25 -74q8 -4 23.5 -5t33.5 9l344 271l-344 264 q-20 12 -34.5 11t-22.5 -5q-23 -12 -27 -28.5t2 -38.5l41 -99h-288v258l98 -39q45 -14 68 23q4 8 5 23.5t-12 33.5l-264 344l-270 -344q-10 -16 -9 -32.5t5 -24.5q27 -39 71 -23l95 39v-258h-285l41 99q6 23 2 39t-27 28q-8 4 -22 5t-33 -11z" />
<glyph unicode="&#xf8;" horiz-adv-x="1136" d="M82 537q0 -127 38 -230.5t103 -177.5l-123 -231h252l56 106q39 -12 78.5 -19.5t80.5 -7.5q104 0 194.5 41t155 115t101.5 177.5t37 226.5q0 127 -38 231t-108 180l121 230h-252l-55 -107q-72 27 -156 27q-104 0 -193 -41t-153.5 -116t-101.5 -178.5t-37 -225.5zM348 537 q0 68 13.5 128t40 104t68.5 69.5t97 25.5q29 0 54 -6l-252 -477q-20 68 -21 156zM510 219l254 481q24 -73 24 -163q0 -61 -13 -120t-40.5 -105t-69.5 -73.5t-98 -27.5q-33 0 -57 8z" />
<glyph unicode="&#xf9;" horiz-adv-x="1196" d="M127 469q0 -227 95 -359.5t302 -132.5q86 0 150.5 28t101.5 67v-72h283v1075h-283v-588q0 -139 -48 -191t-136 -52q-43 0 -78 12t-57.5 41t-34.5 77t-12 120v581h-283v-606zM207 1546l297 -327h239l-178 327h-358z" />
<glyph unicode="&#xfa;" horiz-adv-x="1196" d="M127 469q0 -227 95 -359.5t302 -132.5q86 0 150.5 28t101.5 67v-72h283v1075h-283v-588q0 -139 -48 -191t-136 -52q-43 0 -78 12t-57.5 41t-34.5 77t-12 120v581h-283v-606zM428 1219h240l297 327h-359z" />
<glyph unicode="&#xfb;" horiz-adv-x="1196" d="M127 469q0 -227 95 -359.5t302 -132.5q86 0 150.5 28t101.5 67v-72h283v1075h-283v-588q0 -139 -48 -191t-136 -52q-43 0 -78 12t-57.5 41t-34.5 77t-12 120v581h-283v-606zM201 1219h186l205 153l205 -153h190l-250 327h-286z" />
<glyph unicode="&#xfc;" horiz-adv-x="1196" d="M127 469q0 -227 95 -359.5t302 -132.5q86 0 150.5 28t101.5 67v-72h283v1075h-283v-588q0 -139 -48 -191t-136 -52q-43 0 -78 12t-57.5 41t-34.5 77t-12 120v581h-283v-606zM213 1376q0 -63 47 -110t113 -47t112.5 47t46.5 110q0 33 -13 62.5t-34.5 51t-50 34t-61.5 12.5 t-61.5 -12.5t-50 -34t-35 -51t-13.5 -62.5zM655 1376q0 -31 13.5 -59.5t35 -50t51 -34.5t62.5 -13q63 0 110.5 47t47.5 110q0 33 -13.5 62.5t-35 51t-50 34t-59.5 12.5q-66 0 -114 -47t-48 -113z" />
<glyph unicode="&#xfd;" horiz-adv-x="1208" d="M51 1075l418 -1075l-143 -379h278l553 1454h-303l-176 -518q-23 -63 -41.5 -129t-28.5 -106q-10 39 -28.5 106.5t-40.5 128.5l-177 518h-311zM436 1198h240l297 328h-359z" />
<glyph unicode="&#xfe;" horiz-adv-x="1150" d="M137 -395l283 141v315q39 -35 97 -59.5t130 -24.5q100 0 178 40t131.5 113t81 173t27.5 221q0 150 -33 258.5t-90 179t-133 103.5t-162 33q-78 0 -132 -28t-95 -62v485l-283 -141v-1747zM420 336v405q31 41 69.5 65.5t104.5 24.5q84 0 134 -73.5t50 -239.5 q0 -274 -168 -274q-123 0 -190 92z" />
<glyph unicode="&#xff;" horiz-adv-x="1208" d="M51 1075l418 -1075l-143 -379h278l553 1454h-303l-176 -518q-23 -63 -41.5 -129t-28.5 -106q-10 39 -28.5 106.5t-40.5 128.5l-177 518h-311zM221 1356q0 -63 47 -110.5t113 -47.5t113 47.5t47 110.5q0 33 -13.5 62.5t-35 51t-50 34t-61.5 12.5t-61.5 -12.5t-50 -34 t-35 -51t-13.5 -62.5zM664 1356q0 -31 13 -59.5t34.5 -50t51.5 -35t62 -13.5q63 0 110.5 47.5t47.5 110.5q0 33 -13.5 62.5t-35 51t-50 34t-59.5 12.5q-66 0 -113.5 -47.5t-47.5 -112.5z" />
<glyph unicode="&#x152;" horiz-adv-x="2160" d="M109 717q0 -164 42 -300t121.5 -233.5t195.5 -152t263 -54.5q127 0 212 43t132 109v-129h965v281h-719v346h391v278h-391v248h688v281h-934v-129q-53 68 -134 109.5t-210 41.5q-147 0 -263 -54t-195.5 -151.5t-121.5 -233.5t-42 -300zM403 717q0 96 18.5 179t58.5 144.5 t102.5 96t148.5 34.5t148.5 -34.5t102.5 -96t58.5 -144.5t18.5 -179t-18.5 -179t-58.5 -144.5t-102.5 -96.5t-148.5 -35t-148.5 35t-102.5 96.5t-58.5 144.5t-18.5 179z" />
<glyph unicode="&#x153;" horiz-adv-x="1761" d="M82 537q0 -123 37 -226.5t101.5 -177.5t153.5 -115t193 -41q111 0 195 41t133 113q55 -70 141 -112t211 -42q109 0 214.5 45.5t170.5 129.5l-200 167q-31 -35 -78 -55t-107 -20q-39 0 -76.5 11t-68.5 34.5t-51.5 62.5t-24.5 94h643q2 16 3 38t1 53q0 115 -30.5 217 t-88 179t-142.5 121t-191 44q-109 0 -187 -43t-137 -115q-51 74 -137 116t-193 42q-104 0 -193 -41t-153.5 -116t-101.5 -178.5t-37 -225.5zM369 537q0 125 48 206.5t150 81.5t151.5 -82.5t49.5 -205.5q0 -55 -12.5 -107.5t-37 -92.5t-62.5 -63.5t-89 -23.5q-102 0 -150 81 t-48 206zM1030 659q8 82 53 137.5t123 55.5q47 0 82 -16.5t58.5 -44t36 -61.5t16.5 -71h-369z" />
<glyph unicode="&#x178;" horiz-adv-x="1462" d="M45 1434l543 -873v-561h286v567l543 867h-325l-203 -340q-20 -35 -43 -75t-44.5 -79t-40 -72.5t-28.5 -54.5q-10 20 -28.5 54t-40 74t-45 80t-41.5 73l-203 340h-330zM352 1663q0 -63 47 -110.5t113 -47.5t113 47.5t47 110.5q0 33 -13.5 62.5t-35 51t-50 34t-61.5 12.5 t-61.5 -12.5t-50 -34t-35 -51t-13.5 -62.5zM795 1663q0 -31 13 -59.5t34.5 -50t51.5 -35t62 -13.5q63 0 110.5 47.5t47.5 110.5q0 33 -13.5 62.5t-35 51t-50 34t-59.5 12.5q-66 0 -113.5 -47t-47.5 -113z" />
<glyph unicode="&#x2c6;" horiz-adv-x="1024" d="M119 1219h186l205 153l205 -153h190l-250 327h-286z" />
<glyph unicode="&#x2dc;" horiz-adv-x="1024" d="M117 1219h184q10 53 25.5 75.5t44.5 22.5q20 0 39.5 -7t66.5 -34q31 -18 54.5 -29.5t47 -19.5t48 -11.5t57.5 -3.5q104 0 170 79t66 216h-185q-10 -53 -25.5 -75.5t-43.5 -22.5q-20 0 -40 7t-67 34q-31 18 -55.5 29.5t-47 19.5t-47 11t-57.5 3q-104 0 -169.5 -78.5 t-65.5 -215.5z" />
<glyph unicode="&#x2000;" horiz-adv-x="926" />
<glyph unicode="&#x2001;" horiz-adv-x="1853" />
<glyph unicode="&#x2002;" horiz-adv-x="926" />
<glyph unicode="&#x2003;" horiz-adv-x="1853" />
<glyph unicode="&#x2004;" horiz-adv-x="617" />
<glyph unicode="&#x2005;" horiz-adv-x="463" />
<glyph unicode="&#x2006;" horiz-adv-x="308" />
<glyph unicode="&#x2007;" horiz-adv-x="308" />
<glyph unicode="&#x2008;" horiz-adv-x="231" />
<glyph unicode="&#x2009;" horiz-adv-x="370" />
<glyph unicode="&#x200a;" horiz-adv-x="102" />
<glyph unicode="&#x2010;" horiz-adv-x="833" d="M123 602h588v283h-588v-283z" />
<glyph unicode="&#x2011;" horiz-adv-x="833" d="M123 602h588v283h-588v-283z" />
<glyph unicode="&#x2012;" horiz-adv-x="833" d="M123 602h588v283h-588v-283z" />
<glyph unicode="&#x2013;" horiz-adv-x="942" d="M113 612h716v262h-716v-262z" />
<glyph unicode="&#x2014;" horiz-adv-x="1269" d="M113 612h1044v262h-1044v-262z" />
<glyph unicode="&#x2018;" horiz-adv-x="575" d="M88 858h334l29 576h-195z" />
<glyph unicode="&#x2019;" horiz-adv-x="575" d="M125 858h194l168 576h-333z" />
<glyph unicode="&#x201a;" horiz-adv-x="575" d="M125 -229h194l168 575h-333z" />
<glyph unicode="&#x201c;" horiz-adv-x="1110" d="M88 858h334l29 576h-195zM623 858h333l29 576h-194z" />
<glyph unicode="&#x201d;" horiz-adv-x="1110" d="M125 858h194l168 576h-333zM659 858h195l168 576h-334z" />
<glyph unicode="&#x201e;" horiz-adv-x="1110" d="M125 -229h194l168 575h-333zM659 -229h195l168 575h-334z" />
<glyph unicode="&#x2022;" horiz-adv-x="1003" d="M133 750q0 -78 28.5 -145.5t78 -117t117 -78t145.5 -28.5t145.5 28.5t116.5 78t77.5 117t28.5 145.5t-28.5 145.5t-77.5 118.5t-116.5 79.5t-145.5 28.5t-145.5 -28.5t-117 -79.5t-78 -119t-28.5 -145z" />
<glyph unicode="&#x2026;" horiz-adv-x="1671" d="M86 170q0 -39 15.5 -74t42 -61.5t61.5 -42t74 -15.5t73.5 15.5t61 42t42 61.5t15.5 74t-15.5 74t-42 61.5t-61.5 41.5t-73 15q-39 0 -74 -15t-61.5 -41.5t-42 -61.5t-15.5 -74zM643 170q0 -39 15.5 -74t42 -61.5t61.5 -42t74 -15.5t73.5 15.5t61 42t42 61.5t15.5 74 t-15.5 74t-42 61.5t-61.5 41.5t-73 15q-39 0 -74 -15t-61.5 -41.5t-42 -61.5t-15.5 -74zM1200 170q0 -39 15.5 -74t42 -61.5t61.5 -42t74 -15.5t73.5 15.5t61 42t42 61.5t15.5 74t-15.5 74t-42 61.5t-61 41.5t-73.5 15t-74 -15t-61.5 -41.5t-42 -61.5t-15.5 -74z" />
<glyph unicode="&#x202f;" horiz-adv-x="370" />
<glyph unicode="&#x2039;" horiz-adv-x="770" d="M61 537l334 -537h293l-323 539l323 536h-293z" />
<glyph unicode="&#x203a;" horiz-adv-x="770" d="M82 0h293l334 539l-334 536h-293l324 -538z" />
<glyph unicode="&#x205f;" horiz-adv-x="463" />
<glyph unicode="&#x20ac;" horiz-adv-x="1306" d="M102 717q0 -164 40 -300t116 -233.5t187.5 -152t256.5 -54.5q104 0 185.5 27t145 73t111.5 105.5t87 124.5l-234 139q-31 -49 -60.5 -86.5t-63 -62.5t-74.5 -37t-92 -12q-100 0 -175 52t-116 169h415v188h-446q-2 14 -2 27v31v30t2 29h446v189h-415q39 119 113.5 171 t172.5 52q53 0 93.5 -13.5t71 -40t56 -65.5t50.5 -90l241 117q-39 88 -83 155.5t-103 113.5t-137 69.5t-184 23.5q-135 0 -247 -50t-192 -145.5t-123 -232.5t-43 -311z" />
<glyph unicode="&#x2122;" horiz-adv-x="1699" d="M39 1266h201v-639h194v639h201v168h-596v-168zM770 627h182v399q0 20 -1 43t-3 45q8 -16 16.5 -36.5t18.5 -39.5l207 -436l211 436q10 20 19.5 40t17.5 38q0 -23 -2 -45t-2 -45v-399h182v807h-195l-170 -349q-16 -35 -32.5 -70.5t-24.5 -62.5q-6 27 -23.5 64t-33.5 69 l-174 349h-193v-807z" />
<glyph unicode="&#x25fc;" horiz-adv-x="1075" d="M0 0v1075h1075v-1075h-1075z" />
<glyph unicode="&#xfb01;" horiz-adv-x="1320" d="M78 809h129v-809h282v809h183v266h-183v90q0 45 20.5 65.5t84.5 20.5q31 0 53 -6t45 -16v227q-74 31 -178 31q-147 0 -227 -65.5t-80 -217.5v-129h-129v-266zM870 1325q0 -66 48.5 -114t113.5 -48q66 0 114 48t48 114t-48 114t-114 48t-114 -48t-48 -114zM891 0h283v1075 h-283v-1075z" />
<glyph unicode="&#xfb02;" horiz-adv-x="1320" d="M78 809h129v-809h282v809h183v266h-183v90q0 45 20.5 65.5t84.5 20.5q31 0 53 -6t45 -16v227q-74 31 -178 31q-147 0 -227 -65.5t-80 -217.5v-129h-129v-266zM891 0h283v1493l-283 -141v-1352z" />
</font>
</defs>
</svg>
