<?xml version="1.0" standalone="no"?>
<!DOCTYPE svg PUBLIC "-//W3C//DTD SVG 1.1//EN" "http://www.w3.org/Graphics/SVG/1.1/DTD/svg11.dtd" >
<svg xmlns="http://www.w3.org/2000/svg">
<metadata></metadata>
<defs>
<font id="interstate-bolditalicregular" horiz-adv-x="1638" >
<font-face units-per-em="2048" ascent="1638" descent="-410" />
<missing-glyph horiz-adv-x="593" />
<glyph horiz-adv-x="0" />
<glyph unicode="&#xd;" horiz-adv-x="1024" />
<glyph unicode=" "  horiz-adv-x="593" />
<glyph unicode="&#x09;" horiz-adv-x="593" />
<glyph unicode="&#xa0;" horiz-adv-x="593" />
<glyph unicode="!" horiz-adv-x="696" d="M104 152q0 -72 51.5 -123.5t123.5 -51.5t123 51.5t51 123.5t-51.5 123t-122.5 51q-72 0 -123.5 -51.5t-51.5 -122.5zM238 451h192l115 393l104 590h-287l-104 -590z" />
<glyph unicode="&#x22;" horiz-adv-x="1081" d="M229 764h195l190 670h-338zM739 764h195l190 670h-338z" />
<glyph unicode="#" horiz-adv-x="1507" d="M59 287h246l-51 -287h250l51 287h311l-51 -287h250l51 287h246l41 235h-246l70 389h246l40 236h-245l51 287h-250l-51 -287h-311l51 287h-250l-51 -287h-246l-41 -236h246l-70 -389h-246zM596 522l70 389h311l-70 -389h-311z" />
<glyph unicode="$" horiz-adv-x="1325" d="M55 293q45 -88 143.5 -166t235.5 -115l-39 -217h287l35 197q131 10 224 52t150.5 106.5t84 146.5t26.5 172q0 78 -27.5 139.5t-79 109.5t-125 85t-163.5 65q-80 27 -131 47.5t-81 40t-41 41t-11 47.5q0 59 45 96.5t131 37.5q109 0 193.5 -48.5t146.5 -134.5l241 183 q-41 59 -120.5 129.5t-210.5 111.5l39 219h-287l-35 -194q-211 -20 -326.5 -137t-115.5 -301q0 -78 21.5 -137.5t66.5 -105.5t113.5 -81t162.5 -64q86 -27 142.5 -50t88 -47.5t45 -49.5t13.5 -55q0 -76 -59.5 -117t-165.5 -41q-80 0 -139.5 15.5t-103.5 43t-75.5 64.5 t-58.5 78z" />
<glyph unicode="%" horiz-adv-x="2037" d="M152 928q0 -166 89 -264.5t251 -98.5q86 0 164.5 37t139 106.5t97.5 167t37 218.5q0 166 -89 264t-251 98q-86 0 -165 -37t-139.5 -106.5t-97 -166.5t-36.5 -218zM360 0h248l1133 1434h-248zM383 918q0 72 14.5 135t40 111t60 76t75.5 28q59 0 92 -39t33 -125 q0 -72 -14 -136.5t-40 -111.5t-60.5 -74.5t-75.5 -27.5q-59 0 -92 39t-33 125zM1176 340q0 -166 89 -264.5t251 -98.5q86 0 164.5 37t139 106.5t97.5 167t37 218.5q0 166 -89 264t-251 98q-86 0 -165 -36.5t-139.5 -106.5t-97 -167t-36.5 -218zM1407 330q0 72 14.5 135 t40 111.5t60 76t75.5 27.5q59 0 92 -39t33 -125q0 -72 -14 -136.5t-40 -111.5t-60.5 -74.5t-75.5 -27.5q-59 0 -92 39t-33 125z" />
<glyph unicode="&#x26;" horiz-adv-x="1425" d="M45 350q0 -180 117 -276.5t319 -96.5q123 0 218.5 32t191.5 93l72 -102h315l-186 283q119 136 213 335l-218 91q-31 -66 -64.5 -121.5t-68.5 -102.5l-309 467q-27 41 -42 80t-15 70q0 47 34.5 73.5t106.5 26.5q68 0 147.5 -32.5t145.5 -92.5l172 195q-197 184 -467 184 q-92 0 -170 -23.5t-133 -68.5t-87 -111.5t-32 -152.5q0 -72 21.5 -139.5t74.5 -149.5l9 -14q-82 -37 -148.5 -81t-115 -97.5t-75 -120t-26.5 -148.5zM338 377q0 82 56.5 138t148.5 93l217 -313q-57 -35 -111.5 -49.5t-126.5 -14.5q-88 0 -136 36t-48 110z" />
<glyph unicode="'" horiz-adv-x="581" d="M227 764h205l191 670h-349z" />
<glyph unicode="(" horiz-adv-x="757" d="M125 453q0 -123 24.5 -229.5t59.5 -192.5t74 -151.5t67 -106.5l209 123q-18 31 -41.5 81t-45 115.5t-37 141t-15.5 159.5q0 270 102.5 507.5t286.5 440.5l-164 127q-68 -55 -158 -146t-169.5 -218t-136 -290t-56.5 -361z" />
<glyph unicode=")" horiz-adv-x="757" d="M-25 -102l164 -127q68 55 158 146t170 218t136 290t56 361q0 123 -24.5 229.5t-59 192.5t-73.5 151.5t-68 106.5l-209 -123q18 -31 42 -81t45.5 -115.5t37 -142t15.5 -158.5q0 -270 -103 -507.5t-287 -440.5z" />
<glyph unicode="*" horiz-adv-x="1024" d="M68 852l106 -184l250 168l-21 -304h218l-23 299l250 -167l108 186l-294 135l294 133l-108 187l-250 -170l23 299h-218l21 -301l-250 170l-106 -187l288 -133z" />
<glyph unicode="+" horiz-adv-x="1255" d="M113 571h374v-389h281v389h375v267h-375v389h-281v-389h-374v-267z" />
<glyph unicode="," horiz-adv-x="557" d="M-39 -258h193l278 604h-334z" />
<glyph unicode="-" horiz-adv-x="833" d="M135 602h588l49 283h-588z" />
<glyph unicode="." horiz-adv-x="557" d="M20 170q0 -39 15.5 -74t42 -61.5t61.5 -42t74 -15.5t74 15.5t61.5 42t42 61.5t15.5 74t-15.5 74t-42 61.5t-61.5 41.5t-74 15t-74 -15t-61.5 -41.5t-42 -61.5t-15.5 -74z" />
<glyph unicode="/" horiz-adv-x="962" d="M-119 -184h279l987 1802h-279z" />
<glyph unicode="0" horiz-adv-x="1400" d="M117 549q0 -279 141 -425.5t395 -146.5q145 0 272.5 64.5t221.5 183.5t148.5 287t54.5 373q0 279 -141.5 425t-395.5 146q-145 0 -272 -64.5t-221.5 -183t-148.5 -286.5t-54 -373zM412 592q0 117 27.5 222.5t77.5 186t121 128t155 47.5q137 0 199.5 -90t62.5 -244 q0 -117 -28 -222.5t-78 -186.5t-120.5 -128t-154.5 -47q-137 0 -199.5 90t-62.5 244z" />
<glyph unicode="1" horiz-adv-x="780" d="M168 1036h238l-183 -1036h285l252 1434h-238q-72 -174 -317 -187z" />
<glyph unicode="2" horiz-adv-x="1390" d="M37 0h1114l49 276h-749q23 59 57.5 103.5t83.5 80.5t116.5 66.5t153.5 63.5q131 49 220 95t144.5 102.5t79 126t23.5 165.5q0 180 -136 278.5t-380 98.5q-156 0 -300 -49t-267 -152l145 -223q84 61 181.5 102.5t213.5 41.5q129 0 188.5 -39t59.5 -99q0 -72 -49 -113.5 t-147 -74.5q-145 -47 -274.5 -110.5t-234 -161t-179 -237.5t-113.5 -341z" />
<glyph unicode="3" horiz-adv-x="1312" d="M-6 299q96 -145 246.5 -233.5t363.5 -88.5q135 0 242.5 32t184.5 94.5t118 154.5t41 211q0 98 -48 168t-130 111q41 20 81 49.5t71.5 72.5t51 98.5t19.5 129.5q0 168 -126 263t-355 95q-55 0 -118 -8t-128.5 -29.5t-131 -56.5t-124.5 -88l174 -203q61 49 135 77t150 28 q225 0 225 -142q0 -68 -45 -110.5t-148 -42.5h-149l-49 -273h143q106 0 155.5 -39t49.5 -108q0 -100 -72.5 -151.5t-185.5 -51.5q-76 0 -133.5 14.5t-103.5 41t-84 63.5t-72 82z" />
<glyph unicode="4" horiz-adv-x="1415" d="M47 293h776l-51 -293h277l51 293h188l47 266h-188l153 875h-301l-907 -883zM418 555q27 23 73 66t87 84l247 239q43 41 83 87t65 75q-4 -20 -12.5 -60t-17.5 -86.5t-17 -91.5t-15 -75l-41 -234h-168q-31 0 -71.5 -1t-83.5 -1q-41 0 -76 -1t-53 -1z" />
<glyph unicode="5" horiz-adv-x="1359" d="M33 176q133 -104 292.5 -151.5t315.5 -47.5q293 0 453.5 154t160.5 430q0 188 -121.5 301t-353.5 113q-86 0 -148.5 -21.5t-96.5 -44.5l61 248h682l47 277h-946l-174 -717l254 -101q12 8 34.5 23.5t54.5 29t71.5 23.5t87.5 10q137 0 194 -55t57 -141q0 -125 -83.5 -188.5 t-229.5 -63.5q-117 0 -227.5 43t-202.5 109z" />
<glyph unicode="6" horiz-adv-x="1349" d="M88 475q0 -242 144.5 -370t404.5 -128q127 0 240.5 35t198.5 105.5t135.5 174.5t50.5 243q0 98 -36 170.5t-98.5 122t-149.5 74t-190 24.5q-100 0 -167.5 -20.5t-128.5 -63.5q84 166 259 251t416 89l50 274q-193 2 -351.5 -40t-283.5 -114.5t-218.5 -171t-155 -208 t-91 -224t-29.5 -223.5zM377 432q0 111 75.5 175.5t217.5 64.5q160 0 226.5 -56.5t66.5 -136.5q0 -111 -79 -173t-220 -62q-133 0 -210 46t-77 142z" />
<glyph unicode="7" horiz-adv-x="1284" d="M201 1161h729q-254 -217 -406.5 -503.5t-228.5 -657.5h293q41 193 107.5 366t153.5 320.5t193.5 266t225.5 204.5l47 277h-1067z" />
<glyph unicode="8" horiz-adv-x="1429" d="M92 393q0 -96 41 -173t120 -130t190.5 -83t252.5 -30t253 34t191 96.5t121 152.5t42 201q0 96 -43 171t-134 126q98 45 159 121t61 211q0 84 -38 151.5t-105.5 115.5t-164 73.5t-213.5 25.5q-121 0 -224 -28.5t-178 -83t-117 -133t-42 -179.5q0 -68 33 -130t92 -103 q-135 -51 -216 -153.5t-81 -252.5zM387 430q0 92 74 150.5t215 58.5q164 0 250 -50.5t86 -142.5q0 -98 -78 -157.5t-238 -59.5q-139 0 -224 52.5t-85 148.5zM555 1034q0 70 60.5 122t183.5 52q145 0 200.5 -45.5t55.5 -115.5q0 -72 -57.5 -122.5t-188.5 -50.5 q-127 0 -190.5 47.5t-63.5 112.5z" />
<glyph unicode="9" horiz-adv-x="1349" d="M158 899q0 -98 35.5 -171t98 -122t149.5 -73.5t190 -24.5q100 0 167.5 20.5t129.5 63.5q-84 -166 -259 -251t-417 -89l-49 -275q193 -2 351.5 40t283.5 115t218 171t154.5 208t91 224.5t29.5 222.5q0 242 -144.5 370t-404.5 128q-127 0 -240.5 -35t-198.5 -105.5 t-135 -175t-50 -241.5zM457 954q0 111 78.5 173.5t220.5 62.5q133 0 209.5 -46t76.5 -143q0 -111 -75.5 -175t-216.5 -64q-160 0 -226.5 56t-66.5 136z" />
<glyph unicode=":" horiz-adv-x="557" d="M20 170q0 -39 15.5 -74t42 -61.5t61.5 -42t74 -15.5t74 15.5t61.5 42t42 61.5t15.5 74t-15.5 74t-42 61.5t-61.5 41.5t-74 15t-74 -15t-61.5 -41.5t-42 -61.5t-15.5 -74zM150 905q0 -39 15 -73.5t41.5 -61.5t61.5 -42t74 -15t74 15t61.5 42t42 61.5t15.5 73.5t-15.5 74 t-42 61.5t-61.5 42t-74 15.5t-74 -15.5t-61.5 -42t-41.5 -61.5t-15 -74z" />
<glyph unicode=";" horiz-adv-x="557" d="M-53 -258h192l279 604h-334zM147 905q0 -39 15.5 -73.5t42 -61.5t61.5 -42t74 -15t74 15t61.5 42t41.5 61.5t15 73.5t-15 74t-41.5 61.5t-61.5 42t-74 15.5t-74 -15.5t-61.5 -42t-42 -61.5t-15.5 -74z" />
<glyph unicode="&#x3c;" horiz-adv-x="921" d="M117 608l678 -551v355l-383 295l383 292v353l-678 -551v-193z" />
<glyph unicode="=" horiz-adv-x="1255" d="M164 330h928v264h-928v-264zM164 815h928v264h-928v-264z" />
<glyph unicode="&#x3e;" horiz-adv-x="921" d="M127 57l678 551v193l-678 551v-355l383 -295l-383 -292v-353z" />
<glyph unicode="?" horiz-adv-x="1187" d="M166 1251l145 -225q96 78 199.5 114t196.5 36q98 0 151 -40t53 -104q0 -68 -49 -108.5t-153 -81.5q-74 -29 -128.5 -59.5t-93 -74.5t-62.5 -105.5t-32 -151.5h281q12 78 59 120.5t144 83.5q88 37 151.5 79t102 93.5t57 116t18.5 146.5q0 74 -27.5 139t-86 116.5 t-146.5 81t-207 29.5q-160 0 -304 -52t-269 -153zM307 152q0 -72 51.5 -123.5t122.5 -51.5q72 0 123 51.5t51 123.5t-51 123t-123 51t-123 -51.5t-51 -122.5z" />
<glyph unicode="@" horiz-adv-x="1712" d="M117 717q0 -160 55 -296t153.5 -234.5t234.5 -154t296 -55.5q88 0 157.5 14.5t157.5 55.5l-49 109q-70 -35 -133 -47.5t-133 -12.5q-135 0 -248.5 47t-196.5 130t-129 197t-46 249q0 133 46 246.5t129 196.5t196.5 130t248.5 47q133 0 247 -48t196.5 -130t130 -190.5 t47.5 -231.5q0 -145 -41 -224t-138 -79q-70 0 -98.5 39t-28.5 98v293q0 135 -89 206t-232 71q-96 0 -161.5 -19.5t-133.5 -60.5l76 -135q53 29 100 41t119 12q61 0 91 -31.5t30 -79.5v-51q-33 16 -67 27.5t-93 11.5q-68 0 -126 -16.5t-102 -49t-69 -81.5t-25 -115 q0 -72 26 -125t67 -88t94 -52.5t108 -17.5q96 0 155.5 32t107.5 83q39 -53 92 -83t147 -30q68 0 124 22.5t98 74t64.5 131t22.5 194.5q0 145 -54 276.5t-151.5 229.5t-233.5 155.5t-300 57.5q-160 0 -296 -55t-234.5 -153.5t-153.5 -234.5t-55 -296zM688 596q0 109 129 109 q59 0 92 -10.5t62 -26.5v-105q-18 -33 -59.5 -56.5t-94.5 -23.5q-72 0 -100.5 34t-28.5 79z" />
<glyph unicode="A" horiz-adv-x="1527" d="M-10 0h317l168 319h518l56 -319h305l-289 1434h-279zM618 592l138 260q35 66 64.5 124t45.5 99q4 -41 13.5 -100.5t19.5 -122.5l45 -260h-326z" />
<glyph unicode="B" horiz-adv-x="1445" d="M90 0h672q125 0 230.5 31.5t180 93t116.5 152t42 206.5q0 92 -41 162t-110 113q39 20 76.5 52t66.5 73t47.5 95t18.5 122q0 150 -114 242t-331 92h-600zM420 272l65 371h332q217 0 217 -164q0 -100 -63.5 -153.5t-167.5 -53.5h-383zM528 897l50 272h333q94 0 136.5 -29.5 t42.5 -84.5q0 -78 -48.5 -118t-132.5 -40h-381z" />
<glyph unicode="C" horiz-adv-x="1363" d="M121 567q0 -160 47 -272.5t125 -183t177 -102.5t202 -32q172 0 301 73t244 226l-230 166q-66 -88 -132.5 -134t-152.5 -46q-123 0 -202.5 85t-79.5 261q0 111 28.5 213.5t80 180t123 125t157.5 47.5q111 0 171 -52.5t105 -136.5l279 143q-37 80 -83 140.5t-108.5 102.5 t-144.5 63.5t-188 21.5q-145 0 -276.5 -63.5t-229.5 -179t-155.5 -279.5t-57.5 -367z" />
<glyph unicode="D" horiz-adv-x="1439" d="M90 0h451q186 0 341.5 54.5t268.5 163t175.5 271t62.5 379.5q0 129 -40 233.5t-126 178.5t-222.5 114t-328.5 40h-328zM426 279l156 876h84q115 0 194.5 -23.5t130.5 -66.5t73.5 -106.5t22.5 -143.5q0 -127 -33.5 -226.5t-95 -169t-148.5 -105t-196 -35.5h-188z" />
<glyph unicode="E" horiz-adv-x="1323" d="M90 0h1018l49 281h-731l61 346h404l49 278h-403l43 248h700l49 281h-987z" />
<glyph unicode="F" horiz-adv-x="1271" d="M90 0h287l106 604h424l49 279h-424l48 270h731l49 281h-1018z" />
<glyph unicode="G" horiz-adv-x="1421" d="M125 573q0 -145 44 -255.5t121 -186.5t180 -115t224 -39q254 0 411 149.5t214 483.5l22 133h-507l-48 -268h203l-2 -8q-53 -211 -260 -211q-66 0 -121 21.5t-95 66.5t-63.5 112.5t-23.5 157.5q0 109 28.5 210.5t83 178t129 122.5t166.5 46q102 0 162 -55t94 -151l291 118 q-57 180 -183 276.5t-345 96.5q-156 0 -288 -66.5t-229 -184.5t-152.5 -279.5t-55.5 -352.5z" />
<glyph unicode="H" horiz-adv-x="1521" d="M90 0h287l104 602h580l-105 -602h287l252 1434h-287l-96 -549h-580l97 549h-287z" />
<glyph unicode="I" horiz-adv-x="696" d="M109 0h286l254 1434h-287z" />
<glyph unicode="J" horiz-adv-x="1323" d="M51 426q37 -203 160 -326t340 -123q264 0 404.5 138.5t187.5 400.5l162 918h-287l-150 -844q-31 -170 -97 -249t-191 -79q-115 0 -169.5 59.5t-82.5 170.5z" />
<glyph unicode="K" horiz-adv-x="1466" d="M90 0h287l67 393l316 318l268 -711h303l-352 932l498 502h-347l-479 -494q-35 -37 -70.5 -73t-68.5 -76q4 14 10 44.5t12.5 66.5t12.5 70t10 54l72 408h-287z" />
<glyph unicode="L" horiz-adv-x="1261" d="M90 0h997l50 283h-711l203 1151h-287z" />
<glyph unicode="M" horiz-adv-x="1701" d="M90 0h281l92 526q6 29 13 74t14.5 92t13.5 88t10 62q4 -20 10 -48t13.5 -61t15.5 -65.5t16 -63.5l183 -637l399 637q39 61 77 129t60 109q-4 -20 -11 -61.5t-16.5 -88.5t-17.5 -92t-14 -74l-92 -526h286l252 1434h-293l-401 -650q-18 -31 -37.5 -64.5t-38 -66t-34 -60.5 t-25.5 -48q-8 39 -23.5 105.5t-34.5 133.5l-170 650h-276z" />
<glyph unicode="N" horiz-adv-x="1521" d="M90 0h283l114 659q6 31 13.5 76t14.5 91t13.5 86t10.5 61q10 -29 30.5 -75t40.5 -87l377 -811h256l252 1434h-283l-110 -635q-6 -31 -13.5 -76t-14.5 -91t-13 -86t-10 -61q-10 29 -26.5 75t-37.5 87l-371 787h-274z" />
<glyph unicode="O" horiz-adv-x="1464" d="M121 567q0 -139 39 -247.5t112.5 -185.5t178 -117t237.5 -40q160 0 293 71t228.5 192.5t147.5 282.5t52 343q0 137 -39 247t-112.5 186.5t-179 116.5t-236.5 40q-160 0 -293 -70.5t-228.5 -192.5t-147.5 -283.5t-52 -342.5zM420 608q0 127 31.5 230.5t86 177.5t127 114.5 t156.5 40.5q61 0 113.5 -20.5t91.5 -63.5t61.5 -108.5t22.5 -153.5q0 -127 -31.5 -230t-86 -177t-128 -115t-155.5 -41q-61 0 -113.5 20.5t-91.5 63.5t-61.5 107.5t-22.5 154.5z" />
<glyph unicode="P" horiz-adv-x="1384" d="M90 0h287l90 508h332q285 0 435 141t150 395q0 184 -124.5 287t-364.5 103h-551zM516 786l66 369h297q115 0 159.5 -44t44.5 -112q0 -98 -61 -155.5t-172 -57.5h-334z" />
<glyph unicode="Q" horiz-adv-x="1454" d="M121 567q0 -139 39 -247.5t112.5 -183.5t178 -114.5t237.5 -39.5q90 0 170 24l70 -145l243 127l-71 149q141 121 225 311.5t84 417.5q0 137 -39 247t-112.5 186.5t-179 116.5t-236.5 40q-160 0 -293 -70.5t-228.5 -192.5t-147.5 -283.5t-52 -342.5zM420 608 q0 127 31.5 230.5t86 177.5t127 114.5t156.5 40.5q61 0 113.5 -20.5t91.5 -63.5t61.5 -108.5t22.5 -153.5q0 -150 -36 -260t-95 -182l-72 152l-243 -127l73 -152q-10 -2 -28 -2q-61 0 -113.5 21.5t-91.5 66.5t-61.5 110.5t-22.5 155.5z" />
<glyph unicode="R" horiz-adv-x="1454" d="M90 0h287l90 516h303l166 -516h307l-176 557q74 20 138.5 60t113.5 100.5t77.5 141.5t28.5 183q0 182 -120.5 287t-362.5 105h-600zM516 786l64 369h333h3q208 0 208 -151q0 -61 -20.5 -102.5t-53 -67t-73.5 -37t-84 -11.5h-377z" />
<glyph unicode="S" horiz-adv-x="1345" d="M53 274q35 -59 90.5 -112t129 -94t165.5 -66t201 -25q123 0 227.5 30t181 89.5t119.5 149.5t43 213q0 90 -35.5 155.5t-93 113.5t-131 81t-147.5 57q-76 25 -126 45.5t-81 40t-43 42t-12 53.5q0 59 48 100t161 41q115 0 193.5 -51.5t135.5 -122.5l232 178 q-80 113 -209 188.5t-320 75.5q-106 0 -203.5 -25.5t-172 -81t-118.5 -141.5t-44 -204q0 -78 27.5 -138.5t77.5 -106.5t120 -81t152 -60q82 -27 137 -49t89 -45.5t48 -47t14 -52.5q0 -47 -18.5 -80t-49 -53.5t-72.5 -29.5t-87 -9q-111 0 -214 41t-181 147z" />
<glyph unicode="T" horiz-adv-x="1286" d="M203 1151h407l-202 -1151h286l203 1151h408l49 283h-1102z" />
<glyph unicode="U" horiz-adv-x="1501" d="M180 471q0 -127 38 -220t107.5 -153.5t164 -90.5t208.5 -30q143 0 252 40t185.5 118t126 192.5t75.5 266.5l148 840h-287l-145 -836q-33 -182 -114 -261t-206 -79q-262 0 -262 248q0 53 5 101t11 85l131 742h-286l-135 -772q-8 -43 -12.5 -98.5t-4.5 -92.5z" />
<glyph unicode="V" horiz-adv-x="1454" d="M240 1434l247 -1434h277l760 1434h-312l-415 -830q-16 -31 -32.5 -66.5t-31 -68.5t-27 -60.5t-18.5 -43.5q-2 18 -4 46.5t-6 60.5t-8 64.5t-8 63.5l-121 834h-301z" />
<glyph unicode="W" horiz-adv-x="1792" d="M262 1434l45 -1434h271l305 737q27 63 52.5 134t37.5 112q-1 -20 -1 -48q0 -29 1 -63q2 -70 6 -135l43 -737h283l548 1434h-299l-249 -699q-18 -51 -41 -120.5t-35 -114.5v112q0 68 -4 123l-47 699h-250l-287 -699q-23 -53 -48.5 -121.5t-41.5 -113.5q4 45 5 113.5 t1 121.5v699h-295z" />
<glyph unicode="X" horiz-adv-x="1437" d="M-4 0h321l250 317q41 51 75 96.5t63 88.5q16 -45 36.5 -95.5t46.5 -107.5l138 -299h309l-342 733l559 701h-322l-247 -312q-29 -37 -54.5 -72.5t-52.5 -76.5q-14 43 -30.5 84t-32.5 76l-140 301h-309l324 -693z" />
<glyph unicode="Y" horiz-adv-x="1454" d="M203 1434l385 -873l-99 -561h287l101 567l690 867h-332l-264 -340q-29 -35 -59.5 -78t-58.5 -84t-51.5 -75t-35.5 -52q-6 20 -19.5 55t-29 77t-32.5 83t-30 74l-141 340h-311z" />
<glyph unicode="Z" horiz-adv-x="1400" d="M45 0h1122l47 262h-475h-73q-41 0 -82 -1t-78 -2t-57 -1q16 14 42.5 40t55 53.5t54.5 53t40 39.5l725 736l45 254h-1071l-47 -263h438h70q41 0 81 1.5t74.5 2.5t57.5 1q-16 -14 -40 -37t-50.5 -49.5t-54 -53t-48.5 -47.5l-731 -735z" />
<glyph unicode="[" horiz-adv-x="841" d="M61 -225h519l38 225h-241l213 1208h241l39 226h-518z" />
<glyph unicode="\" horiz-adv-x="962" d="M201 1618l348 -1802h278l-348 1802h-278z" />
<glyph unicode="]" horiz-adv-x="841" d="M-6 -225h518l291 1659h-518l-39 -226h241l-213 -1208h-241z" />
<glyph unicode="^" horiz-adv-x="1183" d="M96 782h287l207 381l207 -381h290l-382 652h-226z" />
<glyph unicode="_" horiz-adv-x="1024" d="M-162 -383h1024l41 236h-1024z" />
<glyph unicode="`" horiz-adv-x="1024" d="M383 1546l240 -327h239l-121 327h-358z" />
<glyph unicode="a" horiz-adv-x="1130" d="M47 311q0 -88 29.5 -150.5t80 -103.5t116 -60.5t137.5 -19.5q76 0 133 28t98 67l-14 -72h282l121 688q4 25 6 46t2 44q0 84 -31.5 144.5t-90 99.5t-138.5 57.5t-174 18.5q-102 0 -199.5 -27t-154.5 -61l74 -201q47 23 111.5 39t131.5 16q102 0 144.5 -27.5t42.5 -84.5 v-17q0 -8 -2 -18l-7 -43q-14 8 -41.5 15t-62.5 13.5t-74 10.5t-75 4q-102 0 -184.5 -30t-139.5 -83t-89 -128t-32 -165zM336 342q0 66 41 110t127 44q70 0 119 -13.5t84 -31.5l-25 -136q-25 -35 -75 -66.5t-115 -31.5q-156 0 -156 125z" />
<glyph unicode="b" horiz-adv-x="1142" d="M41 0h278l13 66q53 -41 104 -65t133 -24q121 0 214.5 59.5t157 158t96 226.5t32.5 265q0 193 -91 302.5t-263 109.5q-66 0 -117 -24.5t-96 -65.5l84 485l-307 -141zM383 336l72 405q35 35 76.5 62.5t97.5 27.5h2q147 0 147 -192q0 -80 -15 -152.5t-43 -126t-68 -85 t-89 -31.5q-59 0 -99 22.5t-81 69.5z" />
<glyph unicode="c" horiz-adv-x="1091" d="M72 457q0 -113 34.5 -202t95 -150.5t142.5 -94.5t178 -33q117 0 223.5 47.5t221.5 161.5l-160 187q-70 -61 -130.5 -92t-119.5 -31q-88 0 -142.5 59.5t-54.5 169.5q0 66 18.5 128.5t53.5 110.5t82 77.5t107 29.5q78 0 130 -45t103 -127l225 178q-31 57 -69.5 106.5 t-91 84.5t-118 55.5t-149.5 20.5q-131 0 -238.5 -52.5t-183 -141.5t-116.5 -204.5t-41 -242.5z" />
<glyph unicode="d" horiz-adv-x="1142" d="M68 389q0 -193 91 -302.5t263 -109.5q66 0 117 25t96 66l-12 -68h282l264 1493l-307 -141l-59 -342q-53 41 -103.5 64.5t-132.5 23.5q-121 0 -214 -59.5t-156.5 -158t-96 -226.5t-32.5 -265zM358 436q0 80 15.5 153t43 126t67.5 84.5t89 31.5q59 0 99.5 -22.5t81.5 -69.5 l-72 -405q-35 -35 -77 -62.5t-97 -27.5h-2q-148 0 -148 192z" />
<glyph unicode="e" horiz-adv-x="1093" d="M68 444q0 -109 31.5 -195.5t91 -147t142.5 -92.5t187 -32q98 0 191.5 33t191.5 109l-137 196q-103 -71 -212 -71h-3q-37 0 -75 11t-68 35q-32 23 -48 62q-12 29 -12 66q0 14 2 28h635q16 55 24.5 109t8.5 107q0 90 -23.5 168.5t-70.5 138t-122 94.5t-175 35 q-117 0 -219.5 -50.5t-177 -138.5t-118.5 -207.5t-44 -257.5zM387 659q25 82 73 137.5t126 55.5q47 0 80.5 -15.5t53.5 -42.5q20 -26 28 -61q6 -24 5 -49q0 -12 -1 -25h-365z" />
<glyph unicode="f" horiz-adv-x="749" d="M113 0h282l142 809h174l47 266h-174l16 90q10 47 27.5 66.5t64.5 19.5q35 0 65.5 -9t47.5 -19l41 219q-29 18 -86.5 31.5t-112.5 13.5q-147 0 -222 -63.5t-101 -219.5l-23 -129h-129l-47 -266h129z" />
<glyph unicode="g" horiz-adv-x="1142" d="M68 389q0 -193 91 -302.5t263 -109.5q63 0 118.5 26t96.5 67l-2 -13q-10 -59 -29.5 -101t-57.5 -69.5t-96.5 -43t-146.5 -19.5l66 -219q156 8 256 49t161.5 114.5t95.5 177t56 236.5l156 893h-283l-10 -65q-53 41 -103.5 64.5t-132.5 23.5q-121 0 -214 -59.5t-156.5 -158 t-96 -226.5t-32.5 -265zM358 436q0 80 15.5 153t43 126t67.5 84.5t89 31.5q59 0 99.5 -22.5t81.5 -69.5l-72 -405q-35 -35 -77 -62.5t-97 -27.5h-2q-148 0 -148 192z" />
<glyph unicode="h" horiz-adv-x="1187" d="M43 0h283l102 588q23 135 77 189t140 54q150 0 150 -155q0 -20 -2 -43t-7 -51l-102 -582h283l106 606q6 41 10 82t4 76q0 162 -83.5 248t-258.5 86q-84 0 -143 -28t-100 -66l86 489l-307 -141z" />
<glyph unicode="i" horiz-adv-x="577" d="M53 0h283l188 1075h-282zM262 1325q0 -66 48 -114t114 -48t114 48t48 114t-48.5 114t-113.5 48q-66 0 -114 -48t-48 -114z" />
<glyph unicode="j" horiz-adv-x="577" d="M-223 -174l59 -221q137 12 226.5 42.5t145.5 85t86 135.5t50 193l180 1014h-282l-179 -1007q-12 -63 -28.5 -104.5t-47 -69t-80.5 -43t-130 -25.5zM264 1325q0 -66 48 -114t114 -48t114 48t48 114t-48 114t-114 48t-114 -48t-48 -114z" />
<glyph unicode="k" horiz-adv-x="1120" d="M43 0h283l57 326l178 180l113 -506h295l-174 741l331 334h-333l-207 -225q-35 -37 -75 -81t-67 -77q4 20 9.5 49t11.5 61t12 63.5t10 56.5l103 571l-309 -141z" />
<glyph unicode="l" horiz-adv-x="577" d="M53 0h283l262 1493l-307 -141z" />
<glyph unicode="m" horiz-adv-x="1796" d="M43 0h283l102 588q23 129 73 186t128 57q70 0 110.5 -31.5t40.5 -117.5q0 -23 -3 -47.5t-7 -52.5l-102 -582h284l103 588q23 129 73 186t127 57q70 0 111 -31.5t41 -115.5q0 -23 -3 -48.5t-7 -53.5l-103 -582h281l106 606q15 78 15 152q0 166 -82 253t-248 87 q-63 0 -116.5 -14.5t-96.5 -35t-76 -45t-55 -42.5q-47 70 -115.5 103.5t-173.5 33.5q-78 0 -135 -30t-96 -64l12 71h-283z" />
<glyph unicode="n" horiz-adv-x="1187" d="M43 0h283l102 588q23 135 77 189t140 54q150 0 150 -155q0 -20 -2 -43t-7 -51l-102 -582h283l106 606q6 41 10 82t4 76q0 162 -83.5 248t-258.5 86q-84 0 -143 -28t-100 -66l12 71h-283z" />
<glyph unicode="o" horiz-adv-x="1128" d="M72 440q0 -106 30.5 -192t86 -145.5t133 -92.5t172.5 -33q125 0 228 53.5t178 143.5t116 209t41 252q0 106 -31 192t-86 145.5t-133 92.5t-172 33q-125 0 -228.5 -53.5t-178 -143.5t-115.5 -210t-41 -251zM362 459q0 86 19.5 154.5t53.5 115.5t78 71.5t91 24.5 q70 0 116 -54t46 -155q0 -86 -19.5 -154.5t-53.5 -115.5t-78 -71.5t-91 -24.5q-70 0 -116 54.5t-46 154.5z" />
<glyph unicode="p" horiz-adv-x="1142" d="M-29 -395l308 141l55 320q53 -41 103 -65t132 -24q121 0 214.5 59.5t157 158t96 226.5t32.5 265q0 193 -91 302.5t-263 109.5q-66 0 -117 -24.5t-96 -65.5l12 67h-283zM383 336l72 405q35 35 76.5 62.5t97.5 27.5h2q147 0 147 -192q0 -80 -15 -152.5t-43 -126t-68 -85 t-89 -31.5q-59 0 -99 22.5t-81 69.5z" />
<glyph unicode="q" horiz-adv-x="1142" d="M68 389q0 -193 91 -302.5t263 -109.5q66 0 117 25t96 66l-82 -463l309 141l234 1329h-283l-10 -65q-53 41 -103.5 64.5t-132.5 23.5q-121 0 -214 -59.5t-156.5 -158t-96 -226.5t-32.5 -265zM358 436q0 80 15.5 153t43 126t67.5 84.5t89 31.5q59 0 99.5 -22.5t81.5 -69.5 l-72 -405q-35 -35 -77 -62.5t-97 -27.5h-2q-148 0 -148 192z" />
<glyph unicode="r" horiz-adv-x="868" d="M41 0h283l98 557q14 84 34.5 135t47 79t57.5 36t66 8q53 0 98 -24.5t68 -49.5l125 267q-29 37 -83.5 63.5t-125.5 26.5q-66 0 -118 -27t-89 -67l12 71h-283z" />
<glyph unicode="s" horiz-adv-x="1091" d="M20 139q37 -31 88.5 -59.5t115 -51t137 -37t153.5 -14.5q90 0 168 20.5t136.5 63.5t92 111t33.5 162q0 61 -21.5 108t-60.5 85t-94 69t-122.5 59.5t-107.5 48t-60.5 34t-26 26.5t-5.5 24q0 29 27 48.5t86 19.5q92 0 183.5 -35t154.5 -76l129 224q-78 47 -188.5 88 t-257.5 41q-201 0 -309.5 -90t-108.5 -258q0 -61 22.5 -108.5t67.5 -86.5t112.5 -72.5t159.5 -70.5q80 -31 107.5 -54.5t27.5 -54.5q0 -39 -29.5 -61.5t-84.5 -22.5q-123 0 -219.5 37t-171.5 88z" />
<glyph unicode="t" horiz-adv-x="897" d="M100 809h181l-91 -508q-6 -41 -6 -74q0 -113 66.5 -181.5t189.5 -68.5q39 0 100.5 13.5t102.5 42.5l92 280q-39 -31 -75.5 -48t-77.5 -17q-47 0 -73 17.5t-26 64.5v20q0 12 4 27l76 432h250l47 266h-250l74 418l-307 -141l-49 -277h-181z" />
<glyph unicode="u" horiz-adv-x="1187" d="M100 311q0 -162 84 -248t258 -86q84 0 143.5 28t100.5 67l-12 -72h282l189 1075h-283l-102 -588q-23 -135 -77 -189t-140 -54q-150 0 -150 155q0 20 2 43t6 52l103 581h-283l-106 -606q-6 -41 -10.5 -82t-4.5 -76z" />
<glyph unicode="v" horiz-adv-x="1155" d="M147 1075l193 -1075h289l573 1075h-307l-242 -497q-31 -63 -62.5 -129t-47.5 -107q-2 39 -9.5 106.5t-15.5 129.5l-67 497h-304z" />
<glyph unicode="w" horiz-adv-x="1511" d="M145 1075l121 -1075h236l176 422q12 31 27.5 67.5t30 71.5t26.5 65.5t18 49.5q0 -18 1 -49t3 -66t4.5 -71.5t4.5 -67.5l28 -422h252l481 1075h-284l-164 -397q-12 -31 -26.5 -65.5t-27 -68.5t-23.5 -63.5t-17 -48.5q1 16 1 38q0 32 -2 74q-3 70 -10 134l-36 397h-234 l-176 -397q-29 -63 -55.5 -134t-40.5 -112q0 18 -1 48t-2 64t-2 68.5t-3 65.5l-25 397h-281z" />
<glyph unicode="x" horiz-adv-x="1175" d="M-43 0h305l176 219q29 35 52.5 66.5t46.5 66.5q14 -35 27.5 -69.5t29.5 -67.5l104 -215h299l-282 569l413 506h-305l-127 -157q-49 -61 -90 -125q-14 37 -25.5 65.5t-27.5 59.5l-76 157h-299l248 -500z" />
<glyph unicode="y" horiz-adv-x="1200" d="M147 1075l220 -1075l-209 -379h282l805 1454h-307l-264 -518q-33 -63 -63.5 -129t-47.5 -106q-4 39 -11 105.5t-17 129.5l-80 518h-308z" />
<glyph unicode="z" horiz-adv-x="1126" d="M29 0h880l45 256h-327q-41 0 -94.5 -1t-83.5 -3q27 25 75.5 69t89.5 85l449 464l35 205h-846l-45 -256h315q41 0 91.5 1t78.5 3q-27 -25 -73 -68.5t-87 -84.5l-469 -465z" />
<glyph unicode="{" horiz-adv-x="933" d="M115 494h45q68 0 90 -34t8 -108l-27 -145q-18 -106 5.5 -184t84 -130.5t154.5 -81t215 -36.5l33 186q-70 12 -114 31.5t-67.5 50.5t-26.5 76t7 108l10 62q14 84 12.5 140t-18 92t-49.5 55.5t-82 31.5q49 6 90 25.5t72 56.5t53.5 95.5t36.5 142.5l10 63q10 68 29 117 t51.5 82t84.5 49t130 18l33 187q-283 20 -426 -89.5t-184 -342.5l-27 -148q-6 -39 -15 -65.5t-25.5 -44t-42 -24.5t-64.5 -7h-45z" />
<glyph unicode="|" horiz-adv-x="583" d="M2 -379h256l356 2017h-256z" />
<glyph unicode="}" horiz-adv-x="933" d="M-29 -225q283 -20 426.5 89t184.5 343l26 147q14 76 42 109t106 33h45l41 229h-45q-68 0 -90.5 34t-8.5 107l27 146q18 106 -5.5 184t-84 130t-154.5 81t-215 37l-33 -187q70 -12 114 -31.5t67.5 -50t26.5 -75.5t-7 -109l-10 -61q-14 -86 -13 -142.5t18 -91t50 -54 t82 -32.5q-49 -6 -90 -24.5t-71.5 -55t-53 -95t-37.5 -144.5l-10 -64q-12 -70 -29.5 -119t-50.5 -80.5t-85 -48t-130 -18.5z" />
<glyph unicode="~" horiz-adv-x="1150" d="M106 651l152 -86q33 45 55.5 74t40 45t33.5 21.5t39 5.5q41 0 73.5 -24.5t71.5 -53.5q37 -29 83 -51.5t112 -22.5q104 0 190 84t166 225l-151 86q-33 -47 -55.5 -74.5t-40 -44t-35 -21.5t-37.5 -5q-41 0 -78 29.5t-84 60.5q-35 25 -78 43.5t-100 18.5q-104 0 -190.5 -84 t-166.5 -226z" />
<glyph unicode="&#xa1;" horiz-adv-x="696" d="M111 0h286l105 590l20 393h-192l-115 -393zM303 1282q0 -72 51.5 -123t122.5 -51q72 0 123 51t51 123t-51 123t-123 51t-123 -51t-51 -123z" />
<glyph unicode="&#xa2;" horiz-adv-x="1091" d="M106 643q0 -166 69 -279.5t192 -166.5l-39 -220h276l35 197q92 16 183 67.5t175 143.5l-153 172q-66 -66 -130.5 -96.5t-123.5 -30.5q-92 0 -143.5 64.5t-51.5 175.5q0 80 19.5 145.5t54.5 113.5t83 74.5t107 26.5q72 0 136.5 -48t95.5 -122l217 162q-37 94 -109.5 156.5 t-167.5 91.5l31 164h-276l-29 -156q-90 -20 -171 -72.5t-143.5 -133.5t-99.5 -189.5t-37 -239.5z" />
<glyph unicode="&#xa3;" horiz-adv-x="1363" d="M84 0h1061l43 246h-705q86 86 130 162.5t65 144.5h280l39 231h-305q-8 41 -20.5 77t-24.5 71q-10 31 -13 50t-3 48q0 66 42 108t148 42q111 0 212.5 -44t162.5 -110l201 199q-92 106 -235.5 168.5t-323.5 62.5q-129 0 -225.5 -28.5t-162 -79t-98.5 -121t-33 -154.5 q0 -37 5.5 -69.5t17.5 -75.5q10 -35 21.5 -70t21.5 -74h-164l-39 -231h197q-20 -70 -77.5 -145.5t-174.5 -174.5z" />
<glyph unicode="&#xa4;" horiz-adv-x="1298" d="M117 559q0 -135 35.5 -243.5t103.5 -183.5t166 -115t223 -40q174 0 310.5 81t238.5 212l-225 164q-66 -82 -138.5 -134t-162.5 -52q-109 0 -172.5 56t-81.5 165h409l35 188h-448q2 29 6 58.5t8 58.5h453l34 189h-428q47 100 124 161.5t181 61.5q109 0 167.5 -65.5 t82.5 -166.5l277 105q-23 92 -63 164.5t-99 125t-142 80t-194 27.5q-164 0 -294 -74.5t-220 -199.5t-138 -287t-48 -336z" />
<glyph unicode="&#xa5;" horiz-adv-x="1392" d="M172 215h330l-39 -215h274l39 215h330l43 242h-330l17 100l669 877h-338l-249 -340q-25 -33 -51.5 -73t-53.5 -80t-48.5 -73.5t-33.5 -54.5q-4 20 -14 55t-23.5 74t-28 79t-26.5 73l-119 340h-317l358 -883l-16 -94h-330z" />
<glyph unicode="&#xa6;" d="M41 717l346 -271q16 -10 31.5 -9t23.5 5q39 25 25 72l-41 94h285v-254l-95 39q-47 14 -71 -22q-4 -8 -5 -24.5t9 -33.5l270 -344l264 344q12 18 11.5 33.5t-4.5 24.5q-23 37 -68 22l-98 -39v254h288l-41 -92q-12 -51 25 -74q8 -4 23.5 -5t33.5 9l344 271l-344 264 q-20 12 -34.5 11t-22.5 -5q-23 -12 -27 -28.5t2 -38.5l41 -99h-288v258l98 -39q45 -14 68 23q4 8 5 23.5t-12 33.5l-264 344l-270 -344q-10 -16 -9 -32.5t5 -24.5q27 -39 71 -23l95 39v-258h-285l41 99q6 23 2 39t-27 28q-8 4 -22 5t-33 -11z" />
<glyph unicode="&#xa7;" horiz-adv-x="1425" d="M123 584q0 -66 19.5 -117t60.5 -96t107.5 -85t160.5 -81q102 -43 162.5 -73t92.5 -50.5t41 -37.5t9 -36q0 -37 -29.5 -63.5t-101.5 -26.5q-106 0 -183 34t-138 87l-177 -184q86 -86 197 -129t266 -43q111 0 193 27.5t136 76.5t81 116.5t27 147.5q0 61 -25 115 q68 31 122 66.5t92 82.5t59.5 105.5t21.5 134.5q0 63 -19.5 115.5t-60.5 97.5t-107.5 85t-160.5 81q-102 43 -163 72.5t-92.5 50t-40.5 38t-9 35.5q0 37 29.5 64t101.5 27q106 0 183 -34t138 -87l176 184q-86 86 -196.5 129t-266.5 43q-111 0 -192.5 -27.5t-136 -76.5 t-81 -117t-26.5 -148q0 -63 25 -114q-133 -59 -214 -149.5t-81 -239.5zM399 633q0 68 46.5 111.5t132.5 72.5q29 -16 60.5 -32.5t68.5 -32.5q106 -49 172.5 -82t101.5 -59.5t47 -51t12 -53.5q0 -68 -46 -111.5t-132 -72.5q-29 16 -60.5 32.5t-68.5 32.5q-109 49 -174 82 t-100 59.5t-47.5 51t-12.5 53.5z" />
<glyph unicode="&#xa8;" horiz-adv-x="1024" d="M276 1376q0 -63 47.5 -110t112.5 -47q66 0 113 47t47 110q0 33 -13.5 62.5t-35 51t-50 34t-61.5 12.5t-61.5 -12.5t-50 -34t-35 -51t-13.5 -62.5zM719 1376q0 -31 13 -59.5t34.5 -50t51.5 -34.5t63 -13q63 0 110 47t47 110q0 33 -13 62.5t-34.5 51t-50.5 34t-59 12.5 q-66 0 -114 -47t-48 -113z" />
<glyph unicode="&#xa9;" horiz-adv-x="1712" d="M137 717q0 -158 56.5 -293t156 -234.5t234.5 -156t293 -56.5t293 56.5t234 156t155.5 234.5t56.5 293t-56.5 293t-155.5 234t-234.5 155.5t-292.5 56.5q-158 0 -293 -56.5t-234.5 -155.5t-156 -234.5t-56.5 -292.5zM268 717q0 129 46 240.5t128 193.5t194 128t241 46 t240.5 -46t193.5 -128t128 -193.5t46 -240.5t-46 -240.5t-128 -193.5t-193.5 -128t-240.5 -46t-241 46t-194 128t-128 193.5t-46 240.5zM532 721q0 -96 26 -173t72 -130t110.5 -83t144.5 -30q109 0 175 48t118 136l-144 99q-33 -51 -66.5 -78t-78.5 -27q-78 0 -121 61.5 t-43 176.5q0 117 42 178.5t120 61.5q47 0 78.5 -24t56.5 -67l162 91q-39 78 -109.5 128t-185.5 50q-78 0 -143.5 -31t-112.5 -86t-74 -132t-27 -169z" />
<glyph unicode="&#xaa;" horiz-adv-x="968" d="M152 815q0 -117 75.5 -191.5t208.5 -74.5q59 0 110.5 23.5t88.5 56.5l-12 -64h223l104 586q6 32 6 63q0 125 -96 183.5t-262 58.5q-92 0 -165 -23.5t-116 -41.5l58 -164q41 16 89 29.5t101 13.5q86 0 125 -23.5t39 -64.5q0 -16 -2 -27l-8 -43q-29 12 -84 23.5t-115 11.5 q-86 0 -154.5 -24.5t-116.5 -69.5t-72.5 -105.5t-24.5 -132.5zM381 846q0 53 35 88t104 35q59 0 99 -10.5t69 -24.5l-20 -113q-25 -31 -66 -57.5t-98 -26.5q-63 0 -93 31t-30 78z" />
<glyph unicode="&#xab;" horiz-adv-x="1286" d="M61 537l240 -537h293l-229 539l417 536h-293zM578 537l239 -537h293l-229 539l417 536h-292z" />
<glyph unicode="&#xac;" horiz-adv-x="1331" d="M92 575h711l-29 -96q-10 -31 -3 -50t30 -36q10 -8 30.5 -9t42.5 13l416 314l-416 307q-23 16 -43 15t-30 -9q-43 -29 -27 -82l29 -100h-711v-267z" />
<glyph unicode="&#xad;" horiz-adv-x="833" d="M135 602h588l49 283h-588z" />
<glyph unicode="&#xae;" horiz-adv-x="1712" d="M137 717q0 -158 56.5 -293t156 -234.5t234.5 -156t293 -56.5t293 56.5t234 156t155.5 234.5t56.5 293t-56.5 293t-155.5 234t-234.5 155.5t-292.5 56.5q-158 0 -293 -56.5t-234.5 -155.5t-156 -234.5t-56.5 -292.5zM268 717q0 129 46 240.5t128 193.5t194 128t241 46 t240.5 -46t193.5 -128t128 -193.5t46 -240.5t-46 -240.5t-128 -193.5t-193.5 -128t-240.5 -46t-241 46t-194 128t-128 193.5t-46 240.5zM578 328h170v295h139l145 -295h193l-156 317q66 25 113 78.5t47 157.5q0 129 -80 191.5t-197 62.5h-374v-807zM748 772v207h192 q53 0 84 -24.5t31 -77.5q0 -104 -115 -105h-192z" />
<glyph unicode="&#xaf;" horiz-adv-x="1024" d="M342 1249h594l37 215h-594z" />
<glyph unicode="&#xb0;" horiz-adv-x="995" d="M176 1053q0 -86 32 -161t86 -130t128 -86t160 -31t159.5 31t129 86t86 130t30.5 161q0 84 -30.5 157.5t-86 128t-129 86t-159.5 31.5t-160 -31.5t-128 -86t-86 -128t-32 -157.5zM391 1053q0 39 14.5 73.5t41 60t60.5 41t75 15.5t75.5 -15.5t60 -41t40 -60t14.5 -73.5 q0 -84 -54 -139.5t-136 -55.5q-80 0 -135.5 55.5t-55.5 139.5z" />
<glyph unicode="&#xb1;" d="M41 717l346 -271q16 -10 31.5 -9t23.5 5q39 25 25 72l-41 94h285v-254l-95 39q-47 14 -71 -22q-4 -8 -5 -24.5t9 -33.5l270 -344l264 344q12 18 11.5 33.5t-4.5 24.5q-23 37 -68 22l-98 -39v254h288l-41 -92q-12 -51 25 -74q8 -4 23.5 -5t33.5 9l344 271l-344 264 q-20 12 -34.5 11t-22.5 -5q-23 -12 -27 -28.5t2 -38.5l41 -99h-288v258l98 -39q45 -14 68 23q4 8 5 23.5t-12 33.5l-264 344l-270 -344q-10 -16 -9 -32.5t5 -24.5q27 -39 71 -23l95 39v-258h-285l41 99q6 23 2 39t-27 28q-8 4 -22 5t-33 -11z" />
<glyph unicode="&#xb2;" d="M41 717l346 -271q16 -10 31.5 -9t23.5 5q39 25 25 72l-41 94h285v-254l-95 39q-47 14 -71 -22q-4 -8 -5 -24.5t9 -33.5l270 -344l264 344q12 18 11.5 33.5t-4.5 24.5q-23 37 -68 22l-98 -39v254h288l-41 -92q-12 -51 25 -74q8 -4 23.5 -5t33.5 9l344 271l-344 264 q-20 12 -34.5 11t-22.5 -5q-23 -12 -27 -28.5t2 -38.5l41 -99h-288v258l98 -39q45 -14 68 23q4 8 5 23.5t-12 33.5l-264 344l-270 -344q-10 -16 -9 -32.5t5 -24.5q27 -39 71 -23l95 39v-258h-285l41 99q6 23 2 39t-27 28q-8 4 -22 5t-33 -11z" />
<glyph unicode="&#xb3;" d="M41 717l346 -271q16 -10 31.5 -9t23.5 5q39 25 25 72l-41 94h285v-254l-95 39q-47 14 -71 -22q-4 -8 -5 -24.5t9 -33.5l270 -344l264 344q12 18 11.5 33.5t-4.5 24.5q-23 37 -68 22l-98 -39v254h288l-41 -92q-12 -51 25 -74q8 -4 23.5 -5t33.5 9l344 271l-344 264 q-20 12 -34.5 11t-22.5 -5q-23 -12 -27 -28.5t2 -38.5l41 -99h-288v258l98 -39q45 -14 68 23q4 8 5 23.5t-12 33.5l-264 344l-270 -344q-10 -16 -9 -32.5t5 -24.5q27 -39 71 -23l95 39v-258h-285l41 99q6 23 2 39t-27 28q-8 4 -22 5t-33 -11z" />
<glyph unicode="&#xb4;" horiz-adv-x="1024" d="M403 1219h240l354 327h-358z" />
<glyph unicode="&#xb6;" horiz-adv-x="1474" d="M168 932q0 -92 32.5 -165t93 -125t144.5 -79.5t189 -27.5h65l-160 -914h234l281 1596h131l-281 -1596h233l320 1813h-758q-123 0 -220 -38t-164.5 -105.5t-103.5 -160t-36 -198.5z" />
<glyph unicode="&#xb7;" horiz-adv-x="557" d="M121 752q0 -39 15.5 -74t42 -61.5t61 -42t73.5 -15.5t74 15.5t61.5 42t42 61.5t15.5 74t-15.5 73.5t-42 61t-61.5 42t-74 15.5t-73.5 -15.5t-61 -42t-42 -61t-15.5 -73.5z" />
<glyph unicode="&#xb8;" horiz-adv-x="1024" d="M109 -299q43 -35 119.5 -65.5t172.5 -30.5q111 0 175.5 51t64.5 143q0 63 -41 96t-100 33q-25 0 -43.5 -5t-34.5 -9l63 162h-114l-97 -232l70 -28q29 14 53 14q66 0 66 -53q0 -35 -28.5 -52.5t-74.5 -17.5q-53 0 -103 19.5t-91 48.5z" />
<glyph unicode="&#xb9;" d="M41 717l346 -271q16 -10 31.5 -9t23.5 5q39 25 25 72l-41 94h285v-254l-95 39q-47 14 -71 -22q-4 -8 -5 -24.5t9 -33.5l270 -344l264 344q12 18 11.5 33.5t-4.5 24.5q-23 37 -68 22l-98 -39v254h288l-41 -92q-12 -51 25 -74q8 -4 23.5 -5t33.5 9l344 271l-344 264 q-20 12 -34.5 11t-22.5 -5q-23 -12 -27 -28.5t2 -38.5l41 -99h-288v258l98 -39q45 -14 68 23q4 8 5 23.5t-12 33.5l-264 344l-270 -344q-10 -16 -9 -32.5t5 -24.5q27 -39 71 -23l95 39v-258h-285l41 99q6 23 2 39t-27 28q-8 4 -22 5t-33 -11z" />
<glyph unicode="&#xba;" horiz-adv-x="997" d="M182 922q0 -92 28 -163t75 -117t110.5 -69.5t134.5 -23.5q100 0 183.5 46t141.5 121t91 171t33 196q0 92 -27.5 163t-75 117t-111 69.5t-134.5 23.5q-100 0 -183 -46t-141.5 -122t-91.5 -171t-33 -195zM414 936q0 51 11 104.5t35.5 96.5t62.5 70.5t89 27.5q61 0 98.5 -40 t37.5 -126q0 -51 -11.5 -104.5t-36 -96.5t-62.5 -70.5t-89 -27.5q-61 0 -98 40t-37 126z" />
<glyph unicode="&#xbb;" horiz-adv-x="1286" d="M-12 0h293l428 539l-240 536h-293l230 -538zM504 0h293l428 539l-240 536h-293l230 -538z" />
<glyph unicode="&#xbc;" d="M41 717l346 -271q16 -10 31.5 -9t23.5 5q39 25 25 72l-41 94h285v-254l-95 39q-47 14 -71 -22q-4 -8 -5 -24.5t9 -33.5l270 -344l264 344q12 18 11.5 33.5t-4.5 24.5q-23 37 -68 22l-98 -39v254h288l-41 -92q-12 -51 25 -74q8 -4 23.5 -5t33.5 9l344 271l-344 264 q-20 12 -34.5 11t-22.5 -5q-23 -12 -27 -28.5t2 -38.5l41 -99h-288v258l98 -39q45 -14 68 23q4 8 5 23.5t-12 33.5l-264 344l-270 -344q-10 -16 -9 -32.5t5 -24.5q27 -39 71 -23l95 39v-258h-285l41 99q6 23 2 39t-27 28q-8 4 -22 5t-33 -11z" />
<glyph unicode="&#xbd;" d="M41 717l346 -271q16 -10 31.5 -9t23.5 5q39 25 25 72l-41 94h285v-254l-95 39q-47 14 -71 -22q-4 -8 -5 -24.5t9 -33.5l270 -344l264 344q12 18 11.5 33.5t-4.5 24.5q-23 37 -68 22l-98 -39v254h288l-41 -92q-12 -51 25 -74q8 -4 23.5 -5t33.5 9l344 271l-344 264 q-20 12 -34.5 11t-22.5 -5q-23 -12 -27 -28.5t2 -38.5l41 -99h-288v258l98 -39q45 -14 68 23q4 8 5 23.5t-12 33.5l-264 344l-270 -344q-10 -16 -9 -32.5t5 -24.5q27 -39 71 -23l95 39v-258h-285l41 99q6 23 2 39t-27 28q-8 4 -22 5t-33 -11z" />
<glyph unicode="&#xbe;" d="M41 717l346 -271q16 -10 31.5 -9t23.5 5q39 25 25 72l-41 94h285v-254l-95 39q-47 14 -71 -22q-4 -8 -5 -24.5t9 -33.5l270 -344l264 344q12 18 11.5 33.5t-4.5 24.5q-23 37 -68 22l-98 -39v254h288l-41 -92q-12 -51 25 -74q8 -4 23.5 -5t33.5 9l344 271l-344 264 q-20 12 -34.5 11t-22.5 -5q-23 -12 -27 -28.5t2 -38.5l41 -99h-288v258l98 -39q45 -14 68 23q4 8 5 23.5t-12 33.5l-264 344l-270 -344q-10 -16 -9 -32.5t5 -24.5q27 -39 71 -23l95 39v-258h-285l41 99q6 23 2 39t-27 28q-8 4 -22 5t-33 -11z" />
<glyph unicode="&#xbf;" horiz-adv-x="1187" d="M45 344q0 -74 27.5 -139.5t86 -116.5t145.5 -81t208 -30q160 0 304.5 52.5t268.5 152.5l-145 226q-96 -78 -199.5 -114t-195.5 -36q-98 0 -151.5 40t-53.5 103q0 68 49 109t154 82q74 29 128 59.5t93 74.5t61.5 105.5t32.5 151.5h-280q-12 -78 -59.5 -121t-143.5 -84 q-90 -37 -152.5 -79t-101.5 -93t-57.5 -115.5t-18.5 -146.5zM596 1282q0 -72 51 -123t123 -51t123 51t51 123t-51 123t-123 51t-123 -51t-51 -123z" />
<glyph unicode="&#xc0;" horiz-adv-x="1527" d="M-10 0h317l168 319h518l56 -319h305l-289 1434h-279zM594 1853l240 -327h239l-121 327h-358zM618 592l138 260q35 66 64.5 124t45.5 99q4 -41 13.5 -100.5t19.5 -122.5l45 -260h-326z" />
<glyph unicode="&#xc1;" horiz-adv-x="1527" d="M-10 0h317l168 319h518l56 -319h305l-289 1434h-279zM618 592l138 260q35 66 64.5 124t45.5 99q4 -41 13.5 -100.5t19.5 -122.5l45 -260h-326zM803 1526h239l355 327h-359z" />
<glyph unicode="&#xc2;" horiz-adv-x="1527" d="M-10 0h317l168 319h518l56 -319h305l-289 1434h-279zM524 1526h195l231 153l178 -153h183l-193 327h-287zM618 592l138 260q35 66 64.5 124t45.5 99q4 -41 13.5 -100.5t19.5 -122.5l45 -260h-326z" />
<glyph unicode="&#xc3;" horiz-adv-x="1527" d="M-10 0h317l168 319h518l56 -319h305l-289 1434h-279zM537 1526h184q18 53 36.5 75.5t45.5 22.5q31 0 62.5 -15.5t66.5 -35.5q37 -20 81 -36.5t97 -16.5q104 0 180 79t101 216h-185q-20 -53 -37.5 -76t-46.5 -23q-33 0 -64.5 16.5t-70.5 36.5q-35 20 -77 36t-95 16 q-104 0 -180 -79t-98 -216zM618 592l138 260q35 66 64.5 124t45.5 99q4 -41 13.5 -100.5t19.5 -122.5l45 -260h-326z" />
<glyph unicode="&#xc4;" horiz-adv-x="1527" d="M-10 0h317l168 319h518l56 -319h305l-289 1434h-279zM575 1683q0 -63 47.5 -110t112.5 -47q66 0 113 47t47 110q0 33 -13.5 63t-35 51.5t-50 33.5t-61.5 12t-61.5 -12t-50 -33.5t-35 -51.5t-13.5 -63zM618 592l138 260q35 66 64.5 124t45.5 99q4 -41 13.5 -100.5 t19.5 -122.5l45 -260h-326zM1018 1683q0 -31 13 -59.5t34.5 -50t51.5 -34.5t63 -13q63 0 110 47t47 110q0 33 -13 63t-34.5 51.5t-50.5 33.5t-59 12q-66 0 -114 -47t-48 -113z" />
<glyph unicode="&#xc5;" horiz-adv-x="1527" d="M-10 0h317l168 319h518l56 -319h305l-262 1298q55 35 87.5 94.5t32.5 133.5q0 59 -21.5 109.5t-58 87t-87 58t-109.5 21.5t-109.5 -21.5t-87.5 -58t-58.5 -87t-21.5 -109.5q0 -113 74 -191l-31 -57q-32 -57 -84.5 -150.5t-119 -213t-137 -245.5t-137 -246t-119 -214 t-83.5 -151zM618 592l138 260q35 66 64.5 124t45.5 99q4 -41 13.5 -100.5t19.5 -122.5l45 -260h-326zM815 1526q0 53 35 88t86 35t86 -35t35 -88t-35 -88t-86 -35t-86 35t-35 88z" />
<glyph unicode="&#xc6;" horiz-adv-x="2117" d="M-66 0h347l204 256h498l-45 -256h965l49 274h-690l61 357h363l49 270h-363l45 258h660l47 275h-998zM688 508l230 287q25 31 55.5 68.5t59 75.5t55 71.5t42.5 58.5q-4 -23 -11 -59.5t-15 -79.5t-16.5 -86t-14.5 -74l-45 -262h-340z" />
<glyph unicode="&#xc7;" horiz-adv-x="1363" d="M121 567q0 -137 36 -239.5t96 -173t139 -111.5t167 -55l-59 -144l69 -28q29 14 54 14q66 0 65 -53q0 -35 -28.5 -52.5t-73.5 -17.5q-53 0 -103.5 19.5t-91.5 48.5l-57 -74q43 -35 119.5 -65.5t173.5 -30.5q111 0 175 51t64 143q0 63 -41 96t-100 33q-25 0 -43 -5t-35 -9 l25 63q172 0 301 73t244 226l-230 166q-66 -88 -132.5 -134t-152.5 -46q-123 0 -202.5 85t-79.5 261q0 111 28.5 213.5t80 180t123 125t157.5 47.5q111 0 171 -52.5t105 -136.5l279 143q-37 80 -83 140.5t-108.5 102.5t-144.5 63.5t-188 21.5q-145 0 -276.5 -63.5 t-229.5 -179t-155.5 -279.5t-57.5 -367z" />
<glyph unicode="&#xc8;" horiz-adv-x="1323" d="M90 0h1018l49 281h-731l61 346h404l49 278h-403l43 248h700l49 281h-987zM510 1853l240 -327h239l-121 327h-358z" />
<glyph unicode="&#xc9;" horiz-adv-x="1323" d="M90 0h1018l49 281h-731l61 346h404l49 278h-403l43 248h700l49 281h-987zM688 1526h240l354 327h-358z" />
<glyph unicode="&#xca;" horiz-adv-x="1323" d="M90 0h1018l49 281h-731l61 346h404l49 278h-403l43 248h700l49 281h-987zM446 1526h195l231 153l179 -153h182l-193 327h-286z" />
<glyph unicode="&#xcb;" horiz-adv-x="1323" d="M90 0h1018l49 281h-731l61 346h404l49 278h-403l43 248h700l49 281h-987zM483 1683q0 -63 47.5 -110t112.5 -47q66 0 113 47t47 110q0 33 -13.5 63t-35 51.5t-50 33.5t-61.5 12t-61.5 -12t-50 -33.5t-35 -51.5t-13.5 -63zM926 1683q0 -31 13 -59.5t34.5 -50t51.5 -34.5 t62 -13q63 0 110.5 47t47.5 110q0 33 -13 63t-34.5 51.5t-50.5 33.5t-60 12q-66 0 -113.5 -47t-47.5 -113z" />
<glyph unicode="&#xcc;" horiz-adv-x="696" d="M109 0h286l254 1434h-287zM160 1853l239 -327h240l-121 327h-358z" />
<glyph unicode="&#xcd;" horiz-adv-x="696" d="M109 0h286l254 1434h-287zM395 1526h240l354 327h-358z" />
<glyph unicode="&#xce;" horiz-adv-x="696" d="M109 0h286l254 1434h-287zM117 1505h194l232 154l178 -154h182l-192 328h-287z" />
<glyph unicode="&#xcf;" horiz-adv-x="696" d="M109 0h286l254 1434h-287zM154 1673q0 -63 47 -110t112 -47q66 0 113 47t47 110q0 33 -13.5 62.5t-35 51t-50 34t-61.5 12.5t-61.5 -12.5t-50 -34t-34.5 -51t-13 -62.5zM596 1673q0 -31 13.5 -59.5t35 -50t51 -34.5t62.5 -13q63 0 110 47t47 110q0 33 -13 62.5t-34.5 51 t-50.5 34t-59 12.5q-66 0 -114 -47t-48 -113z" />
<glyph unicode="&#xd0;" horiz-adv-x="1470" d="M98 631h133l-112 -631h491q115 0 240 31.5t235.5 108.5t194.5 204t119 320q70 393 -108.5 581.5t-590.5 188.5h-327l-101 -568h-133zM446 279l62 352h186l41 235h-184l51 289h92q137 0 225.5 -32.5t135.5 -94t57 -148.5t-8 -198q-35 -199 -163 -301t-308 -102h-187z" />
<glyph unicode="&#xd1;" horiz-adv-x="1521" d="M90 0h283l114 659q6 31 13.5 76t14.5 91t13.5 86t10.5 61q10 -29 30.5 -75t40.5 -87l377 -811h256l252 1434h-283l-110 -635q-6 -31 -13.5 -76t-14.5 -91t-13 -86t-10 -61q-10 29 -26.5 75t-37.5 87l-371 787h-274zM537 1526h184q18 53 36.5 75.5t45.5 22.5 q31 0 62.5 -15.5t66.5 -35.5q37 -20 81 -36.5t97 -16.5q104 0 180 79t101 216h-185q-20 -53 -37.5 -76t-46.5 -23q-33 0 -64.5 16.5t-70.5 36.5q-35 20 -77 36t-95 16q-104 0 -180 -79t-98 -216z" />
<glyph unicode="&#xd2;" horiz-adv-x="1464" d="M121 567q0 -139 39 -247.5t112.5 -185.5t178 -117t237.5 -40q160 0 293 71t228.5 192.5t147.5 282.5t52 343q0 137 -39 247t-112.5 186.5t-179 116.5t-236.5 40q-160 0 -293 -70.5t-228.5 -192.5t-147.5 -283.5t-52 -342.5zM420 608q0 127 31.5 230.5t86 177.5t127 114.5 t156.5 40.5q61 0 113.5 -20.5t91.5 -63.5t61.5 -108.5t22.5 -153.5q0 -127 -31.5 -230t-86 -177t-128 -115t-155.5 -41q-61 0 -113.5 20.5t-91.5 63.5t-61.5 107.5t-22.5 154.5zM563 1853l240 -327h239l-120 327h-359z" />
<glyph unicode="&#xd3;" horiz-adv-x="1464" d="M121 567q0 -139 39 -247.5t112.5 -185.5t178 -117t237.5 -40q160 0 293 71t228.5 192.5t147.5 282.5t52 343q0 137 -39 247t-112.5 186.5t-179 116.5t-236.5 40q-160 0 -293 -70.5t-228.5 -192.5t-147.5 -283.5t-52 -342.5zM420 608q0 127 31.5 230.5t86 177.5t127 114.5 t156.5 40.5q61 0 113.5 -20.5t91.5 -63.5t61.5 -108.5t22.5 -153.5q0 -127 -31.5 -230t-86 -177t-128 -115t-155.5 -41q-61 0 -113.5 20.5t-91.5 63.5t-61.5 107.5t-22.5 154.5zM727 1526h240l354 327h-358z" />
<glyph unicode="&#xd4;" horiz-adv-x="1464" d="M121 567q0 -139 39 -247.5t112.5 -185.5t178 -117t237.5 -40q160 0 293 71t228.5 192.5t147.5 282.5t52 343q0 137 -39 247t-112.5 186.5t-179 116.5t-236.5 40q-160 0 -293 -70.5t-228.5 -192.5t-147.5 -283.5t-52 -342.5zM420 608q0 127 31.5 230.5t86 177.5t127 114.5 t156.5 40.5q61 0 113.5 -20.5t91.5 -63.5t61.5 -108.5t22.5 -153.5q0 -127 -31.5 -230t-86 -177t-128 -115t-155.5 -41q-61 0 -113.5 20.5t-91.5 63.5t-61.5 107.5t-22.5 154.5zM500 1516h194l232 153l178 -153h182l-192 327h-287z" />
<glyph unicode="&#xd5;" horiz-adv-x="1464" d="M121 567q0 -139 39 -247.5t112.5 -185.5t178 -117t237.5 -40q160 0 293 71t228.5 192.5t147.5 282.5t52 343q0 137 -39 247t-112.5 186.5t-179 116.5t-236.5 40q-160 0 -293 -70.5t-228.5 -192.5t-147.5 -283.5t-52 -342.5zM420 608q0 127 31.5 230.5t86 177.5t127 114.5 t156.5 40.5q61 0 113.5 -20.5t91.5 -63.5t61.5 -108.5t22.5 -153.5q0 -127 -31.5 -230t-86 -177t-128 -115t-155.5 -41q-61 0 -113.5 20.5t-91.5 63.5t-61.5 107.5t-22.5 154.5zM498 1526h184q18 53 36.5 75.5t45.5 22.5q31 0 62.5 -15.5t66.5 -35.5q37 -20 81 -36.5 t97 -16.5q104 0 180 79t101 216h-185q-20 -53 -37.5 -76t-46.5 -23q-33 0 -64.5 16.5t-70.5 36.5q-35 20 -77 36t-95 16q-104 0 -180 -79t-98 -216z" />
<glyph unicode="&#xd6;" horiz-adv-x="1464" d="M121 567q0 -139 39 -247.5t112.5 -185.5t178 -117t237.5 -40q160 0 293 71t228.5 192.5t147.5 282.5t52 343q0 137 -39 247t-112.5 186.5t-179 116.5t-236.5 40q-160 0 -293 -70.5t-228.5 -192.5t-147.5 -283.5t-52 -342.5zM420 608q0 127 31.5 230.5t86 177.5t127 114.5 t156.5 40.5q61 0 113.5 -20.5t91.5 -63.5t61.5 -108.5t22.5 -153.5q0 -127 -31.5 -230t-86 -177t-128 -115t-155.5 -41q-61 0 -113.5 20.5t-91.5 63.5t-61.5 107.5t-22.5 154.5zM537 1683q0 -63 47 -110t112 -47q66 0 113 47t47 110q0 33 -13.5 63t-35 51.5t-50 33.5 t-61.5 12t-61.5 -12t-50 -33.5t-34.5 -51.5t-13 -63zM979 1683q0 -31 13.5 -59.5t35 -50t51 -34.5t62.5 -13q63 0 110 47t47 110q0 33 -13 63t-34.5 51.5t-50.5 33.5t-59 12q-66 0 -114 -47t-48 -113z" />
<glyph unicode="&#xd7;" d="M41 717l346 -271q16 -10 31.5 -9t23.5 5q39 25 25 72l-41 94h285v-254l-95 39q-47 14 -71 -22q-4 -8 -5 -24.5t9 -33.5l270 -344l264 344q12 18 11.5 33.5t-4.5 24.5q-23 37 -68 22l-98 -39v254h288l-41 -92q-12 -51 25 -74q8 -4 23.5 -5t33.5 9l344 271l-344 264 q-20 12 -34.5 11t-22.5 -5q-23 -12 -27 -28.5t2 -38.5l41 -99h-288v258l98 -39q45 -14 68 23q4 8 5 23.5t-12 33.5l-264 344l-270 -344q-10 -16 -9 -32.5t5 -24.5q27 -39 71 -23l95 39v-258h-285l41 99q6 23 2 39t-27 28q-8 4 -22 5t-33 -11z" />
<glyph unicode="&#xd8;" horiz-adv-x="1464" d="M80 -102h270l84 127q113 -47 254 -48q160 0 293 71t228.5 192.5t147.5 282.5t52 343q0 131 -36 236.5t-101 181.5l168 252h-271l-82 -123q-109 43 -245 43q-160 0 -293 -70.5t-228.5 -192.5t-147.5 -283.5t-52 -342.5q0 -129 34 -231t97 -180zM416 608q0 127 31.5 232.5 t87 182.5t129 119t157.5 42q53 0 103 -19l-482 -723q-27 76 -26 166zM598 270l485 731q31 -74 31 -176q0 -127 -32.5 -232.5t-88 -182t-129 -118.5t-155.5 -42q-61 0 -111 20z" />
<glyph unicode="&#xd9;" horiz-adv-x="1501" d="M180 471q0 -127 38 -220t107.5 -153.5t164 -90.5t208.5 -30q143 0 252 40t185.5 118t126 192.5t75.5 266.5l148 840h-287l-145 -836q-33 -182 -114 -261t-206 -79q-262 0 -262 248q0 53 5 101t11 85l131 742h-286l-135 -772q-8 -43 -12.5 -98.5t-4.5 -92.5zM594 1823 l240 -328h239l-121 328h-358z" />
<glyph unicode="&#xda;" horiz-adv-x="1501" d="M180 471q0 -127 38 -220t107.5 -153.5t164 -90.5t208.5 -30q143 0 252 40t185.5 118t126 192.5t75.5 266.5l148 840h-287l-145 -836q-33 -182 -114 -261t-206 -79q-262 0 -262 248q0 53 5 101t11 85l131 742h-286l-135 -772q-8 -43 -12.5 -98.5t-4.5 -92.5zM758 1495h239 l355 328h-359z" />
<glyph unicode="&#xdb;" horiz-adv-x="1501" d="M180 471q0 -127 38 -220t107.5 -153.5t164 -90.5t208.5 -30q143 0 252 40t185.5 118t126 192.5t75.5 266.5l148 840h-287l-145 -836q-33 -182 -114 -261t-206 -79q-262 0 -262 248q0 53 5 101t11 85l131 742h-286l-135 -772q-8 -43 -12.5 -98.5t-4.5 -92.5zM510 1526h195 l231 153l178 -153h182l-192 327h-287z" />
<glyph unicode="&#xdc;" horiz-adv-x="1501" d="M180 471q0 -127 38 -220t107.5 -153.5t164 -90.5t208.5 -30q143 0 252 40t185.5 118t126 192.5t75.5 266.5l148 840h-287l-145 -836q-33 -182 -114 -261t-206 -79q-262 0 -262 248q0 53 5 101t11 85l131 742h-286l-135 -772q-8 -43 -12.5 -98.5t-4.5 -92.5zM565 1683 q0 -63 47 -110t113 -47t113 47t47 110q0 33 -13.5 63t-35 51.5t-50 33.5t-61.5 12t-61.5 -12t-50 -33.5t-35 -51.5t-13.5 -63zM1008 1683q0 -31 13 -59.5t34.5 -50t51.5 -34.5t62 -13q63 0 110.5 47t47.5 110q0 33 -13.5 63t-35 51.5t-50 33.5t-59.5 12q-66 0 -113.5 -47 t-47.5 -113z" />
<glyph unicode="&#xdd;" horiz-adv-x="1454" d="M203 1434l385 -873l-99 -561h287l101 567l690 867h-332l-264 -340q-29 -35 -59.5 -78t-58.5 -84t-51.5 -75t-35.5 -52q-6 20 -19.5 55t-29 77t-32.5 83t-30 74l-141 340h-311zM733 1505h240l354 328h-358z" />
<glyph unicode="&#xde;" horiz-adv-x="1384" d="M90 0h287l51 287h332q285 0 435.5 141t150.5 395q0 184 -125 286.5t-365 102.5h-264l39 222h-287zM477 565l66 369h297q115 0 159.5 -44t44.5 -112q0 -98 -61 -155.5t-172 -57.5h-334z" />
<glyph unicode="&#xdf;" horiz-adv-x="1191" d="M-27 -395l308 141l229 1307q14 80 50 125t110 45q66 0 102.5 -32t36.5 -91q0 -86 -45 -129t-111 -43h-10l-43 -246h12q98 0 150.5 -46t52.5 -140q0 -117 -60.5 -177.5t-168.5 -60.5q-14 0 -28.5 1t-31.5 3l-45 -252q33 -4 65 -6t64 -2q106 0 196.5 30.5t157 90 t103.5 147.5t37 203q0 76 -16.5 130t-48 93t-78 65.5t-103.5 47.5q49 14 94 41t79 67.5t54.5 98t20.5 133.5q0 152 -105.5 245t-312.5 93q-90 0 -166 -22.5t-134 -74t-98 -131t-61 -192.5z" />
<glyph unicode="&#xe0;" horiz-adv-x="1130" d="M47 311q0 -88 29.5 -150.5t80 -103.5t116 -60.5t137.5 -19.5q76 0 133 28t98 67l-14 -72h282l121 688q4 25 6 46t2 44q0 84 -31.5 144.5t-90 99.5t-138.5 57.5t-174 18.5q-102 0 -199.5 -27t-154.5 -61l74 -201q47 23 111.5 39t131.5 16q102 0 144.5 -27.5t42.5 -84.5 v-17q0 -8 -2 -18l-7 -43q-14 8 -41.5 15t-62.5 13.5t-74 10.5t-75 4q-102 0 -184.5 -30t-139.5 -83t-89 -128t-32 -165zM336 342q0 66 41 110t127 44q70 0 119 -13.5t84 -31.5l-25 -136q-25 -35 -75 -66.5t-115 -31.5q-156 0 -156 125zM360 1546l240 -327h240l-121 327h-359 z" />
<glyph unicode="&#xe1;" horiz-adv-x="1130" d="M47 311q0 -88 29.5 -150.5t80 -103.5t116 -60.5t137.5 -19.5q76 0 133 28t98 67l-14 -72h282l121 688q4 25 6 46t2 44q0 84 -31.5 144.5t-90 99.5t-138.5 57.5t-174 18.5q-102 0 -199.5 -27t-154.5 -61l74 -201q47 23 111.5 39t131.5 16q102 0 144.5 -27.5t42.5 -84.5 v-17q0 -8 -2 -18l-7 -43q-14 8 -41.5 15t-62.5 13.5t-74 10.5t-75 4q-102 0 -184.5 -30t-139.5 -83t-89 -128t-32 -165zM336 342q0 66 41 110t127 44q70 0 119 -13.5t84 -31.5l-25 -136q-25 -35 -75 -66.5t-115 -31.5q-156 0 -156 125zM524 1219h240l354 327h-358z" />
<glyph unicode="&#xe2;" horiz-adv-x="1130" d="M47 311q0 -88 29.5 -150.5t80 -103.5t116 -60.5t137.5 -19.5q76 0 133 28t98 67l-14 -72h282l121 688q4 25 6 46t2 44q0 84 -31.5 144.5t-90 99.5t-138.5 57.5t-174 18.5q-102 0 -199.5 -27t-154.5 -61l74 -201q47 23 111.5 39t131.5 16q102 0 144.5 -27.5t42.5 -84.5 v-17q0 -8 -2 -18l-7 -43q-14 8 -41.5 15t-62.5 13.5t-74 10.5t-75 4q-102 0 -184.5 -30t-139.5 -83t-89 -128t-32 -165zM287 1208h194l232 154l178 -154h182l-192 328h-287zM336 342q0 66 41 110t127 44q70 0 119 -13.5t84 -31.5l-25 -136q-25 -35 -75 -66.5t-115 -31.5 q-156 0 -156 125z" />
<glyph unicode="&#xe3;" horiz-adv-x="1130" d="M47 311q0 -88 29.5 -150.5t80 -103.5t116 -60.5t137.5 -19.5q76 0 133 28t98 67l-14 -72h282l121 688q4 25 6 46t2 44q0 84 -31.5 144.5t-90 99.5t-138.5 57.5t-174 18.5q-102 0 -199.5 -27t-154.5 -61l74 -201q47 23 111.5 39t131.5 16q102 0 144.5 -27.5t42.5 -84.5 v-17q0 -8 -2 -18l-7 -43q-14 8 -41.5 15t-62.5 13.5t-74 10.5t-75 4q-102 0 -184.5 -30t-139.5 -83t-89 -128t-32 -165zM285 1219h184q18 53 36.5 75.5t45.5 22.5q31 0 62.5 -15.5t66.5 -35.5q37 -20 81 -37t97 -17q104 0 180 79t101 216h-185q-20 -53 -37.5 -75.5 t-46.5 -22.5q-33 0 -64.5 16.5t-70.5 36.5q-35 20 -77 35.5t-95 15.5q-104 0 -180 -78.5t-98 -215.5zM336 342q0 66 41 110t127 44q70 0 119 -13.5t84 -31.5l-25 -136q-25 -35 -75 -66.5t-115 -31.5q-156 0 -156 125z" />
<glyph unicode="&#xe4;" horiz-adv-x="1130" d="M47 311q0 -88 29.5 -150.5t80 -103.5t116 -60.5t137.5 -19.5q76 0 133 28t98 67l-14 -72h282l121 688q4 25 6 46t2 44q0 84 -31.5 144.5t-90 99.5t-138.5 57.5t-174 18.5q-102 0 -199.5 -27t-154.5 -61l74 -201q47 23 111.5 39t131.5 16q102 0 144.5 -27.5t42.5 -84.5 v-17q0 -8 -2 -18l-7 -43q-14 8 -41.5 15t-62.5 13.5t-74 10.5t-75 4q-102 0 -184.5 -30t-139.5 -83t-89 -128t-32 -165zM324 1366q0 -63 47 -110.5t112 -47.5q66 0 113 47.5t47 110.5q0 33 -13.5 62.5t-35 51t-50 34t-61.5 12.5t-61.5 -12.5t-50 -34t-34.5 -51t-13 -62.5z M336 342q0 66 41 110t127 44q70 0 119 -13.5t84 -31.5l-25 -136q-25 -35 -75 -66.5t-115 -31.5q-156 0 -156 125zM766 1366q0 -31 13.5 -59.5t35 -50t51 -35t62.5 -13.5q63 0 110 47.5t47 110.5q0 33 -13 62.5t-34.5 51t-50.5 34t-59 12.5q-66 0 -114 -47t-48 -113z" />
<glyph unicode="&#xe5;" horiz-adv-x="1130" d="M47 311q0 -88 29.5 -150.5t80 -103.5t116 -60.5t137.5 -19.5q76 0 133 28t98 67l-14 -72h282l121 688q4 25 6 46t2 44q0 84 -31.5 144.5t-90 99.5t-138.5 57.5t-174 18.5q-102 0 -199.5 -27t-154.5 -61l74 -201q47 23 111.5 39t131.5 16q102 0 144.5 -27.5t42.5 -84.5 v-17q0 -8 -2 -18l-7 -43q-14 8 -41.5 15t-62.5 13.5t-74 10.5t-75 4q-102 0 -184.5 -30t-139.5 -83t-89 -128t-32 -165zM336 342q0 66 41 110t127 44q70 0 119 -13.5t84 -31.5l-25 -136q-25 -35 -75 -66.5t-115 -31.5q-156 0 -156 125zM459 1491q0 -59 21.5 -109.5t58 -86 t87 -56t109.5 -20.5t109.5 20.5t87.5 56t58.5 86t21.5 109.5t-21.5 109.5t-58.5 87t-87 58t-110 21.5q-59 0 -109.5 -21.5t-87 -58t-58 -87t-21.5 -109.5zM614 1491q0 53 35 88t86 35t86 -35t35 -88t-35 -88t-86 -35t-86 35t-35 88z" />
<glyph unicode="&#xe6;" horiz-adv-x="1718" d="M47 311q0 -88 27.5 -150.5t78 -103.5t119 -60.5t150.5 -19.5q111 0 200 49.5t160 114.5q51 -72 143.5 -118t225.5 -46q92 0 185.5 33t191.5 109l-137 196q-104 -72 -213 -71q-39 0 -78 11t-70 34.5t-48 62.5t-11 94h639q16 57 24 110t8 106q0 90 -23.5 168.5t-70.5 138 t-121.5 94.5t-175.5 35q-92 0 -167.5 -33t-133.5 -92q-53 66 -136 95.5t-200 29.5q-123 0 -216 -30t-146 -56l74 -201q125 53 254 53q96 0 138 -32.5t42 -81.5q0 -14 -2 -23l-8 -53q-18 8 -47 16t-64 14.5t-73 9.5t-74 3q-102 0 -184.5 -30t-139.5 -83t-89 -128t-32 -165z M336 342q0 66 41 110t127 44q70 0 119 -13.5t84 -31.5l-25 -136q-25 -35 -75 -66.5t-115 -31.5q-156 0 -156 125zM1012 659q25 82 73 137.5t125 55.5q47 0 81 -15.5t53.5 -42t27.5 -61.5t4 -74h-364z" />
<glyph unicode="&#xe7;" horiz-adv-x="1091" d="M72 457q0 -193 95 -312.5t245 -154.5l-62 -146l70 -28q29 14 53 14q66 0 66 -53q0 -35 -29 -52.5t-74 -17.5q-53 0 -103 19.5t-91 48.5l-58 -74q43 -35 120 -65.5t173 -30.5q111 0 175.5 51t64.5 143q0 63 -41 96t-101 33q-25 0 -43 -5t-34 -9l24 63q117 0 223.5 47.5 t221.5 161.5l-160 187q-70 -61 -130.5 -92t-119.5 -31q-88 0 -142.5 59.5t-54.5 169.5q0 66 18.5 128.5t53.5 110.5t82 77.5t107 29.5q78 0 130 -45t103 -127l225 178q-31 57 -69.5 106.5t-91 84.5t-118 55.5t-149.5 20.5q-131 0 -238.5 -52.5t-183 -141.5t-116.5 -204.5 t-41 -242.5z" />
<glyph unicode="&#xe8;" horiz-adv-x="1093" d="M68 444q0 -109 31.5 -195.5t91 -147t142.5 -92.5t187 -32q98 0 191.5 33t191.5 109l-137 196q-104 -72 -215 -71q-37 0 -75 11t-68.5 34.5t-47 62.5t-10.5 94h635q16 55 24.5 109t8.5 107q0 90 -23.5 168.5t-70.5 138t-122 94.5t-175 35q-117 0 -219.5 -50.5t-177 -138.5 t-118.5 -207.5t-44 -257.5zM350 1546l240 -327h239l-120 327h-359zM387 659q25 82 73 137.5t126 55.5q47 0 80.5 -15.5t53 -42t28 -61.5t4.5 -74h-365z" />
<glyph unicode="&#xe9;" horiz-adv-x="1093" d="M68 444q0 -109 31.5 -195.5t91 -147t142.5 -92.5t187 -32q98 0 191.5 33t191.5 109l-137 196q-104 -72 -215 -71q-37 0 -75 11t-68.5 34.5t-47 62.5t-10.5 94h635q16 55 24.5 109t8.5 107q0 90 -23.5 168.5t-70.5 138t-122 94.5t-175 35q-117 0 -219.5 -50.5t-177 -138.5 t-118.5 -207.5t-44 -257.5zM387 659q25 82 73 137.5t126 55.5q47 0 80.5 -15.5t53 -42t28 -61.5t4.5 -74h-365zM514 1219h240l354 327h-358z" />
<glyph unicode="&#xea;" horiz-adv-x="1093" d="M68 444q0 -109 31.5 -195.5t91 -147t142.5 -92.5t187 -32q98 0 191.5 33t191.5 109l-137 196q-104 -72 -215 -71q-37 0 -75 11t-68.5 34.5t-47 62.5t-10.5 94h635q16 55 24.5 109t8.5 107q0 90 -23.5 168.5t-70.5 138t-122 94.5t-175 35q-117 0 -219.5 -50.5t-177 -138.5 t-118.5 -207.5t-44 -257.5zM276 1198h195l231 154l179 -154h182l-193 328h-286zM387 659q25 82 73 137.5t126 55.5q47 0 80.5 -15.5t53 -42t28 -61.5t4.5 -74h-365z" />
<glyph unicode="&#xeb;" horiz-adv-x="1093" d="M68 444q0 -109 31.5 -195.5t91 -147t142.5 -92.5t187 -32q98 0 191.5 33t191.5 109l-137 196q-104 -72 -215 -71q-37 0 -75 11t-68.5 34.5t-47 62.5t-10.5 94h635q16 55 24.5 109t8.5 107q0 90 -23.5 168.5t-70.5 138t-122 94.5t-175 35q-117 0 -219.5 -50.5t-177 -138.5 t-118.5 -207.5t-44 -257.5zM313 1366q0 -63 47.5 -110.5t112.5 -47.5q66 0 113 47.5t47 110.5q0 33 -13.5 62.5t-35 51t-50 34t-61.5 12.5t-61.5 -12.5t-50 -34t-35 -51t-13.5 -62.5zM387 659q25 82 73 137.5t126 55.5q47 0 80.5 -15.5t53 -42t28 -61.5t4.5 -74h-365z M756 1366q0 -31 13 -59.5t34.5 -50t51.5 -35t63 -13.5q63 0 110 47.5t47 110.5q0 33 -13 62.5t-34.5 51t-50.5 34t-59 12.5q-66 0 -114 -47t-48 -113z" />
<glyph unicode="&#xec;" horiz-adv-x="577" d="M53 0h283l188 1075h-282zM63 1546l240 -327h240l-121 327h-359z" />
<glyph unicode="&#xed;" horiz-adv-x="577" d="M53 0h283l188 1075h-282zM274 1219h240l354 327h-358z" />
<glyph unicode="&#xee;" horiz-adv-x="577" d="M-4 1188h194l232 153l178 -153h182l-192 328h-287zM53 0h283l188 1075h-282z" />
<glyph unicode="&#xef;" horiz-adv-x="577" d="M33 1356q0 -63 47 -110.5t113 -47.5t112.5 47.5t46.5 110.5q0 33 -13 62.5t-34.5 51t-50.5 34t-61 12.5q-33 0 -62 -12.5t-50.5 -34t-34.5 -51t-13 -62.5zM53 0h283l188 1075h-282zM475 1356q0 -31 13.5 -59.5t35 -50t51 -35t62.5 -13.5q63 0 110.5 47.5t47.5 110.5 q0 33 -13.5 62.5t-35 51t-50 34t-59.5 12.5q-66 0 -114 -47.5t-48 -112.5z" />
<glyph unicode="&#xf0;" horiz-adv-x="1128" d="M63 406q0 -92 30 -171t86.5 -135.5t137 -89.5t185.5 -33q102 0 204.5 43t184.5 137.5t133 246t51 370.5q0 57 -7 122t-25.5 128t-49 124.5t-78.5 115.5l91 75l-111 117l-107 -88q-59 37 -134.5 61.5t-174.5 34.5l-35 -194q98 -16 166 -51l-86 -72l111 -117l106 90 q47 -53 70 -111.5t27 -111.5q-43 37 -117 57.5t-150 20.5q-90 0 -180 -40t-162.5 -113.5t-119 -179t-46.5 -236.5zM342 414q0 68 17.5 125t48 99t75.5 65.5t101 23.5q94 0 138 -54t44 -136q0 -59 -16.5 -115.5t-47 -99.5t-75.5 -69t-101 -26q-98 0 -141 52.5t-43 134.5z" />
<glyph unicode="&#xf1;" horiz-adv-x="1187" d="M43 0h283l102 588q23 135 77 189t140 54q150 0 150 -155q0 -20 -2 -43t-7 -51l-102 -582h283l106 606q6 41 10 82t4 76q0 162 -83.5 248t-258.5 86q-84 0 -143 -28t-100 -66l12 71h-283zM299 1219h184q18 53 37 75.5t45 22.5q31 0 62.5 -15.5t66.5 -35.5q37 -20 81 -37 t97 -17q104 0 180 79t101 216h-184q-20 -53 -38 -75.5t-46 -22.5q-33 0 -65 16.5t-70 36.5q-35 20 -77 35.5t-95 15.5q-104 0 -180 -78.5t-99 -215.5z" />
<glyph unicode="&#xf2;" horiz-adv-x="1128" d="M72 440q0 -106 30.5 -192t86 -145.5t133 -92.5t172.5 -33q125 0 228 53.5t178 143.5t116 209t41 252q0 106 -31 192t-86 145.5t-133 92.5t-172 33q-125 0 -228.5 -53.5t-178 -143.5t-115.5 -210t-41 -251zM338 1546l240 -327h239l-121 327h-358zM362 459q0 86 19.5 154.5 t53.5 115.5t78 71.5t91 24.5q70 0 116 -54t46 -155q0 -86 -19.5 -154.5t-53.5 -115.5t-78 -71.5t-91 -24.5q-70 0 -116 54.5t-46 154.5z" />
<glyph unicode="&#xf3;" horiz-adv-x="1128" d="M72 440q0 -106 30.5 -192t86 -145.5t133 -92.5t172.5 -33q125 0 228 53.5t178 143.5t116 209t41 252q0 106 -31 192t-86 145.5t-133 92.5t-172 33q-125 0 -228.5 -53.5t-178 -143.5t-115.5 -210t-41 -251zM362 459q0 86 19.5 154.5t53.5 115.5t78 71.5t91 24.5 q70 0 116 -54t46 -155q0 -86 -19.5 -154.5t-53.5 -115.5t-78 -71.5t-91 -24.5q-70 0 -116 54.5t-46 154.5zM522 1219h240l354 327h-358z" />
<glyph unicode="&#xf4;" horiz-adv-x="1128" d="M72 440q0 -106 30.5 -192t86 -145.5t133 -92.5t172.5 -33q125 0 228 53.5t178 143.5t116 209t41 252q0 106 -31 192t-86 145.5t-133 92.5t-172 33q-125 0 -228.5 -53.5t-178 -143.5t-115.5 -210t-41 -251zM285 1198h194l232 154l178 -154h182l-192 328h-287zM362 459 q0 86 19.5 154.5t53.5 115.5t78 71.5t91 24.5q70 0 116 -54t46 -155q0 -86 -19.5 -154.5t-53.5 -115.5t-78 -71.5t-91 -24.5q-70 0 -116 54.5t-46 154.5z" />
<glyph unicode="&#xf5;" horiz-adv-x="1128" d="M72 440q0 -106 30.5 -192t86 -145.5t133 -92.5t172.5 -33q125 0 228 53.5t178 143.5t116 209t41 252q0 106 -31 192t-86 145.5t-133 92.5t-172 33q-125 0 -228.5 -53.5t-178 -143.5t-115.5 -210t-41 -251zM274 1219h185q18 53 36.5 75.5t45.5 22.5q31 0 62.5 -15.5 t66.5 -35.5q37 -20 81 -37t97 -17q104 0 179.5 79t100.5 216h-184q-20 -53 -37.5 -75.5t-46.5 -22.5q-33 0 -64.5 16.5t-70.5 36.5q-35 20 -77 35.5t-95 15.5q-104 0 -180 -78.5t-99 -215.5zM362 459q0 86 19.5 154.5t53.5 115.5t78 71.5t91 24.5q70 0 116 -54t46 -155 q0 -86 -19.5 -154.5t-53.5 -115.5t-78 -71.5t-91 -24.5q-70 0 -116 54.5t-46 154.5z" />
<glyph unicode="&#xf6;" horiz-adv-x="1128" d="M72 440q0 -106 30.5 -192t86 -145.5t133 -92.5t172.5 -33q125 0 228 53.5t178 143.5t116 209t41 252q0 106 -31 192t-86 145.5t-133 92.5t-172 33q-125 0 -228.5 -53.5t-178 -143.5t-115.5 -210t-41 -251zM322 1356q0 -63 47 -110.5t112 -47.5q66 0 113 47.5t47 110.5 q0 33 -13.5 62.5t-35 51t-50 34t-61.5 12.5t-61.5 -12.5t-50 -34t-34.5 -51t-13 -62.5zM362 459q0 86 19.5 154.5t53.5 115.5t78 71.5t91 24.5q70 0 116 -54t46 -155q0 -86 -19.5 -154.5t-53.5 -115.5t-78 -71.5t-91 -24.5q-70 0 -116 54.5t-46 154.5zM764 1356 q0 -31 13.5 -59.5t35 -50t51 -35t62.5 -13.5q63 0 110 47.5t47 110.5q0 33 -13 62.5t-34.5 51t-50.5 34t-59 12.5q-66 0 -114 -47.5t-48 -112.5z" />
<glyph unicode="&#xf7;" d="M41 717l346 -271q16 -10 31.5 -9t23.5 5q39 25 25 72l-41 94h285v-254l-95 39q-47 14 -71 -22q-4 -8 -5 -24.5t9 -33.5l270 -344l264 344q12 18 11.5 33.5t-4.5 24.5q-23 37 -68 22l-98 -39v254h288l-41 -92q-12 -51 25 -74q8 -4 23.5 -5t33.5 9l344 271l-344 264 q-20 12 -34.5 11t-22.5 -5q-23 -12 -27 -28.5t2 -38.5l41 -99h-288v258l98 -39q45 -14 68 23q4 8 5 23.5t-12 33.5l-264 344l-270 -344q-10 -16 -9 -32.5t5 -24.5q27 -39 71 -23l95 39v-258h-285l41 99q6 23 2 39t-27 28q-8 4 -22 5t-33 -11z" />
<glyph unicode="&#xf8;" horiz-adv-x="1128" d="M-12 -102h252l79 112q82 -33 175 -33q125 0 228 53.5t178 143.5t116 209t41 252q0 92 -22.5 167t-63.5 132l172 244h-252l-80 -115q-82 35 -176 35q-125 0 -228.5 -53.5t-178 -143.5t-115.5 -210t-41 -251q0 -92 22.5 -168t63.5 -133zM342 459q0 92 21.5 163.5t58.5 122 t84 76t98 25.5q29 0 60 -10l-316 -447q-6 33 -6 70zM465 240l315 444q6 -31 6 -68q0 -92 -21.5 -163.5t-58 -121.5t-84 -76t-98.5 -26q-29 0 -59 11z" />
<glyph unicode="&#xf9;" horiz-adv-x="1187" d="M100 311q0 -162 84 -248t258 -86q84 0 143.5 28t100.5 67l-12 -72h282l189 1075h-283l-102 -588q-23 -135 -77 -189t-140 -54q-150 0 -150 155q0 20 2 43t6 52l103 581h-283l-106 -606q-6 -41 -10.5 -82t-4.5 -76zM385 1546l240 -327h239l-121 327h-358z" />
<glyph unicode="&#xfa;" horiz-adv-x="1187" d="M100 311q0 -162 84 -248t258 -86q84 0 143.5 28t100.5 67l-12 -72h282l189 1075h-283l-102 -588q-23 -135 -77 -189t-140 -54q-150 0 -150 155q0 20 2 43t6 52l103 581h-283l-106 -606q-6 -41 -10.5 -82t-4.5 -76zM549 1219h239l355 327h-359z" />
<glyph unicode="&#xfb;" horiz-adv-x="1187" d="M100 311q0 -162 84 -248t258 -86q84 0 143.5 28t100.5 67l-12 -72h282l189 1075h-283l-102 -588q-23 -135 -77 -189t-140 -54q-150 0 -150 155q0 20 2 43t6 52l103 581h-283l-106 -606q-6 -41 -10.5 -82t-4.5 -76zM311 1219h195l231 153l178 -153h183l-193 327h-287z" />
<glyph unicode="&#xfc;" horiz-adv-x="1187" d="M100 311q0 -162 84 -248t258 -86q84 0 143.5 28t100.5 67l-12 -72h282l189 1075h-283l-102 -588q-23 -135 -77 -189t-140 -54q-150 0 -150 155q0 20 2 43t6 52l103 581h-283l-106 -606q-6 -41 -10.5 -82t-4.5 -76zM348 1376q0 -63 47 -110t113 -47t113 47t47 110 q0 33 -13.5 62.5t-35 51t-50 34t-61.5 12.5t-61.5 -12.5t-50 -34t-35 -51t-13.5 -62.5zM791 1376q0 -31 13 -59.5t34.5 -50t51.5 -34.5t62 -13q63 0 110.5 47t47.5 110q0 33 -13.5 62.5t-35 51t-50 34t-59.5 12.5q-66 0 -113.5 -47t-47.5 -113z" />
<glyph unicode="&#xfd;" horiz-adv-x="1200" d="M147 1075l220 -1075l-209 -379h282l805 1454h-307l-264 -518q-33 -63 -63.5 -129t-47.5 -106q-4 39 -11 105.5t-17 129.5l-80 518h-308zM557 1198h240l354 328h-358z" />
<glyph unicode="&#xfe;" horiz-adv-x="1142" d="M-29 -395l308 141l53 320q53 -41 104 -65t133 -24q121 0 214.5 59.5t157 158t96 226.5t32.5 265q0 193 -91 302.5t-263 109.5q-66 0 -117 -24.5t-96 -65.5l84 485l-307 -141zM383 336l72 405q35 35 76.5 62.5t97.5 27.5q149 1 149 -192q0 -80 -15 -152.5t-43 -126 t-68 -85t-89 -31.5q-59 0 -99 22.5t-81 69.5z" />
<glyph unicode="&#xff;" horiz-adv-x="1200" d="M147 1075l220 -1075l-209 -379h282l805 1454h-307l-264 -518q-33 -63 -63.5 -129t-47.5 -106q-4 39 -11 105.5t-17 129.5l-80 518h-308zM367 1356q0 -63 47 -110.5t112 -47.5q66 0 113 47.5t47 110.5q0 33 -13.5 62.5t-35 51t-50 34t-61.5 12.5t-61.5 -12.5t-50 -34 t-34.5 -51t-13 -62.5zM809 1356q0 -31 13.5 -59.5t35 -50t51 -35t62.5 -13.5q63 0 110 47.5t47 110.5q0 33 -13 62.5t-34.5 51t-50.5 34t-59 12.5q-66 0 -114 -47.5t-48 -112.5z" />
<glyph unicode="&#x152;" horiz-adv-x="2174" d="M121 567q0 -139 39 -247.5t111.5 -185.5t176 -117t232.5 -40q61 0 114.5 14.5t95.5 36t72.5 48t49.5 53.5l-23 -129h971l49 281h-715l62 346h387l49 278h-387l43 248h684l49 281h-940l-27 -150q-47 72 -140 122t-243 50q-156 0 -285.5 -70.5t-224 -192.5t-147.5 -283.5 t-53 -342.5zM420 608q0 127 31.5 230.5t86 177.5t127 114.5t156.5 40.5q61 0 113.5 -20.5t91.5 -63.5t61.5 -108.5t22.5 -153.5q0 -127 -31.5 -230t-86 -177t-128 -115t-155.5 -41q-61 0 -113.5 20.5t-91.5 63.5t-61.5 107.5t-22.5 154.5z" />
<glyph unicode="&#x153;" horiz-adv-x="1753" d="M72 440q0 -106 30.5 -192t86 -145.5t133 -92.5t172.5 -33q111 0 195.5 41t150.5 113q55 -72 136 -113t204 -41q102 0 194 33t191 109l-138 196q-104 -72 -215 -71q-37 0 -74.5 11t-68.5 34.5t-47 62.5t-10 94h635q14 49 23 105.5t9 110.5q0 90 -22.5 168.5t-70.5 138 t-124 94.5t-182 35q-109 0 -196 -46t-140 -112q-47 80 -129 119t-188 39q-121 0 -222.5 -53.5t-175 -143.5t-115.5 -210t-42 -251zM362 459q0 86 19.5 154.5t53.5 115.5t78 71.5t91 24.5q70 0 116 -54t46 -155q0 -86 -19.5 -154.5t-53.5 -115.5t-78 -71.5t-91 -24.5 q-70 0 -116 54.5t-46 154.5zM1049 659q25 82 72.5 137.5t125.5 55.5q47 0 81 -15.5t53.5 -42t27.5 -61.5t4 -74h-364z" />
<glyph unicode="&#x178;" horiz-adv-x="1454" d="M203 1434l385 -873l-99 -561h287l101 567l690 867h-332l-264 -340q-29 -35 -59.5 -78t-58.5 -84t-51.5 -75t-35.5 -52q-6 20 -19.5 55t-29 77t-32.5 83t-30 74l-141 340h-311zM522 1663q0 -63 47 -110.5t113 -47.5t113 47.5t47 110.5q0 33 -13.5 62.5t-35 51t-50 34 t-61.5 12.5t-61.5 -12.5t-50 -34t-35 -51t-13.5 -62.5zM965 1663q0 -31 13 -59.5t34.5 -50t51.5 -35t62 -13.5q63 0 110.5 47.5t47.5 110.5q0 33 -13.5 62.5t-35 51t-50 34t-59.5 12.5q-66 0 -113.5 -47t-47.5 -113z" />
<glyph unicode="&#x2c6;" horiz-adv-x="1024" d="M240 1219h194l232 153l178 -153h182l-192 327h-287z" />
<glyph unicode="&#x2dc;" horiz-adv-x="1024" d="M238 1219h184q18 53 36.5 75.5t45.5 22.5q31 0 62.5 -15.5t66.5 -35.5q37 -20 81 -37t97 -17q104 0 180 79t101 216h-185q-20 -53 -37.5 -75.5t-46.5 -22.5q-33 0 -64.5 16.5t-70.5 36.5q-35 20 -77 35.5t-95 15.5q-104 0 -180 -78.5t-98 -215.5z" />
<glyph unicode="&#x2000;" horiz-adv-x="926" />
<glyph unicode="&#x2001;" horiz-adv-x="1853" />
<glyph unicode="&#x2002;" horiz-adv-x="926" />
<glyph unicode="&#x2003;" horiz-adv-x="1853" />
<glyph unicode="&#x2004;" horiz-adv-x="617" />
<glyph unicode="&#x2005;" horiz-adv-x="463" />
<glyph unicode="&#x2006;" horiz-adv-x="308" />
<glyph unicode="&#x2007;" horiz-adv-x="308" />
<glyph unicode="&#x2008;" horiz-adv-x="231" />
<glyph unicode="&#x2009;" horiz-adv-x="370" />
<glyph unicode="&#x200a;" horiz-adv-x="102" />
<glyph unicode="&#x2010;" horiz-adv-x="833" d="M135 602h588l49 283h-588z" />
<glyph unicode="&#x2011;" horiz-adv-x="833" d="M135 602h588l49 283h-588z" />
<glyph unicode="&#x2012;" horiz-adv-x="833" d="M135 602h588l49 283h-588z" />
<glyph unicode="&#x2013;" horiz-adv-x="942" d="M127 612h717l45 262h-717z" />
<glyph unicode="&#x2014;" horiz-adv-x="1269" d="M127 612h1044l46 262h-1045z" />
<glyph unicode="&#x2018;" horiz-adv-x="575" d="M143 858h334l131 576h-194z" />
<glyph unicode="&#x2019;" horiz-adv-x="575" d="M180 858h195l270 576h-334z" />
<glyph unicode="&#x201a;" horiz-adv-x="575" d="M-10 -229h194l269 575h-334z" />
<glyph unicode="&#x201c;" horiz-adv-x="1110" d="M145 858h334l129 576h-194zM680 858h334l129 576h-195z" />
<glyph unicode="&#x201d;" horiz-adv-x="1110" d="M182 858h195l268 576h-334zM717 858h194l269 576h-334z" />
<glyph unicode="&#x201e;" horiz-adv-x="1110" d="M-10 -229h194l269 575h-334zM524 -229h195l268 575h-334z" />
<glyph unicode="&#x2022;" horiz-adv-x="1003" d="M166 750q0 -78 28.5 -145.5t78 -117t117 -78t145.5 -28.5t145.5 28.5t116.5 78t77.5 117t28.5 145.5t-28.5 145.5t-77.5 118.5t-117 79.5t-145 28.5q-78 0 -145.5 -28.5t-117 -79.5t-78 -119t-28.5 -145z" />
<glyph unicode="&#x2026;" horiz-adv-x="1671" d="M20 170q0 -39 15.5 -74t42 -61.5t61.5 -42t74 -15.5t74 15.5t61.5 42t42 61.5t15.5 74t-15.5 74t-42 61.5t-61.5 41.5t-74 15t-74 -15t-61.5 -41.5t-42 -61.5t-15.5 -74zM578 170q0 -39 15 -74t42 -61.5t61.5 -42t73.5 -15.5t74 15.5t61.5 42t42 61.5t15.5 74t-15.5 74 t-42 61.5t-61.5 41.5t-74 15t-73.5 -15t-61.5 -41.5t-42 -61.5t-15 -74zM1135 170q0 -39 15 -74t42 -61.5t61.5 -42t73.5 -15.5t74 15.5t61.5 42t42 61.5t15.5 74t-15.5 74t-42 61.5t-61.5 41.5t-74 15t-73.5 -15t-61.5 -41.5t-42 -61.5t-15 -74z" />
<glyph unicode="&#x202f;" horiz-adv-x="370" />
<glyph unicode="&#x2039;" horiz-adv-x="770" d="M61 537l240 -537h293l-229 539l417 536h-293z" />
<glyph unicode="&#x203a;" horiz-adv-x="770" d="M-12 0h293l428 539l-240 536h-293l230 -538z" />
<glyph unicode="&#x205f;" horiz-adv-x="463" />
<glyph unicode="&#x20ac;" horiz-adv-x="1298" d="M117 559q0 -135 35.5 -243.5t103.5 -183.5t166 -115t223 -40q174 0 310.5 81t238.5 212l-225 164q-66 -82 -138.5 -134t-162.5 -52q-109 0 -172.5 56t-81.5 165h409l35 188h-448q2 29 6 58.5t8 58.5h453l34 189h-428q47 100 124 161.5t181 61.5q109 0 167.5 -65.5 t82.5 -166.5l277 105q-23 92 -63 164.5t-99 125t-142 80t-194 27.5q-164 0 -294 -74.5t-220 -199.5t-138 -287t-48 -336z" />
<glyph unicode="&#x2122;" horiz-adv-x="1691" d="M166 1266h201l-113 -639h195l112 639h201l31 168h-596zM784 627h183l71 399q4 20 6.5 43t4.5 45q4 -16 8 -36.5t10 -39.5l133 -436l285 436q12 18 23.5 39t21.5 39q-4 -23 -9 -45t-10 -45l-71 -399h182l143 807h-200l-228 -349q-23 -35 -45 -69.5t-35 -63.5q-4 27 -16 64 t-22 69l-103 349h-188z" />
<glyph unicode="&#x25fc;" horiz-adv-x="1075" d="M0 0v1075h1075v-1075h-1075z" />
<glyph unicode="&#xfb01;" horiz-adv-x="1316" d="M113 0h282l142 809h174l47 266h-174l16 90q10 47 27.5 66.5t64.5 19.5q35 0 65.5 -9t47.5 -19l41 219q-29 18 -86.5 31.5t-112.5 13.5q-147 0 -222 -63.5t-101 -219.5l-23 -129h-129l-47 -266h129zM793 0h282l189 1075h-283zM1001 1325q0 -66 48.5 -114t113.5 -48 q66 0 114 48t48 114t-48 114t-114 48t-114 -48t-48 -114z" />
<glyph unicode="&#xfb02;" horiz-adv-x="1316" d="M113 0h282l142 809h174l47 266h-174l16 90q10 47 27.5 66.5t64.5 19.5q35 0 65.5 -9t47.5 -19l41 219q-29 18 -86.5 31.5t-112.5 13.5q-147 0 -222 -63.5t-101 -219.5l-23 -129h-129l-47 -266h129zM793 0h282l262 1493l-307 -141z" />
</font>
</defs>
</svg>
